<?xml version="1.0" encoding="UTF-8"?>
<svg width="23px" height="30px" viewBox="0 0 23 30" version="1.1" xmlns="http://www.w3.org/2000/svg" xmlns:xlink="http://www.w3.org/1999/xlink">
    <!-- Generator: sketchtool 46.2 (44496) - http://www.bohemiancoding.com/sketch -->
    <title>F15D0781-98F8-459C-991B-2F4DD563F294</title>
    <desc>Created with sketchtool.</desc>
    <defs></defs>
    <g id="Wapik" stroke="none" stroke-width="1" fill="none" fill-rule="evenodd">
        <g id="CONF-1280" transform="translate(-75.000000, -4222.000000)" fill-rule="nonzero" fill="#055574">
            <g id="LOCATING" transform="translate(-80.000000, 3920.000000)">
                <g id="icons8-point_objects" transform="translate(155.000000, 302.000000)">
                    <path d="M11.1111111,0 C4.98697889,0 0,4.71569216 0,10.4975396 C0,14.1388737 2.63888889,18.5798253 5.17361111,22.3195738 C7.71267333,26.0593223 10.2473956,29.0035536 10.2473956,29.0035536 L11.1024311,30 L11.9661456,29.0117553 C11.9661456,29.0117553 14.5052089,26.1167302 17.0442711,22.4015858 C19.5833333,18.6823401 22.2222222,14.2249861 22.2222222,10.4975396 C22.2222222,4.71569216 17.2352433,0 11.1111111,0 Z M11.1111111,2.09950793 C16.0329867,2.09950793 20,5.84745815 20,10.4975396 C20,13.1957359 17.6388889,17.6612906 15.1779511,21.2616181 C13.1467011,24.2304535 11.7664933,25.7927835 11.1154511,26.5554948 C10.47309,25.7845817 9.07986111,24.1853477 7.04861111,21.1878078 C4.58333333,17.5587758 2.22222222,13.0768177 2.22222222,10.4975396 C2.22222222,5.84745815 6.18923667,2.09950793 11.1111111,2.09950793 Z M11.1111111,6.29852378 C8.66753444,6.29852378 6.66666667,8.19300217 6.66666667,10.4975396 C6.66666667,12.8020782 8.66753444,14.6965555 11.1111111,14.6965555 C13.5546878,14.6965555 15.5555556,12.8020782 15.5555556,10.4975396 C15.5555556,8.19300217 13.5546878,6.29852378 11.1111111,6.29852378 Z M11.1111111,8.39803171 C12.3524311,8.39803171 13.3333333,9.32476816 13.3333333,10.4975396 C13.3333333,11.6703122 12.3524311,12.5970476 11.1111111,12.5970476 C9.86979222,12.5970476 8.88888889,11.6703122 8.88888889,10.4975396 C8.88888889,9.32476816 9.86979222,8.39803171 11.1111111,8.39803171 Z" id="Shape"></path>
                </g>
            </g>
        </g>
    </g>
</svg>