<?xml version="1.0" encoding="UTF-8"?>
<svg width="30px" height="31px" viewBox="0 0 30 31" version="1.1" xmlns="http://www.w3.org/2000/svg" xmlns:xlink="http://www.w3.org/1999/xlink">
    <!-- Generator: sketchtool 46.2 (44496) - http://www.bohemiancoding.com/sketch -->
    <title>3F2D19C1-30C0-4CB3-9354-1C95C1C182DD</title>
    <desc>Created with sketchtool.</desc>
    <defs></defs>
    <g id="Wapik" stroke="none" stroke-width="1" fill="none" fill-rule="evenodd">
        <g id="CONF-1280" transform="translate(-70.000000, -4300.000000)" fill-rule="nonzero" fill="#055574">
            <g id="LOCATING" transform="translate(-80.000000, 3920.000000)">
                <g id="icons8-phone" transform="translate(165.000000, 395.500000) rotate(-90.000000) translate(-165.000000, -395.500000) translate(149.500000, 380.500000)">
                    <path d="M6.97025323,0 C6.3685064,0 5.77574031,0.215551307 5.28176799,0.610728704 L5.20991755,0.646653922 L5.17399233,0.68257914 L1.58147054,4.38287658 L1.61739576,4.4188018 C0.508204373,5.44267051 0.166914803,6.97398263 0.64741488,8.29872533 C0.651905244,8.30770721 0.642924515,8.32566982 0.64741488,8.33465055 C1.62188613,11.1233453 4.1141984,16.5076376 8.98206543,21.3755046 C13.8678951,26.2613343 19.3240378,28.6548516 22.0229195,29.7101552 L22.0588447,29.7101552 C23.4554379,30.177183 24.9687874,29.8448753 26.0465439,28.9198004 L29.6749909,25.2913534 C30.6270092,24.3393351 30.6270092,22.6867751 29.6749909,21.7347568 L25.0047126,17.0644785 L24.9687874,16.9926281 C24.0167691,16.0406098 22.3282839,16.0406098 21.3762656,16.9926281 L19.0770516,19.291842 C18.2462813,18.8921742 16.2659039,17.8683055 14.3708481,16.0585724 C12.4892645,14.2623115 11.5282655,12.1966115 11.1735037,11.3882941 L13.4727177,9.08908012 C14.4382082,8.1235896 14.4561708,6.51593668 13.4367924,5.56840877 L13.4727177,5.53248355 L13.364942,5.4247079 L8.76651412,0.68257914 L8.7305889,0.646653922 L8.65873847,0.610728704 C8.16476729,0.215551307 7.5720012,0 6.97025323,0 Z M6.97025323,2.29921394 C7.05557591,2.29921394 7.14089859,2.33962953 7.22172975,2.4069896 L11.8201576,7.11319314 L11.9279333,7.22096879 C11.9189526,7.21198806 11.9952934,7.33323481 11.8560829,7.47244532 L8.98206543,10.3464627 L8.44318716,10.8494158 L8.69466368,11.5679202 C8.69466368,11.5679202 10.014916,15.1020638 12.7901385,17.7470576 L13.041615,17.9626089 C15.7135534,20.4010334 18.8615003,21.7347568 18.8615003,21.7347568 L19.5800047,22.0580838 L22.9929004,18.6451881 C23.1904891,18.4475994 23.1545639,18.4475994 23.3521526,18.6451881 L28.0583561,23.3513916 C28.2559448,23.5489803 28.2559448,23.4771299 28.0583561,23.6747186 L24.5376848,27.1953899 C24.0077884,27.6489455 23.446456,27.7432501 22.7773491,27.5187169 C20.1727708,26.4948482 15.1118054,24.271975 10.5987002,19.7588698 C6.0496698,15.2098394 3.67411506,10.0500803 2.80292795,7.54429575 C2.62779223,7.07726792 2.75353049,6.38570805 3.16218013,6.0354366 L3.23403057,5.96358617 L6.7187767,2.4069896 C6.79960902,2.33962953 6.88493055,2.29921394 6.97025323,2.29921394 Z" id="Shape"></path>
                </g>
            </g>
        </g>
    </g>
</svg>