<?xml version="1.0" encoding="UTF-8"?>
<svg width="45px" height="45px" viewBox="0 0 45 45" version="1.1" xmlns="http://www.w3.org/2000/svg" xmlns:xlink="http://www.w3.org/1999/xlink">
    <!-- Generator: sketchtool 46.2 (44496) - http://www.bohemiancoding.com/sketch -->
    <title>B41902CD-AFF1-4291-BCD5-B1422D7DDEF9</title>
    <desc>Created with sketchtool.</desc>
    <defs></defs>
    <g id="Wapik" stroke="none" stroke-width="1" fill="none" fill-rule="evenodd">
        <g id="CONF-1280" transform="translate(-174.000000, -3806.000000)" stroke="#00A54F" fill="#00A54F">
            <g id="WHOM-INTERESTED" transform="translate(-80.000000, 3214.000000)">
                <path d="M276.5,593 C288.376683,593 298,602.623317 298,614.5 C298,626.376683 288.376683,636 276.5,636 C264.623317,636 255,626.376683 255,614.5 C255,602.623317 264.623317,593 276.5,593 Z M285.217936,606 L272.581485,618.826531 L267.802314,614.010204 L266,615.826531 L271.670203,621.540816 C271.923337,621.795918 272.267599,622 272.57136,622 C272.875121,622 273.209257,621.795918 273.462392,621.55102 L287,607.836735 L285.217936,606 Z M276.5,634 C265.753015,634 257,625.257209 257,614.499999 C257,603.753015 265.74279,595 276.5,595 C287.246985,595 296,603.742789 296,614.499999 C296,625.246984 287.246985,634 276.5,634 L276.5,634 Z" id="Fill-1-Copy-5"></path>
            </g>
        </g>
    </g>
</svg>