<?xml version="1.0" encoding="UTF-8" standalone="no"?>
<svg
   xmlns:dc="http://purl.org/dc/elements/1.1/"
   xmlns:cc="http://creativecommons.org/ns#"
   xmlns:rdf="http://www.w3.org/1999/02/22-rdf-syntax-ns#"
   xmlns:svg="http://www.w3.org/2000/svg"
   xmlns="http://www.w3.org/2000/svg"
   viewBox="0 0 417.73334 113.38667"
   height="113.38667"
   width="417.73334"
   xml:space="preserve"
   id="svg2"
   version="1.1"><metadata
     id="metadata8"><rdf:RDF><cc:Work
         rdf:about=""><dc:format>image/svg+xml</dc:format><dc:type
           rdf:resource="http://purl.org/dc/dcmitype/StillImage" /></cc:Work></rdf:RDF></metadata><defs
     id="defs6"><clipPath
       id="clipPath34"
       clipPathUnits="userSpaceOnUse"><path
         id="path32"
         d="M 0,0 H 3133 V 850 H 0 Z" /></clipPath><clipPath
       id="clipPath40"
       clipPathUnits="userSpaceOnUse"><path
         id="path38"
         d="m 420.094,850.391 c 232.011,0 420.094,-188.078 420.094,-420.09 0,-232.008 -188.083,-420.094 -420.094,-420.094 -232.012,0 -420.09009375,188.086 -420.09009375,420.094 0,232.012 188.07809375,420.09 420.09009375,420.09 z" /></clipPath><linearGradient
       id="linearGradient46"
       spreadMethod="pad"
       gradientTransform="matrix(840.187,0,0,840.187,0,430.301)"
       gradientUnits="userSpaceOnUse"
       y2="0"
       x2="1"
       y1="0"
       x1="0"><stop
         id="stop42"
         offset="0"
         style="stop-opacity:1;stop-color:#f6f6f6" /><stop
         id="stop44"
         offset="1"
         style="stop-opacity:1;stop-color:#e6e6e5" /></linearGradient><clipPath
       id="clipPath58"
       clipPathUnits="userSpaceOnUse"><path
         id="path56"
         d="m 153.102,409.887 c -6.446,89.176 130.003,174.054 212.199,198.765 l -23.102,75.743 C 225.09,649.48 143.973,536.668 153.102,409.887" /></clipPath><linearGradient
       id="linearGradient64"
       spreadMethod="pad"
       gradientTransform="matrix(71.6367,-71.6366,71.6366,71.6367,203.82,590.973)"
       gradientUnits="userSpaceOnUse"
       y2="0"
       x2="1"
       y1="0"
       x1="0"><stop
         id="stop60"
         offset="0"
         style="stop-opacity:1;stop-color:#5cabda" /><stop
         id="stop62"
         offset="1"
         style="stop-opacity:1;stop-color:#18343c" /></linearGradient><clipPath
       id="clipPath74"
       clipPathUnits="userSpaceOnUse"><path
         id="path72"
         d="m 294.926,304.055 c 68.762,-68.758 180.5,-68.758 249.262,-0.539 l -41.364,41.371 c -46.203,-45.129 -120.336,-45.129 -165.996,0.535 -45.664,45.664 -46.199,120.332 -0.535,165.996 l -41.367,41.367 c -68.762,-68.226 -68.762,-179.961 0,-248.73 z" /></clipPath><linearGradient
       id="linearGradient80"
       spreadMethod="pad"
       gradientTransform="matrix(300.834,0,0,300.834,243.353,402.601)"
       gradientUnits="userSpaceOnUse"
       y2="0"
       x2="1"
       y1="0"
       x1="0"><stop
         id="stop76"
         offset="0"
         style="stop-opacity:1;stop-color:#634e7c" /><stop
         id="stop78"
         offset="1"
         style="stop-opacity:1;stop-color:#2c2431" /></linearGradient><clipPath
       id="clipPath90"
       clipPathUnits="userSpaceOnUse"><path
         id="path88"
         d="m 294.926,304.055 c -45.66,45.664 -4.297,161.699 40.828,207.898 l -41.367,41.367 c -68.223,-68.761 -68.223,-180.496 0.539,-249.265" /></clipPath><linearGradient
       id="linearGradient104"
       spreadMethod="pad"
       gradientTransform="matrix(95.8215,-34.8765,34.8765,95.8215,239.128,448.9)"
       gradientUnits="userSpaceOnUse"
       y2="0"
       x2="1"
       y1="0"
       x1="0"><stop
         id="stop92"
         offset="0"
         style="stop-opacity:1;stop-color:#634e7c" /><stop
         id="stop94"
         offset="0.1736"
         style="stop-opacity:1;stop-color:#544267" /><stop
         id="stop96"
         offset="0.4223"
         style="stop-opacity:1;stop-color:#41344e" /><stop
         id="stop98"
         offset="0.6513"
         style="stop-opacity:1;stop-color:#362b3e" /><stop
         id="stop100"
         offset="0.8512"
         style="stop-opacity:1;stop-color:#2e2534" /><stop
         id="stop102"
         offset="1"
         style="stop-opacity:1;stop-color:#2c2431" /></linearGradient><clipPath
       id="clipPath118"
       clipPathUnits="userSpaceOnUse"><path
         id="path116"
         d="m 140.75,708.035 c 109.051,109.051 367.98,26.86 477.035,-81.656 l 81.656,81.656 c -155.793,155.789 -400.757,157.938 -558.691,0" /></clipPath><linearGradient
       id="linearGradient124"
       spreadMethod="pad"
       gradientTransform="matrix(-78.4447,-215.526,215.526,-78.4447,465.861,833.781)"
       gradientUnits="userSpaceOnUse"
       y2="0"
       x2="1"
       y1="0"
       x1="0"><stop
         id="stop120"
         offset="0"
         style="stop-opacity:1;stop-color:#f04520" /><stop
         id="stop122"
         offset="1"
         style="stop-opacity:1;stop-color:#8b321c" /></linearGradient></defs><g
     transform="matrix(1.3333333,0,0,-1.3333333,0,113.38667)"
     id="g10"><g
       transform="scale(0.1)"
       id="g12"><path
         id="path14"
         style="fill:#110f0e;fill-opacity:1;fill-rule:nonzero;stroke:none"
         d="m 1135.11,434.059 v 1.074 c 0,85.953 63.93,156.867 151.49,156.867 50.5,0 81.66,-17.191 111.2,-42.441 2.15,-2.149 4.3,-5.371 4.3,-9.133 0,-5.906 -5.37,-11.278 -11.81,-11.278 -3.23,0 -5.92,1.075 -8.07,3.223 -25.25,23.102 -54.25,39.215 -96.69,39.215 -73.06,0 -127.86,-59.633 -127.86,-135.914 v -1.074 c 0,-76.825 55.87,-136.453 128.4,-136.453 41.36,0 70.37,14.503 98.84,41.906 1.61,1.609 4.3,3.222 8.06,3.222 5.37,0 10.74,-5.371 10.74,-10.742 0,-3.222 -1.61,-5.91 -3.22,-8.054 -30.62,-28.481 -63.93,-47.278 -114.96,-47.278 -86.49,1.074 -150.42,69.832 -150.42,156.86" /><path
         id="path16"
         style="fill:#110f0e;fill-opacity:1;fill-rule:nonzero;stroke:none"
         d="m 1549.3,576.953 c 0,5.914 5.37,11.285 11.28,11.285 5.91,0 11.28,-5.371 11.28,-11.285 v -284.18 c 0,-5.906 -5.37,-11.277 -11.28,-11.277 -5.91,0 -11.28,5.371 -11.28,11.277 v 284.18" /><path
         id="path18"
         style="fill:#110f0e;fill-opacity:1;fill-rule:nonzero;stroke:none"
         d="m 1743.22,576.953 c 0,5.914 5.38,11.285 11.28,11.285 5.91,0 11.29,-5.371 11.29,-11.285 V 387.324 l 191.78,197.692 c 1.61,1.613 4.3,3.222 8.06,3.222 5.37,0 11.28,-5.371 11.28,-11.285 0,-3.223 -1.08,-5.367 -3.23,-8.055 L 1857.11,452.863 1980.67,301.367 c 2.14,-2.683 3.23,-4.832 3.23,-8.054 0,-5.911 -5.38,-11.817 -11.83,-11.817 -3.76,0 -6.98,2.149 -8.59,4.297 L 1841,436.746 1765.79,360.461 v -67.688 c 0,-5.906 -5.38,-11.277 -11.29,-11.277 -5.9,0 -11.28,5.371 -11.28,11.277 v 284.18" /><path
         id="path20"
         style="fill:#110f0e;fill-opacity:1;fill-rule:nonzero;stroke:none"
         d="m 2131.09,576.953 c 0,5.914 5.37,11.285 11.28,11.285 5.9,0 11.28,-5.371 11.28,-11.285 V 304.055 h 169.22 c 5.37,0 10.21,-4.832 10.21,-10.203 0,-5.375 -4.84,-10.207 -10.21,-10.207 h -180.5 c -5.91,0 -11.28,5.371 -11.28,11.281 v 282.027" /><path
         id="path22"
         style="fill:#110f0e;fill-opacity:1;fill-rule:nonzero;stroke:none"
         d="m 2437.83,409.348 v 167.605 c 0,5.914 5.38,11.285 11.28,11.285 5.91,0 11.28,-5.371 11.28,-11.285 V 411.496 c 0,-71.445 38.68,-112.812 102.61,-112.812 61.78,0 101,37.07 101,110.664 v 167.605 c 0,5.914 5.37,11.285 11.28,11.285 5.9,0 11.27,-5.371 11.27,-11.285 V 412.031 c 0,-87.019 -50.49,-133.222 -124.62,-133.222 -72.52,-0.536 -124.1,45.668 -124.1,130.539" /><path
         id="path24"
         style="fill:#110f0e;fill-opacity:1;fill-rule:nonzero;stroke:none"
         d="m 2841.27,576.418 c 0,5.914 5.37,11.285 11.28,11.285 h 2.15 c 4.83,0 8.06,-2.687 11.28,-6.445 l 118.19,-174.059 118.19,174.059 c 2.68,3.758 6.44,6.445 11.27,6.445 h 2.15 c 5.91,0 11.28,-5.371 11.28,-11.285 V 292.773 c 0,-5.906 -5.37,-11.277 -11.28,-11.277 -5.9,0 -11.28,5.371 -11.28,11.277 v 254.098 l -111.2,-162.23 c -2.68,-3.758 -5.37,-5.371 -9.67,-5.371 -3.76,0 -6.99,1.613 -9.67,5.371 l -111.2,162.23 V 292.238 c 0,-5.91 -4.84,-10.742 -10.75,-10.742 -5.9,0 -10.74,4.832 -10.74,10.742 v 284.18" /><path
         id="path26"
         style="fill:#cbcbc8;fill-opacity:1;fill-rule:nonzero;stroke:none"
         d="m 430.301,840.188 c 232.012,0 420.094,-188.083 420.094,-420.098 C 850.395,188.078 662.313,0.00390625 430.301,0.00390625 198.289,0.00390625 10.207,188.078 10.207,420.09 c 0,232.015 188.082,420.098 420.094,420.098" /><g
         id="g28"><g
           clip-path="url(#clipPath34)"
           id="g30"><g
             clip-path="url(#clipPath40)"
             id="g36"><path
               id="path48"
               style="fill:url(#linearGradient46);fill-opacity:1;fill-rule:nonzero;stroke:none"
               d="m 395,10 v 1 h -13 v 1 h -10 v 1 h -8 v 1 h -8 v 1 h -6 v 1 h -5 v 1 h -6 v 1 h -5 v 1 h -5 v 1 h -4 v 1 h -4 v 1 h -5 v 1 h -3 v 1 h -4 v 1 h -3 v 1 h -4 v 1 h -3 v 1 h -4 v 1 h -3 v 1 h -3 v 1 h -3 v 1 h -3 v 1 h -3 v 1 h -3 v 1 h -3 v 1 h -2 v 1 h -3 v 1 h -2 v 1 h -3 v 1 h -2 v 1 h -3 v 1 h -2 v 1 h -3 v 1 h -2 v 1 h -2 v 1 h -2 v 1 h -2 v 1 h -3 v 1 h -2 v 1 h -2 v 1 h -2 v 1 h -2 v 1 h -2 v 1 h -2 v 1 h -2 v 1 h -2 v 1 h -2 v 1 h -2 v 1 h -2 v 1 h -2 v 1 h -2 v 1 h -1 v 1 h -2 v 1 h -2 v 1 h -1 v 1 h -2 v 1 h -2 v 1 h -2 v 1 h -1 v 1 h -2 v 1 h -2 v 1 h -1 v 1 h -2 v 1 h -1 v 1 h -2 v 1 h -2 v 1 h -1 v 1 h -2 v 1 h -1 v 1 h -2 v 1 h -1 v 1 h -2 v 1 h -1 v 1 h -2 v 1 h -1 v 1 h -1 v 1 h -2 v 1 h -1 v 1 h -2 v 1 h -1 v 1 h -1 v 1 h -2 v 1 h -1 v 1 h -1 v 1 h -2 v 1 h -1 v 1 h -1 v 1 h -2 v 1 h -1 v 1 h -1 v 1 h -1 v 1 h -2 v 1 h -1 v 1 h -1 v 1 h -1 v 1 h -2 v 1 h -1 v 1 h -1 v 1 h -1 v 1 h -1 v 1 h -1 v 1 h -2 v 1 h -1 v 1 h -1 v 1 h -1 v 1 h -1 v 1 h -1 v 1 h -1 v 1 h -2 v 1 h -1 v 1 h -1 v 1 h -1 v 1 h -1 v 1 h -1 v 1 h -1 v 1 h -1 v 1 h -1 v 1 h -1 v 1 h -1 v 1 h -1 v 1 h -1 v 1 h -1 v 1 h -1 v 1 h -1 v 1 h -1 v 1 h -1 v 1 h -1 v 1 h -1 v 1 h -1 v 1 h -1 v 1 h -1 v 1 h -1 v 1 h -1 v 1 h -1 v 1 h -1 v 1 h -1 v 2 h -1 v 1 h -1 v 1 h -1 v 1 h -1 v 1 h -1 v 1 h -1 v 1 h -1 v 2 h -1 v 1 h -1 v 1 h -1 v 1 h -1 v 1 h -1 v 1 h -1 v 2 h -1 v 1 h -1 v 1 h -1 v 1 h -1 v 2 h -1 v 1 h -1 v 1 h -1 v 1 h -1 v 2 h -1 v 1 h -1 v 1 h -1 v 1 h -1 v 2 h -1 v 1 h -1 v 2 h -1 v 1 h -1 v 1 h -1 v 2 h -1 v 1 h -1 v 2 h -1 v 1 h -1 v 1 h -1 v 2 h -1 v 1 h -1 v 2 h -1 v 1 h -1 v 2 h -1 v 1 h -1 v 2 h -1 v 1 h -1 v 2 h -1 v 1 h -1 v 2 h -1 v 2 h -1 v 1 h -1 v 2 h -1 v 1 h -1 v 2 h -1 v 2 h -1 v 2 h -1 v 1 h -1 v 2 h -1 v 2 h -1 v 2 h -1 v 1 h -1 v 2 h -1 v 2 h -1 v 2 h -1 v 2 h -1 v 2 h -1 v 2 h -1 v 2 h -1 v 2 h -1 v 2 h -1 v 2 h -1 v 2 h -1 v 2 h -1 v 2 h -1 v 2 h -1 v 2 h -1 v 3 h -1 v 2 h -1 v 2 h -1 v 2 h -1 v 3 h -1 v 2 h -1 v 3 h -1 v 2 h -1 v 3 h -1 v 3 h -1 v 2 h -1 v 3 h -1 v 3 h -1 v 3 h -1 v 3 h -1 v 3 h -1 v 3 h -1 v 3 h -1 v 3 h -1 v 4 h -1 v 3 h -1 v 4 h -1 v 3 h -1 v 4 h -1 v 4 h -1 v 4 h -1 v 5 H 9 v 4 H 8 v 5 H 7 v 6 H 6 v 5 H 5 v 6 H 4 v 7 H 3 v 8 H 2 v 9 H 1 v 13 H 0 v 56 h 1 v 13 h 1 v 9 h 1 v 8 h 1 v 8 h 1 v 5 h 1 v 6 h 1 v 5 h 1 v 5 h 1 v 5 h 1 v 4 h 1 v 4 h 1 v 5 h 1 v 3 h 1 v 4 h 1 v 4 h 1 v 3 h 1 v 4 h 1 v 3 h 1 v 3 h 1 v 3 h 1 v 3 h 1 v 3 h 1 v 3 h 1 v 3 h 1 v 3 h 1 v 2 h 1 v 3 h 1 v 2 h 1 v 3 h 1 v 2 h 1 v 3 h 1 v 2 h 1 v 2 h 1 v 3 h 1 v 2 h 1 v 2 h 1 v 2 h 1 v 3 h 1 v 2 h 1 v 2 h 1 v 2 h 1 v 2 h 1 v 2 h 1 v 2 h 1 v 2 h 1 v 2 h 1 v 2 h 1 v 2 h 1 v 2 h 1 v 2 h 1 v 1 h 1 v 2 h 1 v 2 h 1 v 2 h 1 v 1 h 1 v 2 h 1 v 2 h 1 v 1 h 1 v 2 h 1 v 2 h 1 v 1 h 1 v 2 h 1 v 2 h 1 v 1 h 1 v 2 h 1 v 1 h 1 v 2 h 1 v 1 h 1 v 2 h 1 v 2 h 1 v 1 h 1 v 1 h 1 v 2 h 1 v 1 h 1 v 2 h 1 v 1 h 1 v 1 h 1 v 2 h 1 v 1 h 1 v 2 h 1 v 1 h 1 v 1 h 1 v 2 h 1 v 1 h 1 v 1 h 1 v 2 h 1 v 1 h 1 v 1 h 1 v 1 h 1 v 2 h 1 v 1 h 1 v 1 h 1 v 2 h 1 v 1 h 1 v 1 h 1 v 1 h 1 v 1 h 1 v 2 h 1 v 1 h 1 v 1 h 1 v 1 h 1 v 1 h 1 v 1 h 1 v 1 h 1 v 2 h 1 v 1 h 1 v 1 h 1 v 1 h 1 v 1 h 1 v 1 h 1 v 1 h 1 v 1 h 1 v 1 h 1 v 1 h 1 v 1 h 1 v 2 h 1 v 1 h 1 v 1 h 1 v 1 h 1 v 1 h 1 v 1 h 1 v 1 h 1 v 1 h 1 v 1 h 1 v 1 h 1 v 1 h 1 v 1 h 1 v 1 h 2 v 1 h 1 v 1 h 1 v 1 h 1 v 1 h 1 v 1 h 1 v 1 h 1 v 1 h 1 v 1 h 1 v 1 h 1 v 1 h 1 v 1 h 1 v 1 h 2 v 1 h 1 v 1 h 1 v 1 h 1 v 1 h 1 v 1 h 1 v 1 h 2 v 1 h 1 v 1 h 1 v 1 h 1 v 1 h 1 v 1 h 2 v 1 h 1 v 1 h 1 v 1 h 1 v 1 h 2 v 1 h 1 v 1 h 1 v 1 h 2 v 1 h 1 v 1 h 1 v 1 h 1 v 1 h 2 v 1 h 1 v 1 h 2 v 1 h 1 v 1 h 1 v 1 h 2 v 1 h 1 v 1 h 2 v 1 h 1 v 1 h 1 v 1 h 2 v 1 h 1 v 1 h 2 v 1 h 1 v 1 h 2 v 1 h 2 v 1 h 1 v 1 h 2 v 1 h 1 v 1 h 2 v 1 h 1 v 1 h 2 v 1 h 2 v 1 h 1 v 1 h 2 v 1 h 2 v 1 h 1 v 1 h 2 v 1 h 2 v 1 h 2 v 1 h 1 v 1 h 2 v 1 h 2 v 1 h 2 v 1 h 2 v 1 h 2 v 1 h 2 v 1 h 2 v 1 h 2 v 1 h 2 v 1 h 2 v 1 h 2 v 1 h 2 v 1 h 2 v 1 h 2 v 1 h 2 v 1 h 3 v 1 h 2 v 1 h 2 v 1 h 2 v 1 h 3 v 1 h 2 v 1 h 3 v 1 h 2 v 1 h 3 v 1 h 2 v 1 h 3 v 1 h 2 v 1 h 3 v 1 h 3 v 1 h 3 v 1 h 3 v 1 h 3 v 1 h 3 v 1 h 3 v 1 h 4 v 1 h 3 v 1 h 4 v 1 h 4 v 1 h 3 v 1 h 4 v 1 h 5 v 1 h 4 v 1 h 4 v 1 h 5 v 1 h 5 v 1 h 6 v 1 h 6 v 1 h 6 v 1 h 8 v 1 h 8 v 1 h 12 v 1 h 66 v -1 h 12 v -1 h 8 v -1 h 8 v -1 h 7 v -1 h 5 v -1 h 6 v -1 h 5 v -1 h 5 v -1 h 4 v -1 h 5 v -1 h 4 v -1 h 4 v -1 h 4 v -1 h 3 v -1 h 4 v -1 h 3 v -1 h 4 v -1 h 3 v -1 h 3 v -1 h 3 v -1 h 3 v -1 h 3 v -1 h 3 v -1 h 3 v -1 h 2 v -1 h 3 v -1 h 2 v -1 h 3 v -1 h 2 v -1 h 3 v -1 h 3 v -1 h 2 v -1 h 2 v -1 h 2 v -1 h 3 v -1 h 2 v -1 h 2 v -1 h 2 v -1 h 2 v -1 h 3 v -1 h 2 v -1 h 2 v -1 h 2 v -1 h 1 v -1 h 2 v -1 h 2 v -1 h 2 v -1 h 2 v -1 h 2 v -1 h 2 v -1 h 2 v -1 h 2 v -1 h 1 v -1 h 2 v -1 h 2 v -1 h 1 v -1 h 2 v -1 h 2 v -1 h 2 v -1 h 1 v -1 h 2 v -1 h 1 v -1 h 2 v -1 h 2 v -1 h 1 v -1 h 2 v -1 h 1 v -1 h 2 v -1 h 1 v -1 h 2 v -1 h 1 v -1 h 2 v -1 h 1 v -1 h 2 v -1 h 1 v -1 h 1 v -1 h 2 v -1 h 1 v -1 h 2 v -1 h 1 v -1 h 1 v -1 h 2 v -1 h 1 v -1 h 1 v -1 h 2 v -1 h 1 v -1 h 1 v -1 h 1 v -1 h 2 v -1 h 1 v -1 h 1 v -1 h 2 v -1 h 1 v -1 h 1 v -1 h 1 v -1 h 1 v -1 h 2 v -1 h 1 v -1 h 1 v -1 h 1 v -1 h 1 v -1 h 1 v -1 h 2 v -1 h 1 v -1 h 1 v -1 h 1 v -1 h 1 v -1 h 1 v -1 h 1 v -1 h 1 v -1 h 1 v -1 h 2 v -1 h 1 v -1 h 1 v -1 h 1 v -1 h 1 v -1 h 1 v -1 h 1 v -1 h 1 v -1 h 1 v -1 h 1 v -1 h 1 v -1 h 1 v -1 h 1 v -1 h 1 v -1 h 1 v -1 h 1 v -1 h 1 v -1 h 1 v -1 h 1 v -1 h 1 v -1 h 1 v -2 h 1 v -1 h 1 v -1 h 1 v -1 h 1 v -1 h 1 v -1 h 1 v -1 h 1 v -1 h 1 v -1 h 1 v -2 h 1 v -1 h 1 v -1 h 1 v -1 h 1 v -1 h 1 v -1 h 1 v -2 h 1 v -1 h 1 v -1 h 1 v -1 h 1 v -1 h 1 v -2 h 1 v -1 h 1 v -1 h 1 v -2 h 1 v -1 h 1 v -1 h 1 v -1 h 1 v -2 h 1 v -1 h 1 v -1 h 1 v -2 h 1 v -1 h 1 v -1 h 1 v -2 h 1 v -1 h 1 v -2 h 1 v -1 h 1 v -1 h 1 v -2 h 1 v -1 h 1 v -2 h 1 v -1 h 1 v -2 h 1 v -1 h 1 v -2 h 1 v -1 h 1 v -2 h 1 v -2 h 1 v -1 h 1 v -2 h 1 v -1 h 1 v -2 h 1 v -1 h 1 v -2 h 1 v -2 h 1 v -2 h 1 v -1 h 1 v -2 h 1 v -2 h 1 v -2 h 1 v -1 h 1 v -2 h 1 v -2 h 1 v -2 h 1 v -2 h 1 v -2 h 1 v -2 h 1 v -2 h 1 v -2 h 1 v -2 h 1 v -2 h 1 v -2 h 1 v -2 h 1 v -2 h 1 v -2 h 1 v -2 h 1 v -3 h 1 v -2 h 1 v -2 h 1 v -2 h 1 v -3 h 1 v -2 h 1 v -3 h 1 v -2 h 1 v -3 h 1 v -2 h 1 v -3 h 1 v -3 h 1 v -3 h 1 v -3 h 1 v -3 h 1 v -2 h 1 v -3 h 1 v -3 h 1 v -4 h 1 v -3 h 1 v -4 h 1 v -3 h 1 v -4 h 1 v -3 h 1 v -5 h 1 v -4 h 1 v -4 h 1 v -5 h 1 v -4 h 1 v -6 h 1 v -6 h 1 v -5 h 1 v -7 h 1 v -8 h 1 v -8 h 1 v -13 h 1 v -19 h 1 v -23 h -1 v -19 h -1 v -13 h -1 v -8 h -1 v -8 h -1 v -7 h -1 v -6 h -1 v -5 h -1 v -6 h -1 v -5 h -1 v -4 h -1 v -4 h -1 v -5 h -1 v -4 h -1 v -4 h -1 v -3 h -1 v -4 h -1 v -3 h -1 v -4 h -1 v -3 h -1 v -3 h -1 v -3 h -1 v -3 h -1 v -3 h -1 v -3 h -1 v -3 h -1 v -2 h -1 v -3 h -1 v -2 h -1 v -3 h -1 v -3 h -1 v -2 h -1 v -3 h -1 v -2 h -1 v -2 h -1 v -3 h -1 v -2 h -1 v -2 h -1 v -2 h -1 v -2 h -1 v -3 h -1 v -2 h -1 v -2 h -1 v -2 h -1 v -2 h -1 v -2 h -1 v -2 h -1 v -2 h -1 v -2 h -1 v -1 h -1 v -2 h -1 v -2 h -1 v -2 h -1 v -2 h -1 v -1 h -1 v -2 h -1 v -2 h -1 v -2 h -1 v -1 h -1 v -2 h -1 v -2 h -1 v -2 h -1 v -1 h -1 v -2 h -1 v -1 h -1 v -2 h -1 v -1 h -1 v -2 h -1 v -2 h -1 v -1 h -1 v -2 h -1 v -1 h -1 v -2 h -1 v -1 h -1 v -2 h -1 v -1 h -1 v -1 h -1 v -2 h -1 v -1 h -1 v -2 h -1 v -1 h -1 v -1 h -1 v -2 h -1 v -1 h -1 v -1 h -1 v -2 h -1 v -1 h -1 v -1 h -1 v -2 h -1 v -1 h -1 v -1 h -1 v -1 h -1 v -2 h -1 v -1 h -1 v -1 h -1 v -1 h -1 v -2 h -1 v -1 h -1 v -1 h -1 v -1 h -1 v -1 h -1 v -1 h -1 v -2 h -1 v -1 h -1 v -1 h -1 v -1 h -1 v -1 h -1 v -1 h -1 v -2 h -1 v -1 h -1 v -1 h -1 v -1 h -1 v -1 h -1 v -1 h -1 v -1 h -1 v -1 h -1 v -1 h -1 v -1 h -1 v -1 h -1 v -1 h -1 v -1 h -1 v -1 h -1 v -1 h -1 v -1 h -1 v -1 h -1 v -1 h -1 v -1 h -1 v -1 h -1 v -1 h -1 v -1 h -1 v -1 h -1 v -1 h -1 v -1 h -1 v -1 h -1 v -1 h -1 v -1 h -1 v -1 h -1 v -1 h -1 v -1 h -1 v -1 h -2 v -1 h -1 v -1 h -1 v -1 h -1 v -1 h -1 v -1 h -1 v -1 h -2 v -1 h -1 v -1 h -1 v -1 h -1 v -1 h -1 v -1 h -1 v -1 h -2 v -1 h -1 v -1 h -1 v -1 h -1 v -1 h -2 v -1 h -1 v -1 h -1 v -1 h -2 v -1 h -1 v -1 h -1 v -1 h -1 v -1 h -2 v -1 h -1 v -1 h -1 v -1 h -2 v -1 h -1 v -1 h -2 v -1 h -1 v -1 h -1 v -1 h -2 v -1 h -1 v -1 h -2 v -1 h -1 v -1 h -1 v -1 h -2 v -1 h -2 v -1 h -1 v -1 h -2 v -1 h -1 v -1 h -2 v -1 h -1 v -1 h -2 v -1 h -1 v -1 h -2 v -1 h -2 v -1 h -1 v -1 h -2 v -1 h -2 v -1 h -2 v -1 h -1 v -1 h -2 v -1 h -2 v -1 h -2 v -1 h -1 v -1 h -2 v -1 h -2 v -1 h -2 v -1 h -2 v -1 h -2 v -1 h -2 v -1 h -2 v -1 h -2 v -1 h -2 v -1 h -2 v -1 h -2 v -1 h -2 v -1 h -2 v -1 h -2 v -1 h -3 v -1 h -2 v -1 h -2 v -1 h -2 v -1 h -2 v -1 h -3 v -1 h -3 v -1 h -2 v -1 h -3 v -1 h -2 v -1 h -3 v -1 h -2 v -1 h -3 v -1 h -3 v -1 h -3 v -1 h -3 v -1 h -3 v -1 h -3 v -1 h -3 v -1 h -3 v -1 h -4 v -1 h -3 v -1 h -4 v -1 h -3 v -1 h -4 v -1 h -5 v -1 h -4 v -1 h -4 v -1 h -5 v -1 h -5 v -1 h -6 v -1 h -5 v -1 h -6 v -1 h -8 v -1 h -8 v -1 h -9 v -1 h -14 v -1" /></g></g></g><path
         id="path50"
         style="fill:#5cabda;fill-opacity:1;fill-rule:nonzero;stroke:none"
         d="m 433.523,240.664 c -103.683,-6.98 -193.929,71.445 -200.914,174.594 -6.445,89.176 51.036,168.148 132.692,193.394 l -23.102,75.743 C 225.629,648.941 144.508,536.129 153.641,409.348 163.844,262.16 292.238,150.422 439.43,160.629 c 20.418,1.609 40.832,5.367 59.636,11.277 l -23.101,75.742 c -13.973,-3.222 -27.938,-5.91 -42.442,-6.984" /><g
         id="g52"><g
           clip-path="url(#clipPath58)"
           id="g54"><path
             id="path66"
             style="fill:url(#linearGradient64);fill-opacity:1;fill-rule:nonzero;stroke:none"
             d="m 153.102,409.887 c -6.446,89.176 130.003,174.054 212.199,198.765 l -23.102,75.743 C 225.09,649.48 143.973,536.668 153.102,409.887" /></g></g><g
         id="g68"><g
           clip-path="url(#clipPath74)"
           id="g70"><path
             id="path82"
             style="fill:url(#linearGradient80);fill-opacity:1;fill-rule:nonzero;stroke:none"
             d="m 294.926,304.055 c 68.762,-68.758 180.5,-68.758 249.262,-0.539 l -41.364,41.371 c -46.203,-45.129 -120.336,-45.129 -165.996,0.535 -45.664,45.664 -46.199,120.332 -0.535,165.996 l -41.367,41.367 c -68.762,-68.226 -68.762,-179.961 0,-248.73" /></g></g><g
         id="g84"><g
           clip-path="url(#clipPath90)"
           id="g86"><path
             id="path106"
             style="fill:url(#linearGradient104);fill-opacity:1;fill-rule:nonzero;stroke:none"
             d="m 294.926,304.055 c -45.66,45.664 -4.297,161.699 40.828,207.898 l -41.367,41.367 c -68.223,-68.761 -68.223,-180.496 0.539,-249.265" /></g></g><path
         id="path108"
         style="fill:#f46f16;fill-opacity:1;fill-rule:nonzero;stroke:none"
         d="m 25.2461,428.688 c 0,-100.993 38.6836,-202.524 115.5039,-279.34 154.176,-154.18003 405.047,-154.18003 559.227,0 l -81.657,81.648 v 0 c -109.05,-109.051 -286.328,-109.051 -395.379,0 -54.257,54.262 -81.656,126.242 -81.656,197.692 H 25.2461" /><path
         id="path110"
         style="fill:#f04520;fill-opacity:1;fill-rule:nonzero;stroke:none"
         d="m 222.402,626.379 c 109.055,108.516 286.328,108.516 395.383,0 l 81.656,81.656 c -155.793,155.789 -400.757,157.938 -559.23,0 C 63.3906,630.676 25.2461,529.684 25.2461,428.688 H 140.75 c 0,71.453 27.398,142.898 81.652,197.691" /><g
         id="g112"><g
           clip-path="url(#clipPath118)"
           id="g114"><path
             id="path126"
             style="fill:url(#linearGradient124);fill-opacity:1;fill-rule:nonzero;stroke:none"
             d="m 140.75,708.035 c 109.051,109.051 367.98,26.86 477.035,-81.656 l 81.656,81.656 c -155.793,155.789 -400.757,157.938 -558.691,0" /></g></g><path
         id="path128"
         style="fill:#110f0e;fill-opacity:1;fill-rule:nonzero;stroke:none"
         d="m 1188.29,152.031 h -33.3 v -15.586 h 29.54 v -9.129 h -29.54 v -15.578 h 33.84 v -9.129 h -44.05 v 59.09 h 43.51 v -9.668 0" /><path
         id="path130"
         style="fill:#110f0e;fill-opacity:1;fill-rule:nonzero;stroke:none"
         d="m 1254.91,116.574 v 0 l -18.8,27.395 V 102.07 h -10.21 v 59.094 h 11.28 l 17.73,-27.937 17.72,27.937 h 11.29 V 102.07 h -10.21 v 42.434 l -18.8,-27.93" /><path
         id="path132"
         style="fill:#110f0e;fill-opacity:1;fill-rule:nonzero;stroke:none"
         d="m 1346.77,152.031 h -11.82 v -20.957 h 11.82 c 8.06,0 12.9,4.297 12.9,10.742 0,6.457 -5.38,10.215 -12.9,10.215 z m -0.54,-30.625 h -11.81 v -18.797 h -10.21 v 59.09 h 23.1 c 13.97,0 22.56,-7.515 22.56,-19.883 0,-13.425 -10.74,-20.41 -23.64,-20.41" /><path
         id="path134"
         style="fill:#110f0e;fill-opacity:1;fill-rule:nonzero;stroke:none"
         d="m 1433.8,152.57 c -11.82,0 -19.88,-9.14 -19.88,-20.957 0,-11.277 8.6,-20.949 19.88,-20.949 11.82,0 19.87,9.133 19.87,20.949 0,11.817 -8.05,20.957 -19.87,20.957 z m 0,-51.035 c -18.27,0 -30.62,13.965 -30.62,30.613 0,16.661 12.89,30.625 31.15,30.625 18.27,0 30.62,-13.964 30.62,-30.625 0,-17.183 -12.89,-30.613 -31.15,-30.613" /><path
         id="path136"
         style="fill:#110f0e;fill-opacity:1;fill-rule:nonzero;stroke:none"
         d="m 1534.79,161.164 h 8.6 l 14.5,-44.055 13.97,43.52 h 10.74 l -20.41,-59.633 h -9.13 l -14.5,42.434 -14.52,-42.434 h -9.13 l -20.41,59.633 h 11.28 l 13.97,-43.52 15.04,44.055" /><path
         id="path138"
         style="fill:#110f0e;fill-opacity:1;fill-rule:nonzero;stroke:none"
         d="m 1662.11,152.031 h -33.31 v -15.586 h 29.55 v -9.129 h -29.55 v -15.578 h 33.85 v -9.129 h -44.05 v 59.09 h 43.51 v -9.668 0" /><path
         id="path140"
         style="fill:#110f0e;fill-opacity:1;fill-rule:nonzero;stroke:none"
         d="m 1725.5,152.031 h -15.04 v -19.883 h 15.04 c 7.52,0 12.35,3.762 12.35,9.668 0,6.457 -4.83,10.215 -12.35,10.215 z m 12.35,-49.961 -14.5,20.41 h -12.89 v -20.41 h -10.21 v 59.094 h 26.32 c 13.43,0 22.03,-6.98 22.03,-18.809 0,-9.667 -5.91,-15.578 -13.97,-17.722 l 16.11,-22.563 h -12.89" /><path
         id="path142"
         style="fill:#110f0e;fill-opacity:1;fill-rule:nonzero;stroke:none"
         d="M 1796.95,161.164 V 102.07 h -10.21 v 59.094 h 10.21" /><path
         id="path144"
         style="fill:#110f0e;fill-opacity:1;fill-rule:nonzero;stroke:none"
         d="m 1879.14,161.164 h 10.21 V 102.07 h -8.6 l -32.23,41.899 V 102.07 h -10.21 v 59.094 h 9.67 l 31.7,-40.828 v 40.828 h -0.54" /><path
         id="path146"
         style="fill:#110f0e;fill-opacity:1;fill-rule:nonzero;stroke:none"
         d="m 1957.57,101.535 c -18.26,0 -30.62,12.891 -30.62,30.613 0,16.661 12.9,30.625 30.62,30.625 10.21,0 16.65,-2.683 22.56,-8.054 l -6.45,-8.067 c -4.29,3.77 -9.13,6.453 -16.65,6.453 -10.74,0 -19.33,-9.675 -19.33,-20.957 0,-12.351 8.05,-20.945 19.87,-20.945 5.37,0 10.74,1.61 13.97,4.297 v 11.277 h -15.04 v 9.133 h 25.25 v -24.707 c -5.38,-5.906 -13.44,-9.668 -24.18,-9.668" /><path
         id="path148"
         style="fill:#110f0e;fill-opacity:1;fill-rule:nonzero;stroke:none"
         d="m 2098.86,101.535 c -17.2,0 -30.09,13.43 -30.09,30.613 0,16.661 12.36,30.625 30.63,30.625 10.74,0 17.18,-3.757 23.09,-9.128 l -6.44,-7.532 c -4.84,4.309 -9.67,7.532 -16.65,7.532 -11.29,0 -19.35,-9.141 -19.35,-20.957 0,-11.817 8.06,-20.95 19.35,-20.95 6.98,0 11.81,2.688 17.18,7.524 l 6.45,-6.985 c -6.45,-6.98 -12.89,-10.742 -24.17,-10.742" /><path
         id="path150"
         style="fill:#110f0e;fill-opacity:1;fill-rule:nonzero;stroke:none"
         d="m 2185.34,152.57 c -11.81,0 -19.87,-9.14 -19.87,-20.957 0,-11.277 8.59,-20.949 19.87,-20.949 11.82,0 19.89,9.133 19.89,20.949 -0.01,11.817 -8.07,20.957 -19.89,20.957 z m 0,-51.035 c -18.26,0 -30.61,13.965 -30.61,30.613 0,16.661 12.89,30.625 31.15,30.625 18.26,0 30.63,-13.964 30.63,-30.625 0,-17.183 -12.9,-30.613 -31.17,-30.613" /><path
         id="path152"
         style="fill:#110f0e;fill-opacity:1;fill-rule:nonzero;stroke:none"
         d="m 2254.1,161.164 h 10.22 v -49.426 h 31.15 v -9.668 h -41.37 v 59.094 0" /><path
         id="path154"
         style="fill:#110f0e;fill-opacity:1;fill-rule:nonzero;stroke:none"
         d="m 2331.47,161.164 h 10.2 v -49.426 h 31.16 v -9.668 h -41.36 v 59.094 0" /><path
         id="path156"
         style="fill:#110f0e;fill-opacity:1;fill-rule:nonzero;stroke:none"
         d="m 2434.07,149.348 -10.21,-23.645 h 20.42 z m 31.16,-47.278 h -10.75 l -5.9,13.965 h -27.94 l -5.91,-13.965 h -10.74 l 25.79,59.629 h 9.67 l 25.78,-59.629" /><path
         id="path158"
         style="fill:#110f0e;fill-opacity:1;fill-rule:nonzero;stroke:none"
         d="m 2539.37,119.797 c 0,4.836 -3.77,8.055 -12.37,8.055 h -16.65 v -16.114 h 17.19 c 7.52,-0.535 11.83,2.688 11.83,8.059 z m -3.77,24.707 c 0,4.844 -3.76,7.527 -10.21,7.527 h -15.04 v -15.586 h 13.97 c 6.98,0 11.28,2.688 11.28,8.059 z m 10.75,1.609 c 0,-6.98 -4.3,-10.742 -8.6,-13.425 6.99,-2.149 11.82,-6.446 11.82,-14.504 0,-10.743 -8.59,-16.114 -22.03,-16.114 h -27.39 v 59.094 h 26.32 c 12.36,0 19.88,-5.906 19.88,-15.051" /><path
         id="path160"
         style="fill:#110f0e;fill-opacity:1;fill-rule:nonzero;stroke:none"
         d="m 2614.57,152.57 c -11.81,0 -19.87,-9.14 -19.87,-20.957 0,-11.277 8.59,-20.949 19.87,-20.949 11.82,0 19.88,9.133 19.88,20.949 0,11.817 -8.06,20.957 -19.88,20.957 z m 0,-51.035 c -18.26,0 -30.62,13.965 -30.62,30.613 0,16.661 12.9,30.625 31.16,30.625 18.26,0 30.61,-13.964 30.61,-30.625 -0.53,-17.183 -12.89,-30.613 -31.15,-30.613" /><path
         id="path162"
         style="fill:#110f0e;fill-opacity:1;fill-rule:nonzero;stroke:none"
         d="m 2708.59,152.031 h -15.05 v -19.883 h 15.05 c 7.52,0 12.35,3.762 12.35,9.668 0,6.457 -4.83,10.215 -12.35,10.215 z m 12.35,-49.961 -14.5,20.41 h -12.9 v -20.41 h -10.21 v 59.094 h 26.33 c 13.43,0 22.02,-6.98 22.02,-18.809 0,-9.667 -5.91,-15.578 -13.96,-17.722 l 16.11,-22.563 h -12.89" /><path
         id="path164"
         style="fill:#110f0e;fill-opacity:1;fill-rule:nonzero;stroke:none"
         d="m 2794.53,149.348 -10.2,-23.645 h 20.41 z m 31.17,-47.278 h -10.76 l -5.9,13.965 h -27.93 l -5.91,-13.965 h -10.74 l 25.78,59.629 h 9.66 l 25.8,-59.629" /><path
         id="path166"
         style="fill:#110f0e;fill-opacity:1;fill-rule:nonzero;stroke:none"
         d="m 2878.34,102.07 h -10.21 v 49.426 h -18.8 v 9.668 h 47.81 v -9.668 h -18.8 V 102.07" /><path
         id="path168"
         style="fill:#110f0e;fill-opacity:1;fill-rule:nonzero;stroke:none"
         d="M 2943.88,161.164 V 102.07 h -10.21 v 59.094 h 10.21" /><path
         id="path170"
         style="fill:#110f0e;fill-opacity:1;fill-rule:nonzero;stroke:none"
         d="m 3013.18,152.57 c -11.82,0 -19.88,-9.14 -19.88,-20.957 0,-11.277 8.6,-20.949 19.88,-20.949 11.81,0 19.87,9.133 19.87,20.949 0,11.817 -8.06,20.957 -19.87,20.957 z m 0,-51.035 c -18.27,0 -30.63,13.965 -30.63,30.613 0,16.661 12.9,30.625 31.16,30.625 18.26,0 30.63,-13.964 30.63,-30.625 0,-17.183 -12.9,-30.613 -31.16,-30.613" /><path
         id="path172"
         style="fill:#110f0e;fill-opacity:1;fill-rule:nonzero;stroke:none"
         d="m 3122.77,161.164 h 10.2 V 102.07 h -8.59 l -32.24,41.899 V 102.07 h -10.2 v 59.094 h 9.66 l 31.7,-40.828 v 40.828 h -0.53" /></g></g></svg>