<?xml version="1.0" encoding="UTF-8" standalone="no"?>
<svg
   xmlns:dc="http://purl.org/dc/elements/1.1/"
   xmlns:cc="http://creativecommons.org/ns#"
   xmlns:rdf="http://www.w3.org/1999/02/22-rdf-syntax-ns#"
   xmlns:svg="http://www.w3.org/2000/svg"
   xmlns="http://www.w3.org/2000/svg"
   viewBox="0 0 414.35999 105.6"
   height="105.6"
   width="414.35999"
   xml:space="preserve"
   id="svg2"
   version="1.1"><metadata
     id="metadata8"><rdf:RDF><cc:Work
         rdf:about=""><dc:format>image/svg+xml</dc:format><dc:type
           rdf:resource="http://purl.org/dc/dcmitype/StillImage" /></cc:Work></rdf:RDF></metadata><defs
     id="defs6" /><g
     transform="matrix(1.3333333,0,0,-1.3333333,0,105.6)"
     id="g10"><g
       transform="scale(0.1)"
       id="g12"><path
         id="path14"
         style="fill:#ffffff;fill-opacity:1;fill-rule:nonzero;stroke:none"
         d="m 1109.86,400.348 v 1.078 c 0,85.949 63.93,156.863 151.5,156.863 50.49,0 81.65,-17.191 111.2,-42.441 2.14,-2.149 4.29,-5.371 4.29,-9.129 0,-5.91 -5.37,-11.281 -11.81,-11.281 -3.23,0 -5.92,1.074 -8.06,3.222 -25.25,23.102 -54.26,39.215 -96.7,39.215 -73.06,0 -127.86,-59.629 -127.86,-135.914 v -1.074 c 0,-76.821 55.87,-136.449 128.4,-136.449 41.36,0 70.37,14.5 98.84,41.902 1.61,1.613 4.3,3.223 8.06,3.223 5.37,0 10.74,-5.372 10.74,-10.743 0,-3.222 -1.61,-5.906 -3.22,-8.054 -30.62,-28.477 -63.92,-47.278 -114.96,-47.278 -86.49,1.075 -150.42,69.836 -150.42,156.86" /><path
         id="path16"
         style="fill:#ffffff;fill-opacity:1;fill-rule:nonzero;stroke:none"
         d="m 1524.05,543.246 c 0,5.91 5.37,11.281 11.28,11.281 5.91,0 11.28,-5.371 11.28,-11.281 v -284.18 c 0,-5.91 -5.37,-11.281 -11.28,-11.281 -5.91,0 -11.28,5.371 -11.28,11.281 v 284.18" /><path
         id="path18"
         style="fill:#ffffff;fill-opacity:1;fill-rule:nonzero;stroke:none"
         d="m 1717.98,543.246 c 0,5.91 5.37,11.281 11.28,11.281 5.9,0 11.28,-5.371 11.28,-11.281 V 353.617 l 191.78,197.688 c 1.61,1.613 4.3,3.222 8.06,3.222 5.37,0 11.28,-5.371 11.28,-11.281 0,-3.223 -1.08,-5.371 -3.22,-8.058 L 1831.86,419.152 1955.42,267.66 c 2.15,-2.687 3.23,-4.836 3.23,-8.058 0,-5.907 -5.38,-11.817 -11.83,-11.817 -3.76,0 -6.98,2.149 -8.59,4.297 l -122.48,150.953 -75.21,-76.285 v -67.684 c 0,-5.91 -5.38,-11.281 -11.28,-11.281 -5.91,0 -11.28,5.371 -11.28,11.281 v 284.18" /><path
         id="path20"
         style="fill:#ffffff;fill-opacity:1;fill-rule:nonzero;stroke:none"
         d="m 2105.84,543.246 c 0,5.91 5.37,11.281 11.28,11.281 5.9,0 11.29,-5.371 11.29,-11.281 V 270.344 h 169.21 c 5.38,0 10.21,-4.832 10.21,-10.203 0,-5.371 -4.83,-10.207 -10.21,-10.207 h -180.5 c -5.91,0 -11.28,5.371 -11.28,11.281 v 282.031" /><path
         id="path22"
         style="fill:#ffffff;fill-opacity:1;fill-rule:nonzero;stroke:none"
         d="m 2412.59,375.637 v 167.609 c 0,5.91 5.37,11.281 11.27,11.281 5.91,0 11.28,-5.371 11.28,-11.281 V 377.785 c 0,-71.445 38.69,-112.812 102.61,-112.812 61.78,0 101,37.07 101,110.664 v 167.609 c 0,5.91 5.37,11.281 11.28,11.281 5.91,0 11.28,-5.371 11.28,-11.281 V 378.324 c 0,-87.023 -50.5,-133.222 -124.63,-133.222 -72.52,-0.539 -124.09,45.664 -124.09,130.535" /><path
         id="path24"
         style="fill:#ffffff;fill-opacity:1;fill-rule:nonzero;stroke:none"
         d="m 2816.02,542.707 c 0,5.914 5.37,11.285 11.28,11.285 h 2.15 c 4.83,0 8.06,-2.687 11.28,-6.445 l 118.19,-174.059 118.19,174.059 c 2.68,3.758 6.44,6.445 11.28,6.445 h 2.14 c 5.91,0 11.28,-5.371 11.28,-11.285 V 259.066 c 0,-5.91 -5.37,-11.281 -11.28,-11.281 -5.9,0 -11.27,5.371 -11.27,11.281 V 513.16 L 2968.05,350.93 c -2.68,-3.758 -5.37,-5.371 -9.66,-5.371 -3.77,0 -7,1.613 -9.68,5.371 l -111.2,162.23 V 258.527 c 0,-5.906 -4.84,-10.742 -10.74,-10.742 -5.91,0 -10.75,4.836 -10.75,10.742 v 284.18" /><path
         id="path26"
         style="fill:#ffffff;fill-opacity:1;fill-rule:nonzero;stroke:none"
         d="m 408.273,206.957 c -103.679,-6.984 -193.929,71.445 -200.914,174.59 -6.445,89.18 51.036,168.148 132.692,193.398 l -23.102,75.743 C 200.379,615.23 119.262,502.422 128.391,375.637 138.598,228.449 266.988,116.711 414.184,126.918 c 20.414,1.609 40.828,5.371 59.632,11.277 l -23.101,75.743 c -13.969,-3.223 -27.934,-5.907 -42.442,-6.981" /><path
         id="path28"
         style="fill:#ffffff;fill-opacity:1;fill-rule:nonzero;stroke:none"
         d="m 127.855,376.176 c -6.445,89.179 130.004,174.054 212.196,198.769 l -23.102,75.743 C 199.84,615.77 118.723,502.957 127.855,376.176" /><path
         id="path30"
         style="fill:#ffffff;fill-opacity:1;fill-rule:nonzero;stroke:none"
         d="m 269.676,270.344 c 68.765,-68.758 180.504,-68.758 249.262,-0.535 l -41.364,41.367 c -46.199,-45.129 -120.336,-45.129 -165.996,0.535 -45.66,45.664 -46.199,120.332 -0.535,165.996 l -41.367,41.367 c -68.762,-68.226 -68.762,-179.961 0,-248.73" /><path
         id="path32"
         style="fill:#ffffff;fill-opacity:1;fill-rule:nonzero;stroke:none"
         d="m 269.676,270.344 c -45.66,45.664 -4.297,161.699 40.828,207.902 l -41.367,41.367 c -68.223,-68.765 -68.223,-180.5 0.539,-249.269" /><path
         id="path34"
         style="fill:#ffffff;fill-opacity:1;fill-rule:nonzero;stroke:none"
         d="M -0.00390625,394.977 C -0.00390625,293.988 38.6797,192.453 115.5,115.637 c 154.176,-154.18 405.051,-154.18 559.23,0 l -81.656,81.652 v 0 C 484.02,88.2344 306.746,88.2344 197.691,197.289 143.434,251.547 116.039,323.527 116.039,394.977 H -0.00390625" /><path
         id="path36"
         style="fill:#ffffff;fill-opacity:1;fill-rule:nonzero;stroke:none"
         d="m 197.156,592.668 c 109.055,108.516 286.328,108.516 395.379,0 l 81.656,81.656 c -155.789,155.789 -400.757,157.938 -559.226,0 C 38.1406,596.965 -0.00390625,495.973 -0.00390625,394.977 H 115.5 c 0,71.453 27.398,142.898 81.656,197.691" /><path
         id="path38"
         style="fill:#ffffff;fill-opacity:1;fill-rule:nonzero;stroke:none"
         d="m 115.5,674.324 c 109.055,109.051 367.984,26.86 477.035,-81.656 l 81.656,81.656 c -155.789,155.789 -400.757,157.938 -558.691,0" /><path
         id="path40"
         style="fill:#ffffff;fill-opacity:1;fill-rule:nonzero;stroke:none"
         d="m 1163.04,118.324 h -33.3 v -15.586 h 29.54 v -9.1325 h -29.54 V 78.0313 h 33.84 v -9.1329 h -44.05 v 59.0936 h 43.51 v -9.668 0" /><path
         id="path42"
         style="fill:#ffffff;fill-opacity:1;fill-rule:nonzero;stroke:none"
         d="m 1229.66,82.8633 v 0 l -18.8,27.3947 V 68.3633 h -10.21 v 59.0897 h 11.28 l 17.73,-27.9374 17.73,27.9374 h 11.28 V 68.3633 h -10.21 v 42.4297 l -18.8,-27.9297" /><path
         id="path44"
         style="fill:#ffffff;fill-opacity:1;fill-rule:nonzero;stroke:none"
         d="M 1321.52,118.324 H 1309.7 V 97.3672 h 11.82 c 8.06,0 12.9,4.2968 12.9,10.7418 0,6.454 -5.38,10.215 -12.9,10.215 z m -0.54,-30.6248 h -11.81 V 68.8984 h -10.21 v 59.0936 h 23.1 c 13.97,0 22.56,-7.519 22.56,-19.883 0,-13.4293 -10.74,-20.4098 -23.64,-20.4098" /><path
         id="path46"
         style="fill:#ffffff;fill-opacity:1;fill-rule:nonzero;stroke:none"
         d="m 1408.55,118.859 c -11.82,0 -19.88,-9.14 -19.88,-20.9567 0,-11.2773 8.6,-20.9453 19.88,-20.9453 11.82,0 19.88,9.1289 19.88,20.9453 0,11.8167 -8.06,20.9567 -19.88,20.9567 z m 0,-51.0348 c -18.26,0 -30.62,13.9649 -30.62,30.6172 0,16.6606 12.89,30.6246 31.15,30.6246 18.27,0 30.62,-13.964 30.62,-30.6246 0,-17.1875 -12.89,-30.6172 -31.15,-30.6172" /><path
         id="path48"
         style="fill:#ffffff;fill-opacity:1;fill-rule:nonzero;stroke:none"
         d="m 1509.54,127.453 h 8.6 l 14.5,-44.0507 13.97,43.5157 h 10.74 l -20.41,-59.6289 h -9.13 l -14.5,42.4299 -14.51,-42.4299 h -9.13 l -20.41,59.6289 h 11.27 l 13.97,-43.5157 15.04,44.0507" /><path
         id="path50"
         style="fill:#ffffff;fill-opacity:1;fill-rule:nonzero;stroke:none"
         d="m 1636.86,118.324 h -33.31 v -15.586 h 29.55 v -9.1325 h -29.55 V 78.0313 h 33.85 v -9.1329 h -44.05 v 59.0936 h 43.51 v -9.668 0" /><path
         id="path52"
         style="fill:#ffffff;fill-opacity:1;fill-rule:nonzero;stroke:none"
         d="m 1700.25,118.324 h -15.04 V 98.4414 h 15.04 c 7.52,0 12.35,3.7576 12.35,9.6676 0,6.454 -4.83,10.215 -12.35,10.215 z m 12.35,-49.9607 -14.5,20.4101 h -12.89 V 68.3633 H 1675 v 59.0897 h 26.33 c 13.42,0 22.02,-6.98 22.02,-18.808 0,-9.6684 -5.91,-15.5747 -13.97,-17.7231 l 16.12,-22.5586 h -12.9" /><path
         id="path54"
         style="fill:#ffffff;fill-opacity:1;fill-rule:nonzero;stroke:none"
         d="M 1771.7,127.453 V 68.3633 h -10.21 v 59.0897 h 10.21" /><path
         id="path56"
         style="fill:#ffffff;fill-opacity:1;fill-rule:nonzero;stroke:none"
         d="m 1853.89,127.453 h 10.21 V 68.3633 h -8.59 l -32.24,41.8947 V 68.3633 h -10.21 v 59.0897 h 9.67 l 31.7,-40.828 v 40.828 h -0.54" /><path
         id="path58"
         style="fill:#ffffff;fill-opacity:1;fill-rule:nonzero;stroke:none"
         d="m 1932.32,67.8242 c -18.26,0 -30.62,12.8906 -30.62,30.6172 0,16.6606 12.9,30.6246 30.62,30.6246 10.21,0 16.65,-2.687 22.56,-8.058 l -6.44,-8.067 c -4.3,3.77 -9.14,6.457 -16.66,6.457 -10.74,0 -19.33,-9.679 -19.33,-20.9566 0,-12.3555 8.06,-20.9492 19.87,-20.9492 5.37,0 10.74,1.6133 13.97,4.2969 v 11.2812 h -15.04 v 9.1287 h 25.25 V 77.4922 c -5.38,-5.9063 -13.44,-9.668 -24.18,-9.668" /><path
         id="path60"
         style="fill:#ffffff;fill-opacity:1;fill-rule:nonzero;stroke:none"
         d="m 2073.61,67.8242 c -17.2,0 -30.09,13.4297 -30.09,30.6172 0,16.6606 12.36,30.6246 30.63,30.6246 10.74,0 17.19,-3.761 23.09,-9.132 l -6.44,-7.528 c -4.84,4.305 -9.67,7.528 -16.65,7.528 -11.29,0 -19.35,-9.141 -19.35,-20.9574 0,-11.8164 8.06,-20.9453 19.35,-20.9453 6.98,0 11.81,2.6835 17.19,7.5195 l 6.44,-6.9844 c -6.44,-6.9805 -12.89,-10.7422 -24.17,-10.7422" /><path
         id="path62"
         style="fill:#ffffff;fill-opacity:1;fill-rule:nonzero;stroke:none"
         d="m 2160.1,118.859 c -11.82,0 -19.88,-9.14 -19.88,-20.9567 0,-11.2773 8.6,-20.9453 19.88,-20.9453 11.81,0 19.88,9.1289 19.88,20.9453 -0.01,11.8167 -8.07,20.9567 -19.88,20.9567 z m 0,-51.0348 c -18.27,0 -30.62,13.9649 -30.62,30.6172 0,16.6606 12.89,30.6246 31.15,30.6246 18.26,0 30.63,-13.964 30.63,-30.6246 0,-17.1875 -12.9,-30.6172 -31.16,-30.6172" /><path
         id="path64"
         style="fill:#ffffff;fill-opacity:1;fill-rule:nonzero;stroke:none"
         d="m 2228.85,127.453 h 10.22 V 78.0313 h 31.15 v -9.668 h -41.37 v 59.0897 0" /><path
         id="path66"
         style="fill:#ffffff;fill-opacity:1;fill-rule:nonzero;stroke:none"
         d="m 2306.22,127.453 h 10.2 V 78.0313 h 31.17 v -9.668 h -41.37 v 59.0897 0" /><path
         id="path68"
         style="fill:#ffffff;fill-opacity:1;fill-rule:nonzero;stroke:none"
         d="m 2408.83,115.637 -10.22,-23.6409 h 20.42 z m 31.15,-47.2737 h -10.74 l -5.91,13.9648 h -27.94 l -5.91,-13.9648 h -10.74 l 25.79,59.6287 h 9.67 l 25.78,-59.6287" /><path
         id="path70"
         style="fill:#ffffff;fill-opacity:1;fill-rule:nonzero;stroke:none"
         d="m 2514.12,86.0859 c 0,4.836 -3.77,8.0586 -12.36,8.0586 H 2485.1 V 78.0313 h 17.19 c 7.52,-0.5391 11.83,2.6835 11.83,8.0546 z m -3.77,24.7071 c 0,4.844 -3.76,7.531 -10.21,7.531 h -15.04 v -15.586 h 13.97 c 6.98,0 11.28,2.684 11.28,8.055 z m 10.75,1.613 c 0,-6.984 -4.3,-10.742 -8.6,-13.4294 6.99,-2.1485 11.82,-6.4453 11.82,-14.5 0,-10.7422 -8.59,-16.1133 -22.03,-16.1133 h -27.39 v 59.0897 h 26.32 c 12.36,0 19.88,-5.906 19.88,-15.047" /><path
         id="path72"
         style="fill:#ffffff;fill-opacity:1;fill-rule:nonzero;stroke:none"
         d="m 2589.32,118.859 c -11.81,0 -19.87,-9.14 -19.87,-20.9567 0,-11.2773 8.59,-20.9453 19.87,-20.9453 11.82,0 19.88,9.1289 19.88,20.9453 0,11.8167 -8.06,20.9567 -19.88,20.9567 z m 0,-51.0348 c -18.26,0 -30.62,13.9649 -30.62,30.6172 0,16.6606 12.9,30.6246 31.16,30.6246 18.26,0 30.62,-13.964 30.62,-30.6246 -0.54,-17.1875 -12.89,-30.6172 -31.16,-30.6172" /><path
         id="path74"
         style="fill:#ffffff;fill-opacity:1;fill-rule:nonzero;stroke:none"
         d="m 2683.34,118.324 h -15.05 V 98.4414 h 15.05 c 7.52,0 12.35,3.7576 12.35,9.6676 0,6.454 -4.83,10.215 -12.35,10.215 z m 12.35,-49.9607 -14.5,20.4101 h -12.9 V 68.3633 h -10.21 v 59.0897 h 26.33 c 13.43,0 22.02,-6.98 22.02,-18.808 0,-9.6684 -5.91,-15.5747 -13.96,-17.7231 l 16.11,-22.5586 h -12.89" /><path
         id="path76"
         style="fill:#ffffff;fill-opacity:1;fill-rule:nonzero;stroke:none"
         d="m 2769.28,115.637 -10.2,-23.6409 h 20.41 z m 31.17,-47.2737 h -10.76 l -5.9,13.9648 h -27.93 l -5.91,-13.9648 h -10.74 l 25.78,59.6287 h 9.67 l 25.79,-59.6287" /><path
         id="path78"
         style="fill:#ffffff;fill-opacity:1;fill-rule:nonzero;stroke:none"
         d="m 2853.09,68.3633 h -10.21 v 49.4217 h -18.8 v 9.668 h 47.81 v -9.668 h -18.8 V 68.3633" /><path
         id="path80"
         style="fill:#ffffff;fill-opacity:1;fill-rule:nonzero;stroke:none"
         d="M 2918.63,127.453 V 68.3633 h -10.2 v 59.0897 h 10.2" /><path
         id="path82"
         style="fill:#ffffff;fill-opacity:1;fill-rule:nonzero;stroke:none"
         d="m 2987.93,118.859 c -11.82,0 -19.88,-9.14 -19.88,-20.9567 0,-11.2773 8.6,-20.9453 19.88,-20.9453 11.81,0 19.87,9.1289 19.87,20.9453 0,11.8167 -8.06,20.9567 -19.87,20.9567 z m 0,-51.0348 c -18.26,0 -30.63,13.9649 -30.63,30.6172 0,16.6606 12.9,30.6246 31.16,30.6246 18.27,0 30.63,-13.964 30.63,-30.6246 0,-17.1875 -12.9,-30.6172 -31.16,-30.6172" /><path
         id="path84"
         style="fill:#ffffff;fill-opacity:1;fill-rule:nonzero;stroke:none"
         d="m 3097.52,127.453 h 10.2 V 68.3633 h -8.59 l -32.24,41.8947 V 68.3633 h -10.2 v 59.0897 h 9.66 l 31.7,-40.828 v 40.828 h -0.53" /></g></g></svg>