<?xml version="1.0" encoding="UTF-8" standalone="no"?>
<svg
   xmlns:dc="http://purl.org/dc/elements/1.1/"
   xmlns:cc="http://creativecommons.org/ns#"
   xmlns:rdf="http://www.w3.org/1999/02/22-rdf-syntax-ns#"
   xmlns:svg="http://www.w3.org/2000/svg"
   xmlns="http://www.w3.org/2000/svg"
   viewBox="0 0 215.05333 113.38667"
   height="113.38667"
   width="215.05333"
   xml:space="preserve"
   id="svg2"
   version="1.1"><metadata
     id="metadata8"><rdf:RDF><cc:Work
         rdf:about=""><dc:format>image/svg+xml</dc:format><dc:type
           rdf:resource="http://purl.org/dc/dcmitype/StillImage" /></cc:Work></rdf:RDF></metadata><defs
     id="defs6" /><g
     transform="matrix(1.3333333,0,0,-1.3333333,0,113.38667)"
     id="g10"><g
       transform="scale(0.1)"
       id="g12"><path
         id="path14"
         style="fill:#46a0dd;fill-opacity:1;fill-rule:nonzero;stroke:none"
         d="m 1392.74,145.523 c -0.07,41.383 -32.07,73.61 -73.07,73.59 -41.19,-0.023 -73.19,-32.402 -73.13,-73.988 0.06,-41.336 32.13,-73.6016 73.12,-73.5859 41.21,0.0117 73.15,32.3439 73.08,73.9839 z m -73,145.004 c 42.85,-0.773 80.11,-14.711 109.71,-46.293 21.38,-22.8 33.68,-50.039 37.15,-81.097 4.48,-40.239 -4.95,-76.8284 -30.24,-108.7112 -22.63,-28.5508 -52.53,-45.41408 -88.21,-51.68361 -34.39,-6.04297 -67.75,-2.214846 -98.91,14.06641 -43.09,22.5156 -68.5,58.3203 -75.76,106.2694 -6.34,41.836 3.25,80.133 29.8,113.438 22.99,28.832 53.37,45.414 89.54,51.695 8.95,1.555 17.99,2.039 26.92,2.316" /><path
         id="path16"
         style="fill:#46a0dd;fill-opacity:1;fill-rule:nonzero;stroke:none"
         d="m 795.094,221.793 c -13.41,3.492 -26.508,6.137 -39.817,7.586 -13.25,1.437 -26.464,1.566 -39.449,-2.082 -4.711,-1.328 -9.164,-3.285 -12.961,-6.469 -8.039,-6.73 -9.133,-17.051 -2.605,-25.262 5.109,-6.418 12.351,-9.535 19.801,-12.082 11.496,-3.929 23.203,-7.257 34.605,-11.445 20.984,-7.711 38.516,-19.941 50.215,-39.625 C 822.945,102.023 819.125,44.1211 772.305,17.8359 754.148,7.63672 734.586,2.42578 714.02,0.886719 684.141,-1.33984 654.629,2.23828 625.238,7.27344 c -2.172,0.37109 -2.929,1.1914 -2.918,3.39846 0.067,19.6172 0.082,39.2422 -0.011,58.8594 -0.012,2.8398 1.078,2.5937 3.14,2.039 14.887,-4.0351 29.961,-7.164 45.328,-8.6523 16.504,-1.5977 32.953,-1.8321 49.102,2.8164 4.445,1.2773 8.617,3.1875 12.316,6 10.211,7.7695 11.325,21.2812 2.461,30.5506 -5.863,6.137 -13.41,9.453 -21.234,12.219 -12.977,4.586 -26.356,8.035 -38.918,13.793 -17.672,8.09 -33.125,18.84 -43.149,36.082 -17.757,30.551 -14.05,87.644 33.7,112.535 21.64,11.281 44.867,14.352 68.812,13.484 19.36,-0.699 38.469,-3.527 57.371,-7.793 3.125,-0.703 3.965,-1.929 3.938,-5.074 -0.172,-18.39 -0.082,-36.781 -0.082,-55.738" /><path
         id="path18"
         style="fill:#46a0dd;fill-opacity:1;fill-rule:nonzero;stroke:none"
         d="m 358.988,205.156 c -11.922,6.344 -23.832,10.582 -36.406,12.805 -19.082,3.367 -37.926,3.359 -56.203,-4.231 -31.223,-12.968 -46.715,-42.832 -44.109,-74.152 2.617,-31.519 18.761,-53.5741 48.828,-64.4257 18.242,-6.582 36.957,-5.5429 55.621,-1.621 10.359,2.1796 20.258,5.707 29.691,10.5312 0.688,0.3516 1.41,0.6367 2.578,1.1563 0,-2.8438 0,-5.2305 0,-7.6211 0,-21.2383 -0.004,-42.4805 0.016,-63.7227 0,-2.0664 0.137,-3.6836 -2.672,-4.48437 C 321.805,-0.441406 286.938,-3.97266 251.918,5.78906 200.086,20.2344 164.281,52.332 150.547,105.137 c -12.406,47.726 -5.082,92.769 26.199,132.121 22.988,28.91 53.856,44.926 90.008,50.898 29.891,4.938 59.258,1.676 88.242,-6.508 3.168,-0.898 4.106,-2.277 4.086,-5.578 -0.172,-23.398 -0.094,-46.797 -0.094,-70.914" /><path
         id="path20"
         style="fill:#46a0dd;fill-opacity:1;fill-rule:nonzero;stroke:none"
         d="m 1097.14,205.195 c -15.79,8.391 -31.91,13.067 -48.93,14.446 -27.26,2.207 -52.003,-3.664 -70.378,-25.297 -18.828,-22.168 -22.262,-48.004 -13.109,-75.043 8.953,-26.4768 28.468,-41.883 55.677,-47.0158 25.16,-4.7461 49.17,0.1171 72.18,10.7421 1.33,0.6172 2.63,1.3008 3.95,1.961 0.96,-0.8711 0.59,-1.8594 0.6,-2.7227 0.02,-22.8593 0.01,-45.7265 0.01,-68.5898 0,-1.8438 0.35,-3.4414 -2.38,-4.22267 C 1060.38,-0.328125 1025.65,-4.01563 990.746,5.67578 935.063,21.1367 898.555,56.2578 886.711,113.547 c -9.352,45.23 -1.012,87.523 28.539,124.148 22.039,27.332 51.195,43.153 85.44,49.692 31.75,6.062 62.97,2.879 93.75,-6.227 1.5,-0.441 2.74,-0.672 2.74,-2.754 -0.06,-24.195 -0.04,-48.39 -0.04,-73.211" /><path
         id="path22"
         style="fill:#46a0dd;fill-opacity:1;fill-rule:nonzero;stroke:none"
         d="m 1227.48,628.82 c 0,-60.757 -0.03,-121.515 0.03,-182.265 0.02,-10.098 -2.21,-19.297 -9.17,-26.938 -9.56,-10.488 -24.31,-14.234 -37.47,-9.551 -13.7,4.875 -22.74,17.196 -23.48,32.012 -0.05,0.945 -0.05,1.895 -0.05,2.84 0,122.867 -0.01,245.727 0.01,368.594 0,16.617 8.77,29.527 23.52,34.843 21.32,7.688 44.61,-7.378 46.3,-29.976 0.2,-2.695 0.3,-5.402 0.3,-8.106 0.02,-60.488 0.01,-120.968 0.01,-181.453" /><path
         id="path24"
         style="fill:#469fdd;fill-opacity:1;fill-rule:nonzero;stroke:none"
         d="m 455.855,629.016 c 0,-61.422 0.024,-122.848 -0.015,-184.27 -0.012,-18.344 -10.75,-32.078 -27.871,-35.902 -20.668,-4.61 -41.399,11.351 -42.133,32.457 -0.039,1.215 -0.059,2.437 -0.059,3.652 -0.007,122.848 0.024,245.688 -0.047,368.535 -0.007,13.887 5.387,24.653 17.239,31.899 22.371,13.676 52.289,-2.266 52.715,-28.457 0.484,-29.754 0.16,-59.528 0.171,-89.285 0.008,-32.879 0.004,-65.754 0,-98.629" /><path
         id="path26"
         style="fill:#47a0dd;fill-opacity:1;fill-rule:nonzero;stroke:none"
         d="m 456.094,145.313 c 0,45.191 0.039,90.378 -0.078,135.57 -0.012,3.617 0.797,4.801 4.644,4.762 20.695,-0.2 41.399,-0.168 62.098,-0.016 3.398,0.023 4.273,-0.953 4.273,-4.309 -0.093,-90.648 -0.09,-181.3 -0.004,-271.94891 0.004,-3.30468 -0.789,-4.36718 -4.234,-4.33984 -20.836,0.15625 -41.676,0.15625 -62.512,0 -3.41,-0.02734 -4.269,0.96484 -4.261,4.30859 0.109,45.32426 0.074,90.64846 0.074,135.97316" /><path
         id="path28"
         style="fill:#46a0dd;fill-opacity:1;fill-rule:nonzero;stroke:none"
         d="m 1420.31,597.98 c 0,-28.546 0.17,-57.089 -0.08,-85.628 -0.11,-13.575 -6.66,-23.868 -18.62,-30.153 -11.92,-6.261 -24.08,-5.851 -35.49,1.414 -11.46,7.293 -16.29,18.274 -16.28,31.668 0.03,55.196 0.01,110.387 0.03,165.578 0,2.161 0.16,4.329 0.41,6.473 2.11,18.012 18.09,31.84 35.71,30.926 19.38,-1 34.13,-15.485 34.26,-34.242 0.21,-28.676 0.06,-57.36 0.06,-86.036" /><path
         id="path30"
         style="fill:#46a0dd;fill-opacity:1;fill-rule:nonzero;stroke:none"
         d="m 648.867,597.891 c 0,-28 0.059,-56 -0.023,-84.004 -0.055,-17.016 -10.946,-31.059 -26.746,-34.84 -22.59,-5.41 -43.43,11.156 -43.567,34.906 -0.164,28.406 -0.039,56.817 -0.039,85.219 0,27.598 -0.051,55.191 0.02,82.789 0.043,16.867 10.312,30.758 25.609,34.934 22.789,6.234 44.559,-10.286 44.703,-34.188 0.168,-28.273 0.043,-56.543 0.043,-84.816" /><path
         id="path32"
         style="fill:#46a0dd;fill-opacity:1;fill-rule:nonzero;stroke:none"
         d="m 192.758,598.082 c 0,28.137 -0.067,56.27 0.023,84.406 0.059,16.492 10.52,30.325 25.711,34.43 22.793,6.148 44.383,-10.348 44.598,-34.34 0.195,-21.773 0.043,-43.555 0.043,-65.332 0,-34.223 0.039,-68.445 -0.012,-102.668 -0.031,-17.453 -10.641,-31.555 -26.496,-35.488 -22.508,-5.582 -43.691,11.004 -43.828,34.586 -0.16,28.133 -0.039,56.273 -0.039,84.406" /><path
         id="path34"
         style="fill:#46a0dd;fill-opacity:1;fill-rule:nonzero;stroke:none"
         d="m 964.48,598.496 c 0,27.867 -0.066,55.738 0.028,83.606 0.058,16.953 9.969,30.468 25.18,34.753 22.672,6.399 44.522,-10.109 44.752,-34.07 0.21,-21.371 0.05,-42.75 0.05,-64.125 0,-34.765 0.04,-69.531 -0.02,-104.297 -0.03,-18.097 -11.15,-32.008 -28.25,-35.656 -20.263,-4.324 -40.9,10.996 -41.458,31.731 -0.653,23.929 -0.235,47.882 -0.282,71.824 -0.007,5.418 -0.003,10.828 0,16.234" /><path
         id="path36"
         style="fill:#46a0dd;fill-opacity:1;fill-rule:nonzero;stroke:none"
         d="m 70.1172,549.695 c 0,-12.175 0.0976,-24.347 -0.0195,-36.515 C 69.918,495.012 56.4531,479.879 39.1836,478.25 20.5234,476.48 4.53125,488.059 0.691406,506.223 0.195313,508.582 0.0742188,511.051 0.0664063,513.473 0.0234375,537.68 -0.0625,561.887 0.0742188,586.09 0.183594,605.109 12.8906,619.109 31.7813,621.441 c 19.1406,2.368 37.746,-13.418 38.2226,-32.8 0.3164,-12.973 0.0586,-25.961 0.0586,-38.946 0.0195,0 0.0391,0 0.0547,0" /><path
         id="path38"
         style="fill:#46a0dd;fill-opacity:1;fill-rule:nonzero;stroke:none"
         d="m 1612.81,549.887 c 0,-12.715 0.22,-25.442 -0.06,-38.153 -0.35,-15.804 -11.4,-29.129 -26.64,-32.718 -15.34,-3.614 -31.12,3.285 -38.75,16.976 -2.88,5.172 -4.44,10.742 -4.45,16.66 -0.04,24.762 -0.15,49.524 0.02,74.282 0.14,19.343 15.87,34.757 35.04,34.765 18.83,0.012 34.36,-15.023 34.8,-34.066 0.29,-12.574 0.05,-25.164 0.05,-37.746 h -0.01" /><path
         id="path40"
         style="fill:#46a0dd;fill-opacity:1;fill-rule:nonzero;stroke:none"
         d="m 771.492,549.902 c 0,12.043 -0.058,24.078 0.016,36.121 0.121,19.481 13.683,33.926 33.312,35.594 16.996,1.446 32.91,-11.492 36.157,-29.461 0.312,-1.718 0.41,-3.496 0.41,-5.246 0.023,-24.754 0.113,-49.512 -0.02,-74.262 -0.078,-14.664 -9.25,-27.515 -22.726,-32.484 -13.692,-5.051 -29.016,-1.074 -38.696,10.141 -5.398,6.258 -8.222,13.57 -8.422,21.859 -0.011,0.406 -0.023,0.813 -0.023,1.219 0,12.176 0,24.347 -0.008,36.519" /></g></g></svg>