<?xml version="1.0" encoding="UTF-8" standalone="no"?>
<svg
   xmlns:dc="http://purl.org/dc/elements/1.1/"
   xmlns:cc="http://creativecommons.org/ns#"
   xmlns:rdf="http://www.w3.org/1999/02/22-rdf-syntax-ns#"
   xmlns:svg="http://www.w3.org/2000/svg"
   xmlns="http://www.w3.org/2000/svg"
   viewBox="0 0 689.37335 113.38667"
   height="113.38667"
   width="689.37335"
   xml:space="preserve"
   id="svg2"
   version="1.1"><metadata
     id="metadata8"><rdf:RDF><cc:Work
         rdf:about=""><dc:format>image/svg+xml</dc:format><dc:type
           rdf:resource="http://purl.org/dc/dcmitype/StillImage" /></cc:Work></rdf:RDF></metadata><defs
     id="defs6" /><g
     transform="matrix(1.3333333,0,0,-1.3333333,0,113.38667)"
     id="g10"><g
       transform="scale(0.1)"
       id="g12"><path
         id="path14"
         style="fill:#ffffff;fill-opacity:1;fill-rule:nonzero;stroke:none"
         d="m 5105.18,424.824 c 0,54.153 -0.04,108.293 0.06,162.438 0.01,5.59 -0.3,9.816 -6.27,13.254 -99.62,57.422 -199.07,115.117 -298.46,172.922 -4.42,2.57 -7.43,2.265 -11.65,-0.188 -99.09,-57.605 -198.25,-115.094 -297.5,-172.441 -4.91,-2.844 -7.02,-5.829 -7,-11.758 0.21,-109.016 0.22,-218.024 0.04,-327.035 -0.01,-6.196 1.91,-9.543 7.34,-12.668 98.65,-56.907 197.2,-113.977 295.6,-171.3207 5.94,-3.4648 9.76,-3.0234 15.32,0.2149 98.14,57.1208 196.34,114.1058 294.73,170.7738 6.4,3.679 7.96,7.644 7.93,14.461 -0.25,53.781 -0.15,107.57 -0.14,161.347 z m -685.96,1.461 c 0.01,65.707 0.19,131.418 -0.23,197.125 -0.06,8.481 2.8,12.676 9.88,16.77 119.53,68.988 238.91,138.215 358.19,207.625 5.67,3.297 9.54,3.539 15.32,0.179 120.21,-69.945 240.54,-139.691 360.97,-209.257 5.49,-3.168 6.98,-6.707 6.97,-12.692 -0.15,-133.941 -0.16,-267.89 0.03,-401.836 0.01,-6.121 -1.77,-9.527 -7.14,-12.625 -120.4,-69.57 -240.72,-139.2888 -360.92,-209.22634 -5.83,-3.39063 -9.71,-2.953129 -15.31,0.30078 C 4667.07,72.375 4547.05,141.926 4426.9,211.262 c -6.35,3.664 -7.86,7.824 -7.83,14.648 0.23,66.785 0.15,133.582 0.15,200.375" /><path
         id="path16"
         style="fill:#ffffff;fill-opacity:1;fill-rule:nonzero;stroke:none"
         d="m 1961.91,510.574 c -29.78,-76.816 -59.54,-153.64 -89.36,-230.445 -10.63,-27.41 -21.55,-54.707 -31.91,-82.219 -2,-5.281 -4.44,-7.105 -10.03,-7.012 -19.13,0.332 -38.29,0.579 -57.4,-0.093 -7.57,-0.278 -10.58,2.515 -13.18,9.121 -39.63,100.777 -79.51,201.465 -119.36,302.16 -1.37,3.465 -3.09,6.789 -6.1,9.719 0,-11.77 0,-23.535 0,-35.305 0,-91.715 -0.12,-183.434 0.21,-275.141 0.03,-8.488 -2.09,-10.839 -10.57,-10.554 -20.2,0.652 -40.44,0.41 -60.65,0.086 -6.44,-0.098 -9.38,0.73 -9.37,8.543 0.27,150.57 0.26,301.144 0.05,451.718 -0.01,6.805 1.88,8.473 8.45,8.371 24.19,-0.375 48.39,-0.492 72.57,0.063 7.33,0.172 10.55,-2.223 13.46,-8.781 49.97,-112.856 100.22,-225.578 150.42,-338.325 0.95,-2.117 2.07,-4.16 3.89,-7.769 12.01,27.527 23.45,53.738 34.89,79.937 38.73,88.778 77.55,177.512 116.05,266.379 2.66,6.145 5.48,8.661 12.4,8.52 23.1,-0.477 46.22,-0.371 69.33,-0.074 6.06,0.082 8.71,-0.657 8.69,-7.953 -0.24,-150.93 -0.21,-301.872 -0.05,-452.805 0.01,-6.047 -1.51,-7.942 -7.69,-7.832 -20.94,0.371 -41.9,0.555 -62.82,-0.07 -8.21,-0.254 -10.08,2.078 -10.06,10.148 0.3,99.656 0.19,199.312 0.19,298.973 0,3.527 0,7.046 0,10.57 -0.68,0.019 -1.36,0.047 -2.05,0.07" /><path
         id="path18"
         style="fill:#ffffff;fill-opacity:1;fill-rule:nonzero;stroke:none"
         d="m 1215.35,304.445 c 17.35,39.739 33.99,77.821 50.59,115.926 33.53,76.938 67.1,153.844 100.41,230.867 2.67,6.157 5.84,8.473 12.73,8.317 22.38,-0.508 44.77,-0.539 67.14,-0.012 8.09,0.191 10.81,-1.488 10.75,-10.336 -0.42,-66.789 -0.22,-133.574 -0.22,-200.363 0,-82.668 -0.13,-165.348 0.2,-248.012 0.03,-8.066 -1.82,-10.293 -9.98,-10.027 -20.2,0.652 -40.44,0.652 -60.63,0 -8.21,-0.278 -10.01,2.066 -9.99,10.086 0.3,100.363 0.19,200.722 0.19,301.078 0,3.199 0,6.39 0,9.586 -0.52,0.14 -1.04,0.285 -1.55,0.422 -10.32,-26.489 -20.66,-52.965 -30.95,-79.461 -30.25,-77.856 -60.57,-155.676 -90.54,-233.637 -2.32,-6.055 -4.96,-8.184 -11.42,-8.027 -18.76,0.457 -37.56,0.539 -56.31,-0.02 -7.23,-0.215 -10.47,1.926 -13.18,8.828 -39.54,100.789 -79.42,201.438 -119.25,302.11 -1.39,3.515 -3.06,6.918 -6.13,10.125 0,-3.743 0,-7.489 0,-11.235 0,-99.644 -0.15,-199.281 0.24,-298.922 0.04,-9.297 -2.52,-11.238 -11.29,-10.933 -20.19,0.691 -40.422,0.41 -60.637,0.093 -6.007,-0.085 -8.734,0.598 -8.722,7.922 0.246,150.907 0.219,301.809 0.078,452.711 -0.008,5.821 1.105,8.074 7.535,7.977 25.27,-0.375 50.556,-0.645 75.806,0.125 9.07,0.277 9.5,-6.156 11.73,-11.145 50.01,-112.015 99.86,-224.101 149.75,-336.172 0.87,-1.964 1.8,-3.894 3.65,-7.871" /><path
         id="path20"
         style="fill:#ffffff;fill-opacity:1;fill-rule:nonzero;stroke:none"
         d="m 796.16,341.777 c -16.914,-45.269 -50.488,-69.382 -97.086,-76.636 -26.219,-4.082 -52.379,-2.895 -78.281,3.511 -41.289,10.207 -70.008,35.118 -83.551,75.118 -18.539,54.789 -19.054,110.382 0.481,165.128 16.746,46.93 53.121,69.618 100.773,76.504 27.785,4.016 55.492,3.063 82.438,-5.011 49.191,-14.735 73.621,-50.864 83.543,-99.008 3.796,-18.445 5.05,-37.094 4.746,-52.809 0.14,-31.679 -2.946,-59.722 -13.063,-86.797 z m 95.086,163.942 c -16.762,75.347 -60.254,126.566 -135.902,146.508 -59.602,15.711 -119.821,15.207 -179.41,-1.454 -64.133,-17.929 -107.02,-58.656 -126.938,-122.339 -22.363,-71.52 -19.707,-142.77 6,-212.914 22.402,-61.133 65.969,-100.442 128.531,-117.375 57.11,-15.45 114.957,-15.04 172.09,-0.04 63.793,16.75 107.094,56.75 128.422,119.59 11.699,34.485 14.988,70.285 15.754,107.879 -0.695,25.981 -2.563,53.262 -8.547,80.145" /><path
         id="path22"
         style="fill:#ffffff;fill-opacity:1;fill-rule:nonzero;stroke:none"
         d="m 3384.4,497.359 c -1.16,-43.398 1.53,-96.449 -1.46,-149.496 -4.63,-81.965 -52.45,-138.613 -133.03,-154.054 -55.96,-10.719 -111.9,-10.301 -166.18,9.738 -57.63,21.269 -87.52,64.961 -97.45,123.957 -3.55,21.043 -4.21,42.293 -4.18,63.609 0.12,85.914 0.17,171.828 -0.13,257.735 -0.03,8.257 1.72,11.015 10.49,10.746 22.36,-0.696 44.76,-0.594 67.13,-0.031 7.65,0.195 9.47,-1.891 9.44,-9.446 -0.27,-89.883 -0.14,-179.765 -0.21,-269.644 -0.02,-14.485 1.07,-28.86 4.27,-42.953 7.83,-34.356 28.1,-57.918 62.18,-68.028 29.97,-8.887 60.53,-9.148 90.77,-1.433 41.34,10.527 66.38,41.289 70.12,84.168 1.16,13.332 1.59,26.632 1.58,39.992 -0.07,85.551 0.09,171.101 -0.21,256.648 -0.03,8.211 1.65,10.996 10.41,10.731 22.35,-0.684 44.75,-0.563 67.13,-0.043 7.64,0.172 9.57,-2.082 9.51,-9.614 -0.34,-47.644 -0.18,-95.296 -0.18,-152.582" /><path
         id="path24"
         style="fill:#ffffff;fill-opacity:1;fill-rule:nonzero;stroke:none"
         d="m 2476.98,191.016 c 33.96,80.382 67.29,159.269 100.62,238.16 30.96,73.328 62,146.621 92.73,220.039 3.13,7.5 6.74,10.715 15.56,10.426 24.87,-0.813 49.8,-0.5 74.7,-0.118 5.98,0.094 8.72,-1.8 11.07,-7.25 65.19,-151.515 130.57,-302.945 195.9,-454.402 0.83,-1.91 1.36,-3.953 2.35,-6.844 -29.92,0 -59.09,0.125 -88.25,-0.105 -5.68,-0.039 -6.22,4.219 -7.75,7.508 -16.85,36.472 -33.88,72.871 -50.06,109.636 -3.79,8.625 -8.31,11.125 -17.51,11.008 -44.02,-0.558 -88.04,-0.254 -133.74,-0.254 5.86,15.047 11.14,29.278 16.94,43.282 4.38,10.554 5.15,25.437 13.9,30.566 8.68,5.066 22.35,1.727 33.82,1.797 19.06,0.129 38.12,0.039 58.34,0.039 -25.35,58.387 -50.25,115.762 -76.03,175.16 -17.1,-42.062 -33.39,-81.984 -49.57,-121.953 -33.36,-82.375 -66.74,-164.762 -99.88,-247.231 -2.76,-6.882 -5.93,-9.89 -13.94,-9.699 -25.97,0.637 -51.95,0.235 -79.2,0.235" /><path
         id="path26"
         style="fill:#ffffff;fill-opacity:1;fill-rule:nonzero;stroke:none"
         d="m 2080.48,659.363 c 32.8,0 64.56,-0.254 96.3,0.2 7.24,0.101 8.03,-4.551 9.84,-9.04 34.71,-86.105 69.39,-172.226 104.08,-258.343 11.89,-29.532 23.78,-59.075 36.61,-90.926 6.29,15.262 11.89,28.621 17.29,42.051 41.21,102.414 82.46,204.816 123.37,307.355 2.7,6.793 5.72,9.012 13.01,8.899 30.3,-0.469 60.6,-0.204 92.24,-0.204 -2.9,-7.046 -5.32,-13.269 -8,-19.382 -64.1,-146.91 -128.27,-293.789 -192.23,-440.762 -2.68,-6.184 -5.86,-8.508 -12.74,-8.379 -25.27,0.457 -50.55,0.508 -75.8,0 -7.07,-0.148 -9.98,2.5 -12.51,8.582 -63.28,151.895 -126.72,303.727 -190.12,455.578 -0.4,0.946 -0.61,1.973 -1.34,4.371" /><path
         id="path28"
         style="fill:#ffffff;fill-opacity:1;fill-rule:nonzero;stroke:none"
         d="m 388.941,561.238 c -44.855,18.985 -90.242,27.067 -137.156,26.114 -25.246,-0.512 -50.152,-3.727 -74.199,-12.348 -43.09,-15.449 -70.313,-45.621 -80.8399,-89.613 -10.2461,-42.789 -9.0664,-85.996 4.6249,-127.989 17.246,-52.886 56.145,-81.043 109.551,-90.222 60.793,-10.442 119.582,-1.692 177.973,21.672 0,-25.442 -0.024,-50.11 0.019,-74.766 0.008,-5.141 -4.129,-5.09 -7.367,-6.289 -27.16,-10.063 -55.406,-15.442 -84.074,-18.149 -48.364,-4.57 -96.395,-2.859 -143.684,9.805 C 71.6523,221.445 23.9961,275.578 7.54297,357.758 -2.83594,409.57 -3.03516,461.734 10.2695,513.199 29.957,589.355 80.8242,634.402 155.734,652.078 c 74.309,17.539 148.539,14.942 221.813,-7.848 8.449,-2.628 12.027,-6.019 11.664,-15.503 -0.84,-21.961 -0.27,-43.981 -0.27,-67.489" /><path
         id="path30"
         style="fill:#ffffff;fill-opacity:1;fill-rule:nonzero;stroke:none"
         d="m 3950.25,386.621 c 0,-61.734 -0.18,-123.476 0.21,-185.215 0.05,-8.472 -2.1,-10.847 -10.6,-10.613 -22.36,0.625 -44.77,0.598 -67.14,0.02 -7.82,-0.196 -9.29,2.175 -9.28,9.589 0.24,123.828 0.02,247.664 0.44,371.5 0.03,10.286 -3.08,12.188 -12.5,12.059 -37.53,-0.512 -75.09,0.019 -112.63,-0.387 -7.71,-0.082 -9.7,2.168 -9.5,9.66 0.51,19.485 0.41,38.993 0.03,58.481 -0.11,6.105 1.61,7.789 7.75,7.777 113.01,-0.179 226,-0.191 339,0.024 6.9,0.011 8.4,-2.082 8.25,-8.602 -0.43,-19.125 -0.58,-38.281 0.09,-57.391 0.31,-8.535 -2.71,-10.035 -10.51,-9.953 -37.9,0.391 -75.81,-0.082 -113.72,0.368 -7.95,0.093 -10.15,-1.704 -10.1,-9.946 0.39,-62.457 0.21,-124.918 0.21,-187.371" /><path
         id="path32"
         style="fill:#ffffff;fill-opacity:1;fill-rule:nonzero;stroke:none"
         d="m 3471.71,425.418 c 0,74.379 0.19,148.758 -0.25,223.133 -0.05,9.25 2.48,11.289 11.29,11.027 22,-0.664 44.05,-0.683 66.06,0.024 8.49,0.273 9.81,-2.454 9.79,-10.207 -0.26,-122.403 -0.19,-244.801 -0.19,-367.196 0,-15.605 0.02,-15.597 15.1,-15.586 64.27,0.02 128.54,-0.136 192.81,0.235 8.43,0.047 11.15,-1.922 10.83,-10.664 -0.71,-19.114 -0.45,-38.274 -0.1,-57.395 0.11,-6.023 -1.51,-7.93 -7.73,-7.918 -96.76,0.195 -193.52,0.242 -290.29,-0.051 -8.09,-0.027 -7.36,4.075 -7.35,9.297 0.05,75.102 0.03,150.196 0.03,225.301" /><path
         id="path34"
         style="fill:#ffffff;fill-opacity:1;fill-rule:nonzero;stroke:none"
         d="m 4164.53,589.531 c 18,-0.129 32.37,13.641 32.8,31.438 0.44,17.832 -14.49,33.433 -32.17,33.633 -17.71,0.195 -32.79,-15 -32.74,-33.008 0.06,-17.809 14.19,-31.922 32.11,-32.063 z m -0.12,-6.226 c -20.96,0.23 -38.5,18.125 -38.18,38.922 0.33,21.031 17.92,38.136 39.04,37.98 20.97,-0.156 38.65,-18.16 38.16,-38.848 -0.51,-21.214 -18.02,-38.296 -39.02,-38.054" /><path
         id="path36"
         style="fill:#ffffff;fill-opacity:1;fill-rule:nonzero;stroke:none"
         d="m 4541.94,415.832 c 0,38.988 -0.02,77.984 0.01,116.973 0.01,12.246 1.5,13.133 12.16,6.957 69.33,-40.203 138.56,-80.578 208.03,-120.551 8.27,-4.766 11.48,-10.535 11.45,-19.934 -0.25,-76.902 -0.15,-153.797 -0.16,-230.691 0,-14.246 -1.24,-14.961 -13.69,-7.754 -68.73,39.805 -137.39,79.727 -206.24,119.324 -8.53,4.914 -11.89,10.942 -11.76,20.879 0.49,38.254 0.2,76.535 0.2,114.797" /><path
         id="path38"
         style="fill:#ffffff;fill-opacity:1;fill-rule:nonzero;stroke:none"
         d="m 4795.08,453.176 c -4.26,-0.449 -7.72,1.308 -11.22,3.34 -67.09,38.91 -134.23,77.754 -201.33,116.668 -9.75,5.652 -9.78,7.902 -0.15,13.488 67.1,38.93 134.28,77.73 201.33,116.742 7.68,4.477 14.57,4.543 22.2,0.098 67.35,-39.196 134.79,-78.227 202.15,-117.391 8.93,-5.187 8.97,-7.031 0.23,-12.109 -67.68,-39.356 -135.4,-78.625 -203.13,-117.891 -3.12,-1.808 -6.35,-3.418 -10.08,-2.945" /><path
         id="path40"
         style="fill:#ffffff;fill-opacity:1;fill-rule:nonzero;stroke:none"
         d="m 4816.77,270.961 c 0,34.629 -0.03,69.246 0.03,103.875 0.02,10.891 1.22,11.582 10.92,5.969 59.98,-34.707 119.92,-69.485 179.84,-104.297 8.65,-5.031 8.77,-7.336 0.19,-12.336 -60.16,-35.07 -120.39,-70.039 -180.67,-104.902 -8.23,-4.766 -10.2,-3.379 -10.22,6.738 -0.09,34.988 -0.04,69.969 -0.04,104.953 -0.01,0 -0.03,0 -0.05,0" /><path
         id="path42"
         style="fill:#ffffff;fill-opacity:1;fill-rule:nonzero;stroke:none"
         d="m 4163.16,624.441 c 6.36,0.098 12.71,-0.41 12.4,7.422 -0.31,7.969 -7.48,5.907 -12.28,6.766 -4.92,0.879 -6.84,-1.336 -6.87,-6.543 -0.04,-5.766 1.2,-9.031 6.75,-7.645 z m -13.43,-3.171 c 0,1.449 0,2.89 0,4.332 -0.02,19.66 3.06,22.171 22.7,18.3 4.83,-0.953 9.07,-3.129 9.81,-8.593 0.67,-4.981 1.62,-11.114 -4.07,-13.368 -8.73,-3.449 -3.8,-7.089 -1.44,-11.48 1.85,-3.453 7.99,-7.867 4.27,-10.453 -5.44,-3.801 -6.78,4.004 -9.59,7.164 -1.18,1.32 -1.89,3.051 -2.89,4.543 -2.13,3.183 -3.5,7.726 -8.66,6.488 -5.98,-1.437 -2.34,-6.504 -3.18,-9.867 -0.42,-1.699 0,-3.594 -0.11,-5.391 -0.13,-2.418 -0.97,-4.121 -3.92,-3.804 -2.39,0.254 -2.86,1.882 -2.88,3.726 -0.08,6.133 -0.03,12.274 -0.04,18.403" /></g></g></svg>