<?xml version="1.0" encoding="UTF-8"?>
<svg width="828px" height="28px" viewBox="0 0 828 28" version="1.1" xmlns="http://www.w3.org/2000/svg" xmlns:xlink="http://www.w3.org/1999/xlink">
    <!-- Generator: sketchtool 46.2 (44496) - http://www.bohemiancoding.com/sketch -->
    <title>AD090166-6B3A-46C4-BB9C-2243BB7ADF30</title>
    <desc>Created with sketchtool.</desc>
    <defs></defs>
    <g id="Wapik" stroke="none" stroke-width="1" fill="none" fill-rule="evenodd">
        <g id="CONF-1280" transform="translate(-91.000000, -151.000000)">
            <g id="2_banner" transform="translate(-828.000000, -2.000000)">
                <g id="icon/Conf-logo-long" transform="translate(919.000000, 153.000000)">
                    <g id="Conf-logo">
                        <polygon id="Shape" fill="#17A453" fill-rule="nonzero" points="9.29721557 28 9.29721557 7.71143336 0 7.71143336 0 1 27 1 27 7.71143336 17.7027844 7.71143336 17.7027844 28 9.29721557 28"></polygon>
                        <polygon id="Shape" fill="#17A453" fill-rule="nonzero" points="55.9991687 28 47.3563424 28 47.3563424 17.2767979 37.6428264 17.2767979 37.6428264 28 29 28 29 1 37.6428264 1 37.6428264 10.5653646 47.3571736 10.5653646 47.3571736 1 56 1 56 28"></polygon>
                        <path d="M63.5221044,28 C62.4014491,28 61.2807939,27.9228667 60.2365851,27.0744007 C59,26.0331015 59,24.9532356 59,23.6805366 L59,5.16519687 C59,4.12389765 59.1545731,3.00546516 60.1592985,2.07986586 C61.1640239,1.15426655 62.4778956,1 63.4439777,1 L82.8840701,1 L82.8840701,7.55716681 L69.5118135,7.55716681 C69.0094508,7.55716681 68.4684448,7.67286672 68.1592985,7.94283319 C67.7342224,8.28993293 67.7342224,8.90699913 67.7342224,9.25409887 L67.7342224,11.2981307 L82.4976373,11.2981307 L82.4976373,17.161098 L67.7342224,17.161098 L67.7342224,20.0921625 C67.7342224,20.6320954 67.9274388,20.9406285 68.1206553,21.094895 C68.5457314,21.4805614 69.2413105,21.4419948 69.7823165,21.4419948 L83,21.4419948 L83,27.9991616 L63.5221044,27.9991616 L63.5221044,28 Z" id="Shape" fill="#17A453" fill-rule="nonzero"></path>
                        <path d="M123,22.2860656 C123,23.2286885 122.810236,27 117.230362,27 C115.218868,27 113.130644,26.7360656 111.460724,24.3983607 L101.857037,10.9360656 C101.667274,10.6721311 101.401605,10.295082 101.135936,10.295082 C101.022077,10.295082 100.604598,10.295082 100.604598,11.0491803 L100.604598,26.6983607 L94,26.6983607 L94,4.67622951 C94,1.2442623 96.8852314,0 99.9594014,0 C101.40243,0 103.945262,0.150819672 105.577228,2.45081967 L115.255996,16.0262295 C115.445759,16.2901639 115.673476,16.6672131 115.977923,16.6672131 C116.395402,16.6672131 116.395402,16.2147541 116.395402,16.0262295 L116.395402,0.301639344 L123,0.301639344 L123,22.2860656 Z" id="Shape" fill="#17A453" fill-rule="nonzero"></path>
                        <path d="M131.522104,28 C130.401449,28 129.280794,27.9228667 128.236585,27.0744007 C127,26.0331015 127,24.9532356 127,23.6805366 L127,5.16519687 C127,4.12389765 127.154573,3.00546516 128.159299,2.07986586 C129.164024,1.15426655 130.477896,1 131.443978,1 L150.88407,1 L150.88407,7.55716681 L137.511814,7.55716681 C137.009451,7.55716681 136.468445,7.67286672 136.159299,7.94283319 C135.734222,8.28993293 135.734222,8.90699913 135.734222,9.25409887 L135.734222,11.2981307 L150.497637,11.2981307 L150.497637,17.161098 L135.734222,17.161098 L135.734222,20.0921625 C135.734222,20.6320954 135.927439,20.9406285 136.120655,21.094895 C136.545731,21.4805614 137.241311,21.4419948 137.782316,21.4419948 L151,21.4419948 L151,27.9991616 L131.522104,27.9991616 L131.522104,28 Z" id="Shape" fill="#17A453" fill-rule="nonzero"></path>
                        <polygon id="Shape" fill="#17A453" fill-rule="nonzero" points="160.297216 28 160.297216 7.71143336 151 7.71143336 151 1 178 1 178 7.71143336 168.702784 7.71143336 168.702784 28 160.297216 28"></polygon>
                        <path d="M195.086623,2.86630643 C195.886206,0.151634741 198.514233,0 199.999172,0 C201.484111,0 204.111311,0.150815094 204.911721,2.86630643 L208.910462,16.3658966 C208.948537,16.5544155 209.176989,17.0068608 209.329291,17.0068608 C209.443517,17.0068608 209.633894,16.8937494 209.82427,16.2150815 L214.241012,0.302449835 L223,0.302449835 L216.488286,21.5321332 C215.117573,26.0197019 213.366106,27 209.938496,27 C205.901681,27 204.607118,25.2656264 203.769461,22.4370238 L200.380754,10.974257 C200.304603,10.7857381 200.190377,10.2955891 200,10.2955891 C199.809623,10.2955891 199.695397,10.7857381 199.619246,10.974257 L196.230539,22.4370238 C195.392882,25.2656264 194.098319,27 190.061504,27 C186.634721,27 184.883255,26.0197019 183.511714,21.5321332 L177,0.302449835 L185.757333,0.302449835 L190.174074,16.2150815 C190.364451,16.8937494 190.554828,17.0068608 190.669054,17.0068608 C190.821355,17.0068608 191.049807,16.5544155 191.087883,16.3658966 L195.086623,2.86630643 Z" id="Shape" fill="#17A453" fill-rule="nonzero"></path>
                        <path d="M248.025011,2.71483652 C250.887026,5.35426091 251,9.95522026 251,13.4995902 C251,16.9693676 250.887026,21.6072133 248.025011,24.2851635 C245.238313,26.8868818 240.417259,27 236.5,27 C232.582741,27 227.762506,26.8868818 224.974989,24.2851635 C222.112156,21.6072133 222,16.9693676 222,13.4995902 C222,9.95522026 222.112974,5.35426091 224.974989,2.71483652 C227.799345,0.113118188 232.507424,0 236.5,0 C240.492576,0 245.199836,0.113118188 248.025011,2.71483652 Z M231.716605,18.5161359 C232.846347,20.2506148 234.352671,20.4391451 236.5,20.4391451 C238.721827,20.4391451 240.115995,20.2506148 241.283395,18.5161359 C242.262506,17.0824858 242.262506,15.6127691 242.262506,13.5004098 C242.262506,11.20034 242.300164,9.95603995 241.283395,8.48468381 C240.115995,6.75020492 238.722646,6.56167461 236.5,6.56167461 C234.315831,6.56167461 232.847166,6.75020492 231.716605,8.48468381 C230.775152,9.87980813 230.737494,11.3134582 230.737494,13.5004098 C230.737494,15.5742433 230.850469,17.195604 231.716605,18.5161359 Z" id="Shape" fill="#17A453" fill-rule="nonzero"></path>
                        <path d="M255,6.16892836 C255,4.93475763 255.075095,3.39204422 256.013786,2.3113064 C256.990024,1.19283918 258.530292,1 259.543261,1 L273.850535,1 C275.50263,1 278.393796,1 280.121803,3.6226128 C281.248231,5.35816539 281.473517,7.74937118 281.473517,9.79430488 C281.473517,11.0284756 281.398422,14.2304444 280.497279,16.428811 C279.521041,18.8208552 277.64366,19.7842127 275.616089,19.7842127 L274.489661,19.7842127 L274.489661,19.938484 L282,28 L271.786233,28 L266.716488,20.9798155 C265.852893,19.7842127 264.914203,18.6271776 264.914203,17.3150328 L264.914203,16.7365152 C264.914203,14.923827 266.52875,13.6896562 268.706512,13.6896562 L270.058226,13.6896562 C270.809178,13.6896562 271.822964,13.6125206 272.423726,12.8797317 C272.83675,12.339782 272.98694,11.3370183 272.98694,10.6427973 C272.98694,9.17638108 272.536369,8.56013415 272.348631,8.36729497 C271.710321,7.67307394 270.771631,7.71164177 269.983131,7.71164177 L265.289679,7.71164177 C264.80156,7.71164177 264.350989,7.75020961 263.975512,8.13588796 C263.449846,8.63726982 263.487393,9.17721951 263.487393,9.83287271 L263.487393,28 L255.000816,28 L255.000816,6.16892836 L255,6.16892836 Z" id="Shape" fill="#17A453" fill-rule="nonzero"></path>
                        <path d="M284,1 L292.478755,1 L292.478755,28 L284,28 L284,1 Z M302.796462,28 L294.84289,17.5476028 C294.09263,16.5834368 293.679987,15.348466 293.679987,14.1529003 C293.679987,13.1501677 294.017604,11.8774686 294.505273,11.1832692 L301.558533,1 L311.61365,1 L302.495543,12.1474351 C302.120413,12.6102348 301.70777,13.3815675 301.70777,14.075767 C301.70777,14.6542666 301.857822,15.5412992 302.795647,16.5825984 L313,28 L302.796462,28 L302.796462,28 Z" id="Shape" fill="#17A453" fill-rule="nonzero"></path>
                        <path d="M349,23.9496646 C349,25.72373 348.182933,26.6887343 347.737261,27.0744007 C347.068751,27.6529003 346.028848,28 344.951806,28 L332.657051,28 C330.540105,28 327.79179,27.2672339 326.119709,25.7245684 C323.259976,23.102037 323,18.2032356 323,14.6542666 C323,10.3733698 323.334255,5.3974351 326.71394,2.85119861 C329.090861,1.03856664 332.545632,1 333.251281,1 L348.40577,1 L348.40577,7.40290026 L337.039499,7.40290026 C334.922554,7.40290026 333.436978,8.17423301 332.545632,9.63976525 C331.654287,11.1438641 331.617147,12.9950627 331.617147,14.4991616 C331.617147,15.9655322 331.654287,17.8544591 332.582772,19.4365296 C333.511257,20.9406285 334.811136,21.2877282 336.222433,21.2877282 L338.747912,21.2877282 C339.193584,21.2877282 339.750675,21.2491616 340.160016,20.8634952 C340.56855,20.4392622 340.605689,19.822196 340.605689,19.2822631 L340.605689,13.7278288 L349,13.7278288 L349,23.9496646 L349,23.9496646 Z" id="Shape" fill="#17A453" fill-rule="nonzero"></path>
                        <path d="M360.465514,1 L360.465514,16.3302837 C360.465514,17.5123419 360.540437,19.0757092 361.776671,20.1052438 C362.525904,20.7153383 363.799599,21.0585165 364.999186,21.0585165 C366.198772,21.0585165 367.471653,20.7153383 368.2217,20.1052438 C369.495396,19.0375783 369.532857,17.3979492 369.532857,16.3302837 L369.532857,1 L378,1 L378,17.0166401 C378,19.7239347 377.587922,22.6608437 375.265301,24.9868292 C372.568064,27.6949527 368.746163,28 365,28 C361.253837,28 357.431936,27.6949527 354.734699,24.9868292 C352.411264,22.6608437 352,19.7239347 352,17.0166401 L352,1 L360.465514,1 Z" id="Shape" fill="#17A453" fill-rule="nonzero"></path>
                        <path d="M388.889189,3.24195628 C389.729197,1.25832003 390.874663,0 394.99917,0 C397.558207,0 399.849139,0.26691637 401.109151,3.24195628 L411,27 L401.911807,27 L399.811787,21.50832 L390.189043,21.50832 L388.088193,27 L379,27 L388.889189,3.24195628 Z M392.250052,15.4065455 L397.749118,15.4065455 L395.34364,8.6565455 C395.267275,8.46589095 395.114547,8.08458185 395,8.08458185 C394.885453,8.08458185 394.732725,8.46589095 394.65636,8.6565455 L392.250052,15.4065455 Z" id="Shape" fill="#17A453" fill-rule="nonzero"></path>
                        <path d="M412,6.16892836 C412,4.93475763 412.075093,3.39204422 413.013755,2.3113064 C413.989963,1.19283918 415.529369,1 416.543124,1 L430.849965,1 C432.50201,1 435.393089,1 437.121044,3.6226128 C438.247438,5.35816539 438.472717,7.74937118 438.472717,9.79430488 C438.472717,11.0284756 438.397624,14.2304444 437.496508,16.428811 C436.5203,18.8208552 434.642976,19.7842127 432.615466,19.7842127 L431.489072,19.7842127 L431.489072,19.938484 L439,28 L428.785725,28 L423.716134,20.9798155 C422.852565,19.7842127 421.913903,18.6271776 421.913903,17.3150328 L421.913903,16.7365152 C421.913903,14.923827 423.528402,13.6896562 425.706098,13.6896562 L427.057771,13.6896562 C427.8087,13.6896562 428.822455,13.6125206 429.423199,12.8797317 C429.83621,12.339782 429.986396,11.3370183 429.986396,10.6427973 C429.986396,9.17638108 429.535838,8.56013415 429.348106,8.36729497 C428.709816,7.67307394 427.771154,7.71164177 426.982678,7.71164177 L422.289368,7.71164177 C421.801264,7.71164177 421.350706,7.75020961 420.975241,8.13588796 C420.44959,8.63726982 420.487137,9.17721951 420.487137,9.83287271 L420.487137,28 L412.000816,28 L412.000816,6.16892836 L412,6.16892836 Z" id="Shape" fill="#17A453" fill-rule="nonzero"></path>
                        <path d="M440,5.85954725 C440,4.77964786 440.038054,3.35263795 440.857436,2.34987424 C441.490595,1.57851753 442.682424,1 443.985987,1 L455.868647,1 C458.774539,1 461.8286,2.07989939 463.653587,4.278266 C465.478575,6.47747104 466,9.67860137 466,14.3461479 C466,19.5913735 465.329596,22.7162066 463.988789,24.6060305 C462.685227,26.4572866 460.115346,28 456.501806,28 L444.283944,28 C443.501806,28 442.160999,27.9228643 441.192638,26.9972363 C440.48499,26.3415831 440,25.2616837 440,23.9889451 L440,5.85954725 L440,5.85954725 Z M448.418909,19.2434245 C448.418909,19.7833742 448.381664,20.4004596 448.791355,20.8247058 C449.239101,21.2875198 450.057673,21.2875198 450.169407,21.2875198 L451.324801,21.2875198 C453.224278,21.2875198 455.160999,21.0561128 456.203849,19.7448064 C456.576295,19.3205602 457.358433,18.0863895 457.358433,14.2673353 C457.358433,11.297612 456.61354,9.561221 455.607935,8.63559296 C454.453351,7.5942614 452.889076,7.4785579 450.877055,7.4785579 L450.244706,7.4785579 C449.796961,7.4785579 449.31359,7.51712573 448.941143,7.78710058 C448.456153,8.17277893 448.418909,8.9055678 448.418909,9.29124616 L448.418909,19.2434245 L448.418909,19.2434245 Z" id="Shape" fill="#17A453" fill-rule="nonzero"></path>
                        <polygon id="Shape" fill="#17A453" fill-rule="nonzero" points="470 28 470 1 479 1 479 28"></polygon>
                        <path d="M488.890275,3.24195628 C489.730305,1.25832003 490.876631,0 495.000415,0 C497.558688,0 499.84968,0.26691637 501.109725,3.24195628 L511,27 L501.911572,27 L499.811496,21.50832 L490.188504,21.50832 L488.088428,27 L479,27 L488.890275,3.24195628 Z M492.251226,15.4065455 L497.749604,15.4065455 L495.344894,8.6565455 C495.267697,8.46589095 495.115795,8.08458185 495.001245,8.08458185 C494.885865,8.08458185 494.733963,8.46589095 494.657596,8.6565455 L492.251226,15.4065455 Z" id="Shape" fill="#17A453" fill-rule="nonzero"></path>
                        <path d="M541,22.2860656 C541,23.2286885 540.810236,27 535.230362,27 C533.218868,27 531.131469,26.7360656 529.461549,24.3983607 L519.857862,10.9360656 C519.668924,10.6721311 519.40243,10.295082 519.136761,10.295082 C519.022903,10.295082 518.605423,10.295082 518.605423,11.0491803 L518.605423,26.6983607 L512,26.6983607 L512,4.67622951 C512,1.2442623 514.885231,0 517.960226,0 C519.40243,0 521.945262,0.150819672 523.578053,2.45081967 L533.256821,16.0262295 C533.445759,16.2901639 533.674301,16.6672131 533.977923,16.6672131 C534.395402,16.6672131 534.395402,16.2147541 534.395402,16.0262295 L534.395402,0.301639344 L541,0.301639344 L541,22.2860656 Z" id="Shape" fill="#17A453" fill-rule="nonzero"></path>
                        <path d="M543.264316,21.2883582 L557.916601,21.2883582 C559.163482,21.2883582 559.390038,20.8255442 559.390038,20.4398659 C559.390038,19.5913735 558.558511,19.3213986 557.690866,19.0899916 L547.456429,16.1588361 C545.908294,15.7345899 544.964309,14.8475297 544.434857,14.1147409 C543.188797,12.4177561 543,10.1028476 543,8.09732013 C543,6.40033537 543.114099,4.278266 544.661413,2.69698475 C545.49212,1.84849238 546.927797,1 549.193361,1 L566.640662,1 L566.640662,7.71164177 L553.196677,7.71164177 C552.214933,7.71164177 551.949796,7.78877744 551.79958,7.86591311 C551.573023,7.98161662 551.383406,8.2901593 551.383406,8.59870198 C551.383406,9.44719436 552.592527,9.79430488 553.61203,10.0642797 L562.524068,12.4940533 C563.694609,12.802596 565.242744,13.4196814 566.186728,14.3838773 C567.848142,16.0422942 568,18.7034748 568,20.5555694 C568,22.1368506 567.92366,24.2966494 566.716181,25.9173369 C565.205805,27.9614322 563.204557,28 561.391286,28 L543.265137,28 L543.265137,21.2883582 L543.264316,21.2883582 Z" id="Shape" fill="#17A453" fill-rule="nonzero"></path>
                        <path d="M591.096646,27.9991616 C586.688746,27.9991616 584.214608,26.147963 583.016197,24.9523972 C580.695851,22.638399 580,19.4365296 580,14.8856664 C580,11.2209974 580.270609,7.09436716 582.900222,4.2781642 C584.291925,2.77406533 586.920697,1 591.212621,1 L601.574757,1 L601.574757,2.85119861 L592.102605,2.85119861 C590.091527,2.85119861 586.496295,3.08259843 584.253266,5.97593467 C582.397662,8.36790461 582.243028,11.9160353 582.243028,14.924233 C582.243028,17.0453981 582.243028,20.401534 584.021316,22.8697988 C586.302162,26.0322631 590.24532,26.1488014 591.521889,26.1488014 L602,26.1488014 L602,28 L591.096646,28 L591.096646,27.9991616 Z" id="Shape" fill="#FFFFFF" fill-rule="nonzero"></path>
                        <path d="M626.817415,2.86630643 C629.846622,5.84490453 630,10.4455845 630,13.4995902 C630,16.5544155 629.845789,21.1542758 626.817415,24.1336936 C624.056619,26.8483653 619.99128,27 617.000417,27 C614.00872,27 609.943381,26.8491849 607.183418,24.1336936 C604.153378,21.1550955 604,16.5544155 604,13.4995902 C604,10.4455845 604.154211,5.84490453 607.183418,2.86630643 C609.944215,0.151634741 614.00872,0 617.000417,0 C619.99128,-3.77646367e-15 624.056619,0.150815094 626.817415,2.86630643 Z M608.524639,22.6624268 C610.826136,25.1885796 614.430509,25.1885796 617.000417,25.1885796 C619.569491,25.1885796 623.173864,25.1885796 625.475361,22.6624268 C627.699336,20.2108618 627.776025,16.5535958 627.776025,13.4987705 C627.776025,10.4447649 627.699336,6.78667921 625.475361,4.33593394 C623.173864,1.80978112 619.569491,1.80978112 617.000417,1.80978112 C614.430509,1.80978112 610.826136,1.80978112 608.524639,4.33593394 C606.300664,6.78667921 606.223975,10.4447649 606.223975,13.4987705 C606.223975,16.5535958 606.300664,20.2116815 608.524639,22.6624268 Z" id="Shape" fill="#FFFFFF" fill-rule="nonzero"></path>
                        <path d="M655.999192,24.0590164 C655.999192,25.7934426 655.218873,27 653.621076,27 C652.432018,27 651.837489,26.4344262 651.020011,25.0770492 L637.418542,2.79016393 C637.269102,2.52622951 636.971838,2.14918033 636.563099,2.14918033 C636.451625,2.14918033 636.006536,2.26229508 636.006536,2.90327869 L636.006536,26.697541 L634,26.697541 L634,2.67786885 C634,0.037704918 636.006536,0 636.452433,0 C637.864439,0 638.458968,0.867213115 639.016339,1.77213115 L652.692932,24.1713115 C652.877914,24.4729508 653.064513,24.85 653.510409,24.85 C653.994272,24.85 653.994272,24.4352459 653.994272,24.1713115 L653.994272,0.301639344 L656,0.301639344 L656,24.0590164 L655.999192,24.0590164 Z" id="Shape" fill="#FFFFFF" fill-rule="nonzero"></path>
                        <path d="M662,28 L662,3.73823128 C662,2.81263197 662.334681,2.19556577 662.706548,1.80989939 C663.413096,1.03856664 664.231205,1 665.049313,1 L680,1 L680,2.85119861 L664.899757,2.85119861 C664.677445,2.85119861 664.41633,2.85119861 664.230396,3.08259843 C664.045271,3.31399826 664.008084,3.661098 664.008084,3.93106446 L664.008084,13.3421625 L675.68553,13.3421625 L675.68553,15.1933611 L664.008084,15.1933611 L664.008084,27.9991616 L662,27.9991616 L662,28 Z" id="Shape" fill="#FFFFFF" fill-rule="nonzero"></path>
                        <path d="M687.539065,27.9997322 C686.644985,27.9997322 685.638336,28.0382984 684.819573,27.1898408 C684.037253,26.3799495 684,25.2615281 684,24.2588054 L684,4.58666173 C684,3.00544527 684.55799,2.23412016 684.745066,2.00272263 C685.490133,1.07713251 686.458719,1 687.464558,1 L702.851797,1 L702.851797,2.85118025 L687.762585,2.85118025 C687.352798,2.85118025 686.682239,3.00544527 686.421465,3.2368428 C686.011679,3.58393909 686.011679,4.31669794 686.011679,4.58666173 L686.011679,13.2649075 L702.479263,13.2649075 L702.479263,15.1160878 L686.011679,15.1160878 L686.011679,24.7199237 C686.011679,25.0284537 686.123439,25.5683813 686.384212,25.8006172 C686.644175,26.0320148 687.613571,26.1477135 688.060611,26.1477135 L703,26.1477135 L703,27.9988938 L687.539065,27.9988938 L687.539065,27.9997322 Z" id="Shape" fill="#FFFFFF" fill-rule="nonzero"></path>
                        <path d="M707.000823,5.12663023 C707.000823,3.9696311 707.038685,2.88976525 708.098807,1.9255993 C709.007483,1.11569991 709.991881,1 710.97628,1 L722.146246,1 C723.69939,1 725.895357,1.3085331 727.182648,3.31399826 C728.204909,4.89523041 728.356355,7.09352875 728.356355,9.09983232 C728.356355,10.7581977 728.280632,12.9573345 727.182648,14.7313998 C726.008942,16.6211651 724.040144,17.0839647 722.449138,17.0839647 L716.579782,17.0839647 L716.579782,17.2767979 L729,28 L726.008942,28 L714.308092,17.8167308 C713.702308,17.2767979 713.588724,17.1996646 713.588724,16.736865 L713.588724,16.1197988 C713.588724,15.5412992 713.967339,15.2327661 714.4974,15.2327661 L722.714168,15.2327661 C724.039321,15.2327661 725.024543,14.4228667 725.440196,13.7286672 C725.856673,12.9959011 726.159565,11.7617687 726.159565,8.94556577 C726.159565,7.75 726.197426,5.05033536 724.909312,3.81536455 C723.925736,2.88976525 722.33473,2.85119861 721.766808,2.85119861 L710.937596,2.85119861 C710.521119,2.85119861 710.02892,2.85119861 709.574582,3.27543162 C709.120244,3.69966464 709.044521,4.20103093 709.044521,4.66383058 L709.044521,27.9991616 L707,27.9991616 L707,5.12663023 L707.000823,5.12663023 Z" id="Shape" fill="#FFFFFF" fill-rule="nonzero"></path>
                        <path d="M737.539065,27.9997322 C736.644985,27.9997322 735.638336,28.0382984 734.819573,27.1898408 C734.037253,26.3799495 734,25.2615281 734,24.2588054 L734,4.58666173 C734,3.00544527 734.55799,2.23412016 734.745066,2.00272263 C735.490133,1.07713251 736.458719,1 737.464558,1 L752.851797,1 L752.851797,2.85118025 L737.762585,2.85118025 C737.351988,2.85118025 736.682239,3.00544527 736.421465,3.2368428 C736.011679,3.58393909 736.011679,4.31669794 736.011679,4.58666173 L736.011679,13.2649075 L752.479263,13.2649075 L752.479263,15.1160878 L736.011679,15.1160878 L736.011679,24.7199237 C736.011679,25.0284537 736.123439,25.5683813 736.384212,25.8006172 C736.644175,26.0320148 737.613571,26.1477135 738.060611,26.1477135 L753,26.1477135 L753,27.9988938 L737.539065,27.9988938 L737.539065,27.9997322 Z" id="Shape" fill="#FFFFFF" fill-rule="nonzero"></path>
                        <path d="M778.999192,24.0590164 C778.999192,25.7934426 778.218873,27 776.621076,27 C775.432018,27 774.837489,26.4344262 774.020011,25.0770492 L760.418542,2.79016393 C760.269102,2.52622951 759.971838,2.14918033 759.563099,2.14918033 C759.451625,2.14918033 759.006536,2.26229508 759.006536,2.90327869 L759.006536,26.697541 L757,26.697541 L757,2.67786885 C757,0.037704918 759.006536,0 759.452433,0 C760.864439,0 761.458968,0.867213115 762.016339,1.77213115 L775.692932,24.1713115 C775.877914,24.4729508 776.064513,24.85 776.510409,24.85 C776.994272,24.85 776.994272,24.4352459 776.994272,24.1713115 L776.994272,0.301639344 L779,0.301639344 L779,24.0590164 L778.999192,24.0590164 Z" id="Shape" fill="#FFFFFF" fill-rule="nonzero"></path>
                        <path d="M795.096646,27.9991616 C790.688746,27.9991616 788.214608,26.147963 787.016197,24.9523972 C784.695851,22.638399 784,19.4365296 784,14.8856664 C784,11.2209974 784.270609,7.09436716 786.900222,4.2781642 C788.291925,2.77406533 790.920697,1 795.212621,1 L805.574757,1 L805.574757,2.85119861 L796.102605,2.85119861 C794.091527,2.85119861 790.496295,3.08259843 788.253266,5.97593467 C786.397662,8.36790461 786.243028,11.9160353 786.243028,14.924233 C786.243028,17.0453981 786.243028,20.401534 788.021316,22.8697988 C790.302162,26.0322631 794.24532,26.1488014 795.521889,26.1488014 L806,26.1488014 L806,28 L795.096646,28 L795.096646,27.9991616 Z" id="Shape" fill="#FFFFFF" fill-rule="nonzero"></path>
                        <path d="M812.539065,27.9997322 C811.644985,27.9997322 810.638336,28.0382984 809.819573,27.1898408 C809.037253,26.3799495 809,25.2615281 809,24.2588054 L809,4.58666173 C809,3.00544527 809.55799,2.23412016 809.745066,2.00272263 C810.490133,1.07713251 811.458719,1 812.464558,1 L827.851797,1 L827.851797,2.85118025 L812.762585,2.85118025 C812.352798,2.85118025 811.682239,3.00544527 811.421465,3.2368428 C811.011679,3.58393909 811.011679,4.31669794 811.011679,4.58666173 L811.011679,13.2649075 L827.479263,13.2649075 L827.479263,15.1160878 L811.011679,15.1160878 L811.011679,24.7199237 C811.011679,25.0284537 811.123439,25.5683813 811.384212,25.8006172 C811.644175,26.0320148 812.613571,26.1477135 813.060611,26.1477135 L828,26.1477135 L828,27.9988938 L812.539065,27.9988938 L812.539065,27.9997322 Z" id="Shape" fill="#FFFFFF" fill-rule="nonzero"></path>
                    </g>
                </g>
            </g>
        </g>
    </g>
</svg>