<?xml version="1.0" encoding="UTF-8"?>
<svg width="33px" height="70px" viewBox="0 0 33 70" version="1.1" xmlns="http://www.w3.org/2000/svg" xmlns:xlink="http://www.w3.org/1999/xlink">
    <!-- Generator: sketchtool 46.2 (44496) - http://www.bohemiancoding.com/sketch -->
    <title>84F5048D-8BDF-4289-8404-DA2C7DC87196</title>
    <desc>Created with sketchtool.</desc>
    <defs></defs>
    <g id="Wapik" stroke="none" stroke-width="1" fill="none" fill-rule="evenodd">
        <g id="CONF-1280" transform="translate(-558.000000, -4684.000000)" fill-rule="nonzero" fill="#FFFFFF">
            <g id="AFTERPARTY" transform="translate(-80.000000, 4588.000000)">
                <g id="drink-2" transform="translate(638.000000, 96.000000)">
                    <path d="M32.1750728,7.17719222 C32.1727872,4.55317495 30.0207075,2.41900648 27.375557,2.41900648 C27.2260816,2.41900648 27.074473,2.42717063 26.9196647,2.4438013 C26.0409445,1.65278618 24.9063944,1.20950324 23.7186669,1.20950324 C23.2254439,1.20950324 22.7416678,1.28660907 22.2720622,1.43946004 C21.3784097,0.525075594 20.152742,0 18.8428136,0 C17.9823778,0 17.1422073,0.234643629 16.4048869,0.672181425 C15.667414,0.234643629 14.8273959,0 13.9669602,0 C12.6568793,0 11.4312117,0.525075594 10.5377115,1.43946004 C10.0681059,1.28660907 9.58432982,1.20950324 9.09110677,1.20950324 C7.90337936,1.20950324 6.76867685,1.65278618 5.89010902,2.4438013 C5.7351483,2.42717063 5.58369211,2.41900648 5.43421673,2.41900648 C2.82731124,2.41900648 0.700829676,4.49224622 0.637595952,7.06395248 C0.526670288,7.69092873 -0.0809829415,11.3983585 0.00906797584,16.8728726 C0.0983570411,22.3015767 0.928318711,30.5559827 4.37402335,39.0518359 C6.47079268,44.2217063 7.61570401,48.9053564 7.87412424,53.37054 C8.10298461,57.3245572 7.6585201,61.1837797 6.4753638,65.5154644 C6.17854622,66.6019006 6.4011594,67.7344492 7.08591206,68.622527 C7.76091302,69.4980562 8.78606119,70 9.89851762,70 L22.8941906,70 C24.006647,70 25.0317952,69.4980562 25.7067962,68.622527 C26.3915488,67.7344492 26.614162,66.6019006 26.3173444,65.5154644 C25.1341881,61.1837797 24.6897236,57.3245572 24.918584,53.37054 C25.1770042,48.9053564 26.3219155,44.2217063 28.4186849,39.0518359 C31.8645419,30.5559827 32.6943512,22.3014255 32.7836403,16.8728726 C32.8697295,11.6647516 32.3239387,8.05604752 32.1750728,7.17719222 Z M5.43421673,4.68682505 C5.61081404,4.68682505 5.79792492,4.71192225 6.02297602,4.76589633 C6.44610868,4.86719222 6.8910303,4.72114471 7.16971579,4.38883369 C7.65547269,3.80948164 8.35576713,3.47732181 9.09110677,3.47732181 C9.50982068,3.47732181 9.92304926,3.59056156 10.3196695,3.81356371 C10.8497661,4.11185745 11.5221768,3.94479482 11.8485542,3.43438445 C12.3152648,2.70384449 13.1071339,2.26781857 13.9669602,2.26781857 C14.5767466,2.26781857 15.1708388,2.49868251 15.6399874,2.91807775 C16.0747002,3.30663067 16.7350736,3.30663067 17.169634,2.91807775 C17.6387825,2.49883369 18.2330271,2.26781857 18.8426612,2.26781857 C19.7024875,2.26781857 20.4943565,2.70384449 20.9610671,3.43438445 C21.2872922,3.94509719 21.9600076,4.11200864 22.4899519,3.81356371 C22.8865721,3.59041037 23.299953,3.47732181 23.7185146,3.47732181 C24.4538542,3.47732181 25.1541487,3.80948164 25.6399056,4.38883369 C25.9184387,4.72114471 26.3629032,4.8674946 26.7866453,4.76589633 C27.0118488,4.71192225 27.1989597,4.68682505 27.3754046,4.68682505 C28.3499658,4.68682505 29.1950122,5.24107991 29.61205,6.0475162 L22.499856,6.0475162 C21.8687377,6.0475162 21.3570778,6.55520518 21.3570778,7.18142549 L21.3569255,14.4384449 C21.3569255,15.1470626 20.7759371,15.7235421 20.0617769,15.7235421 C19.3476168,15.7235421 18.7666283,15.1470626 18.7666283,14.4384449 L18.7661712,7.26231102 C18.7657141,6.37090713 18.0824852,6.0475162 17.6233931,6.0475162 L12.7479968,6.0475162 C12.1168785,6.0475162 11.6052187,6.55520518 11.6052187,7.18142549 L11.6052187,21.6954644 C11.6052187,22.4040821 11.0242303,22.9805616 10.3100701,22.9805616 C9.59590997,22.9805616 9.01492156,22.4040821 9.01492156,21.6954644 L9.01492156,7.18142549 C9.01492156,6.55520518 8.5032617,6.0475162 7.87214342,6.0475162 L3.19772372,6.0475162 C3.61460919,5.24107991 4.45950316,4.68682505 5.43421673,4.68682505 Z M2.7595064,8.31533477 L6.72921291,8.31533477 L6.72921291,20.5615551 L2.4777735,20.5615551 C2.04382254,14.7139093 2.50718099,10.1806911 2.7595064,8.31533477 Z M26.2987552,38.2051836 C22.1903917,48.334622 21.5362654,56.6795896 24.1116303,66.1087257 C24.2205751,66.5078618 24.1404283,66.9219654 23.8917597,67.2446004 C23.7514266,67.4267819 23.4351056,67.7323326 22.8944954,67.7323326 L9.89882236,67.7323326 C9.35821211,67.7323326 9.04189113,67.4267819 8.90155797,67.2446004 C8.65273708,66.9219654 8.57259024,66.5078618 8.68168746,66.1087257 C11.2570523,56.6795896 10.6029261,48.334622 6.49456247,38.2051836 C4.30865645,32.815486 3.20046639,27.4944276 2.68728282,22.8293737 L6.91769512,22.8293737 C7.39583349,24.2339093 8.73547421,25.2483801 10.3103749,25.2483801 C11.8852755,25.2483801 13.2249162,24.2339093 13.7030546,22.8293737 L30.1098442,22.8293737 C29.5960511,27.4909503 28.4867945,32.8103456 26.2987552,38.2051836 Z M30.3195058,20.5615551 L13.890775,20.5615551 L13.890775,8.31533477 L16.4809197,8.31533477 C16.4810721,9.87982721 16.4810721,12.7082505 16.4810721,14.4384449 C16.4810721,16.3975378 18.087361,17.9913607 20.0617769,17.9913607 C22.0361928,17.9913607 23.6424817,16.3975378 23.6424817,14.4384449 L23.6426341,8.31533477 L30.0342684,8.31533477 C30.2881175,10.1794816 30.754371,14.7107343 30.3195058,20.5615551 Z" id="Shape"></path>
                    <path d="M19.6846847,63.0630631 L12.4774775,63.0630631 C11.8555556,63.0630631 11.3513514,63.6277718 11.3513514,64.3243243 C11.3513514,65.0208769 11.8555556,65.5855856 12.4774775,65.5855856 L19.6846847,65.5855856 C20.3066066,65.5855856 20.8108108,65.0208769 20.8108108,64.3243243 C20.8108108,63.6277718 20.3066066,63.0630631 19.6846847,63.0630631 Z" id="Shape"></path>
                    <path d="M19.8096873,47.268899 C19.8943385,47.2879839 19.9788374,47.2972973 20.0621183,47.2972973 C20.5840322,47.2972973 21.0550946,46.9360587 21.1749155,46.4041249 C21.8192387,43.5415456 22.7525329,40.6053749 24.0277812,37.4273607 C24.4368777,36.40777 24.8203961,35.3542847 25.167679,34.2962189 C25.3648431,33.6954269 25.0390275,33.0482204 24.440075,32.8505011 C23.8408179,32.6527817 23.1955812,32.9795148 22.9984171,33.5801542 C22.6665115,34.5916528 22.3000451,35.5982658 21.9092186,36.572358 C20.5876862,39.8651869 19.6189177,42.9163249 18.9471895,45.899826 C18.8083372,46.5166494 19.1944439,47.1296557 19.8096873,47.268899 Z" id="Shape"></path>
                    <path d="M24.7702679,29.6128729 C24.8475958,29.6309547 24.9247857,29.6396396 25.0007328,29.6396396 C25.4735379,29.6396396 25.9004987,29.3036313 26.0097244,28.8083038 C26.1779127,28.0453086 26.3325686,27.2633774 26.4696876,26.4841513 C26.5717328,25.9036827 26.1983493,25.3479876 25.6355124,25.2427714 C25.0729515,25.136701 24.5337272,25.5225411 24.4316819,26.1028673 C24.2999483,26.8513401 24.1513681,27.6023756 23.989946,28.3349022 C23.8631835,28.9101029 24.2125401,29.4821713 24.7702679,29.6128729 Z" id="Shape"></path>
                </g>
            </g>
        </g>
    </g>
</svg>