<?xml version="1.0" encoding="UTF-8"?>
<svg width="32px" height="70px" viewBox="0 0 32 70" version="1.1" xmlns="http://www.w3.org/2000/svg" xmlns:xlink="http://www.w3.org/1999/xlink">
    <!-- Generator: sketchtool 46.2 (44496) - http://www.bohemiancoding.com/sketch -->
    <title>8D364ABA-5B95-4CFC-A2E9-8A1A85F1E0B5</title>
    <desc>Created with sketchtool.</desc>
    <defs></defs>
    <g id="Wapik" stroke="none" stroke-width="1" fill="none" fill-rule="evenodd">
        <g id="CONF-1280" transform="translate(-625.000000, -4684.000000)" fill-rule="nonzero" fill="#FFFFFF">
            <g id="AFTERPARTY" transform="translate(-80.000000, 4588.000000)">
                <g id="drink-3" transform="translate(705.000000, 96.000000)">
                    <path d="M24.5499023,2.07976562 C22.6968164,2.05214844 20.9276758,2.813125 19.6704102,4.14449219 C18.8707422,3.80939453 17.9848047,3.67828125 17.1126758,3.77193359 C15.8447461,1.45550781 13.4250977,0 10.7341992,0 C7.72447266,0 5.03671875,1.868125 3.95732422,4.62519531 C1.79375,4.95304688 0.13015625,6.82554687 0.13015625,9.07921875 C0.13015625,9.73205078 0.273574219,10.3792773 0.546054688,10.9689453 L0.546054688,23.4579297 C0.546054688,25.9343164 0.764257813,28.4265625 1.19464844,30.8653516 L3.53541016,44.1292578 C4.30199219,48.4733594 4.35558594,52.8875977 3.69482422,57.2490625 L2.42703125,65.6169336 C2.26037109,66.7162891 2.58042969,67.8301367 3.30558594,68.6732813 C4.03033203,69.5164258 5.08402344,70 6.19595703,70 L24.6983789,70 C25.8101758,70 26.8638672,69.5165625 27.58875,68.6732813 C28.3136328,67.8302734 28.6339648,66.7161523 28.4673047,65.6169336 L27.1995117,57.2489258 C26.53875,52.8874609 26.5923437,48.4732227 27.3589258,44.1291211 L29.6996875,30.8652148 C30.1299414,28.4264258 30.3482812,25.9341797 30.3482812,23.457793 L30.3482812,11.6574609 L30.5606055,11.1328711 C30.8761523,10.3538477 31.0377539,9.53203125 31.0413086,8.68998047 L31.0413086,8.68984375 C31.0552539,5.0946875 28.143418,2.12966797 24.5499023,2.07976562 Z M26.0122461,67.3177148 C25.6826172,67.7009375 25.2038281,67.9207812 24.6983789,67.9207812 L6.19582031,67.9207812 C5.69037109,67.9207812 5.21158203,67.7009375 4.88195313,67.3177148 C4.55246094,66.9346289 4.40685547,66.4282227 4.48259766,65.9285156 L4.49572266,65.8415625 L26.3982031,65.8415625 L26.4113281,65.9286523 C26.4870703,66.4282227 26.3416016,66.9344922 26.0122461,67.3177148 Z M28.2689258,23.4579297 C28.2689258,25.8135937 28.0613867,28.1842969 27.6520508,30.5041406 L25.3112891,43.7680469 C24.505332,48.335 24.4490039,52.9755078 25.1436719,57.5606445 L26.0833398,63.7623437 L4.81085937,63.7623437 L5.75052734,57.5606445 C6.44519531,52.9753711 6.38886719,48.3348633 5.58291016,43.7680469 L3.24214844,30.5041406 C2.8328125,28.1842969 2.62527344,25.8137305 2.62527344,23.4579297 L2.62527344,18.712832 L8.16976562,18.712832 L8.16976562,19.336543 C8.16976562,21.438457 9.87984375,23.1483984 11.9816211,23.1483984 C14.0833984,23.1483984 15.7934766,21.438457 15.7934766,19.336543 L15.7934766,18.712832 L28.2686523,18.712832 L28.2686523,23.4579297 L28.2689258,23.4579297 Z M2.62527344,16.6336133 L2.62527344,11.7821484 L6.43712891,11.7821484 C7.39265625,11.7821484 8.16976563,12.5593945 8.16976563,13.5147852 L8.16976563,16.6336133 L2.62527344,16.6336133 Z M28.2689258,16.6336133 L15.79375,16.6336133 L15.79375,13.5149219 C15.79375,12.5593945 16.5709961,11.7822852 17.5263867,11.7822852 L28.2689258,11.7822852 L28.2689258,16.6336133 Z M28.8408203,9.70292969 L17.5263867,9.70292969 C15.4246094,9.70292969 13.7145312,11.4128711 13.7145312,13.5147852 L13.7145312,19.336543 C13.7145312,20.2920703 12.9372852,21.0691797 11.9818945,21.0691797 C11.0263672,21.0691797 10.2492578,20.2919336 10.2492578,19.336543 L10.2492578,13.5149219 C10.2492578,11.4130078 8.53917969,9.70306641 6.43740234,9.70306641 L2.28990234,9.70306641 C2.23658203,9.50181641 2.20964844,9.29345703 2.20964844,9.07935547 C2.20964844,7.74183594 3.29792969,6.65355469 4.63421875,6.65355469 L5.50867187,6.67447266 L5.72441406,5.89244141 C6.34333984,3.64724609 8.40355469,2.07935547 10.7343359,2.07935547 C12.8645508,2.07935547 14.7567383,3.35644531 15.5549023,5.33285156 L15.9051758,6.20046875 L16.8047852,5.94302734 C17.0856055,5.86263672 17.3750391,5.82189453 17.6650195,5.82189453 C18.2715039,5.82189453 18.8598047,5.99689453 19.3666211,6.32775391 L20.20375,6.87435547 L20.7826172,6.059375 C21.6304102,4.86595703 23.0007422,4.15857422 24.4588477,4.15857422 C24.4794922,4.15857422 24.5005469,4.15871094 24.5213281,4.15898438 C26.979668,4.19302734 28.9717969,6.22193359 28.9620898,8.68150391 C28.9605859,9.02822266 28.9199805,9.36974609 28.8408203,9.70292969 Z" id="Shape"></path>
                    <rect id="Rectangle-path" x="17.3877539" y="20.7920508" width="2.07921875" height="2.07921875"></rect>
                    <path d="M21.5460547,20.7920508 L21.5460547,22.8712695 L24.1103516,22.8712695 L24.1103516,23.4579297 C24.1103516,25.5722852 23.9240039,27.6997656 23.5567773,29.7811719 L25.6042773,30.1425195 C25.9926953,27.9420312 26.189707,25.6930078 26.189707,23.457793 L26.189707,20.7920508 L21.5460547,20.7920508 Z" id="Shape"></path>
                    <rect id="Rectangle-path" transform="translate(7.123391, 34.547049) rotate(-10.008644) translate(-7.123391, -34.547049) " x="6.08376197" y="31.0428816" width="2.07925771" height="7.00833446"></rect>
                    <rect id="Rectangle-path" transform="translate(8.276930, 41.069182) rotate(-10.008644) translate(-8.276930, -41.069182) " x="7.23730083" y="40.0295536" width="2.07925771" height="2.07925771"></rect>
                    <rect id="Rectangle-path" x="12.6747852" y="59.6039062" width="5.54449219" height="2.07921875"></rect>
                    <rect id="Rectangle-path" x="20.2986328" y="59.6039062" width="2.07921875" height="2.07921875"></rect>
                    <rect id="Rectangle-path" x="8.51634766" y="59.6039062" width="2.07921875" height="2.07921875"></rect>
                    <path d="M10.7341992,4.1584375 C9.33570312,4.1584375 8.09990234,5.09878906 7.7284375,6.44519531 L7.66486328,6.67597656 L9.66929688,7.22859375 L9.73287109,6.9978125 C9.85619141,6.55019531 10.2679883,6.23765625 10.7340625,6.23765625 C11.1600781,6.23765625 11.5389258,6.49373047 11.6988867,6.88994141 L13.6267578,6.11132812 C13.1476953,4.92501953 12.0123828,4.1584375 10.7341992,4.1584375 Z" id="Shape"></path>
                    <path d="M24.0411719,5.54449219 L24.0411719,7.62371094 C24.6144336,7.62371094 25.0807812,8.09005859 25.0807812,8.66332031 L27.16,8.66332031 C27.16,6.94353516 25.7608203,5.54449219 24.0411719,5.54449219 Z" id="Shape"></path>
                    <rect id="Rectangle-path" x="18.9124414" y="13.1683398" width="2.07921875" height="2.07921875"></rect>
                    <rect id="Rectangle-path" x="23.9025391" y="13.1683398" width="2.07921875" height="2.07921875"></rect>
                    <rect id="Rectangle-path" x="16.9718555" y="27.029707" width="2.07921875" height="2.07921875"></rect>
                    <rect id="Rectangle-path" x="10.0411719" y="28.4158984" width="2.07921875" height="2.07921875"></rect>
                    <rect id="Rectangle-path" x="14.1996094" y="32.5741992" width="2.07921875" height="2.07921875"></rect>
                    <rect id="Rectangle-path" x="5.18970703" y="23.8415625" width="2.07921875" height="2.07921875"></rect>
                    <rect id="Rectangle-path" x="20.4371289" y="32.1584375" width="2.07921875" height="2.07921875"></rect>
                    <rect id="Rectangle-path" x="19.0510742" y="37.7029297" width="2.07921875" height="2.07921875"></rect>
                    <rect id="Rectangle-path" x="13.5064453" y="37.7029297" width="2.07921875" height="2.07921875"></rect>
                    <rect id="Rectangle-path" x="14.8926367" y="43.2475586" width="2.07921875" height="2.07921875"></rect>
                    <rect id="Rectangle-path" x="13.5064453" y="48.7920508" width="2.07921875" height="2.07921875"></rect>
                    <rect id="Rectangle-path" x="17.6648828" y="52.9504883" width="2.07921875" height="2.07921875"></rect>
                    <rect id="Rectangle-path" x="11.1500977" y="54.3366797" width="2.07921875" height="2.07921875"></rect>
                    <rect id="Rectangle-path" x="19.0510742" y="46.0198047" width="2.07921875" height="2.07921875"></rect>
                    <rect id="Rectangle-path" x="9.34814453" y="46.0198047" width="2.07921875" height="2.07921875"></rect>
                </g>
            </g>
        </g>
    </g>
</svg>