<?xml version="1.0" encoding="UTF-8"?>
<svg width="35px" height="70px" viewBox="0 0 35 70" version="1.1" xmlns="http://www.w3.org/2000/svg" xmlns:xlink="http://www.w3.org/1999/xlink">
    <!-- Generator: sketchtool 46.2 (44496) - http://www.bohemiancoding.com/sketch -->
    <title>2F56DF11-ECC9-4AC5-AC78-304AF84AA559</title>
    <desc>Created with sketchtool.</desc>
    <defs></defs>
    <g id="Wapik" stroke="none" stroke-width="1" fill="none" fill-rule="evenodd">
        <g id="CONF-1280" transform="translate(-688.000000, -4683.000000)" fill-rule="nonzero" fill="#FFFFFF">
            <g id="AFTERPARTY" transform="translate(-80.000000, 4588.000000)">
                <g id="drink-4" transform="translate(768.000000, 95.000000)">
                    <path d="M34.3491228,12.8694932 C34.6142495,12.2306238 34.7534308,11.5430409 34.7534308,10.84577 C34.7534308,8.00169591 32.4932359,5.67545809 29.6746784,5.56902534 C28.9274659,3.5185575 26.9768811,2.11337232 24.7169591,2.11337232 C23.784308,2.11337232 22.8723977,2.36130604 22.0736062,2.82346979 C20.9459649,1.99670565 19.5892203,1.54955166 18.170117,1.54955166 C17.8842495,1.54955166 17.5968811,1.56851852 17.3111501,1.60604288 C16.1107797,0.566276803 14.5977973,0 12.9902534,0 C10.2075828,0 7.78760234,1.69732943 6.81660819,4.227154 C3.20089669,4.26699805 0.271403509,7.22064327 0.271403509,10.84577 C0.271403509,11.5399025 0.37920078,12.2184795 0.589337232,12.8711306 C0.443606238,13.9304094 -0.766179337,23.4149318 1.44079922,31.152729 C1.44844055,31.1794737 1.45621832,31.2060819 1.46385965,31.2328265 C1.50274854,31.3673684 1.54272904,31.501501 1.58366472,31.6350877 C1.59417154,31.6692008 1.60440546,31.7033138 1.61504873,31.7372904 C1.66389864,31.8938012 1.71356725,32.0496296 1.7654191,32.20423 C1.91046784,32.6374659 2.29840156,32.9211501 2.72699805,32.9541715 C2.86986355,32.9652242 3.01723197,32.9484405 3.16159844,32.9 C3.19762183,32.8879922 3.23282651,32.8740741 3.26680312,32.8587914 C3.77631579,32.6285965 4.0388499,32.0453996 3.85764133,31.5036842 C3.85654971,31.5004094 3.85559454,31.4969981 3.85436647,31.4938596 C3.79692008,31.3216569 3.74206628,31.1476803 3.68844055,30.9726121 C3.67329435,30.9230799 3.6582846,30.8731384 3.64341131,30.8231969 C3.59756335,30.6695517 3.55307992,30.5150877 3.51009747,30.3593957 C3.50245614,30.3315595 3.49454191,30.3044055 3.48690058,30.2765692 C3.43545809,30.087037 3.38606238,29.8962768 3.338577,29.7042885 C3.33243665,29.6791813 3.32643275,29.6533918 3.32015595,29.6281481 C3.27676413,29.4502144 3.2351462,29.2713255 3.19530214,29.0917544 C3.19079922,29.0711501 3.18602339,29.0505458 3.18152047,29.0298051 C2.79918129,27.2877193 2.57662768,25.4761793 2.45859649,23.7250877 L9.00693957,23.7250877 L9.00693957,25.89577 C9.00693957,27.9467836 10.6757505,29.6155945 12.7267641,29.6155945 C14.7777778,29.6155945 16.4464522,27.9467836 16.4464522,25.9035478 L16.4617349,23.7250877 L19.5851267,23.7250877 C19.5866277,23.7336842 19.5890838,23.7417349 19.5905848,23.7501949 C19.6081871,23.8508967 19.6287914,23.9505068 19.6544444,24.0483431 C19.6548538,24.050117 19.6555361,24.0518908 19.6559454,24.0538012 C19.6815984,24.1510916 19.7117544,24.2464717 19.7447758,24.3404873 C19.7487329,24.3516764 19.7521442,24.3628655 19.7562378,24.3739181 C19.7888499,24.4639766 19.8255556,24.5519883 19.8648538,24.6386355 C19.8716764,24.6536452 19.8782261,24.668655 19.8853216,24.6835283 C19.9250292,24.7681287 19.9677388,24.8508187 20.0134503,24.9315984 C20.0216374,24.9461988 20.0302339,24.9605263 20.0385575,24.9751267 C20.08577,25.0561793 20.135575,25.135731 20.1887914,25.2128265 C20.1961598,25.2236062 20.2039376,25.2338402 20.2114425,25.2446199 C20.2679337,25.3247173 20.3267446,25.4033138 20.3892398,25.4787719 C20.3904678,25.4802729 20.3918324,25.4817739 20.3930604,25.4831384 C20.4552827,25.5580507 20.5209162,25.6298246 20.5888694,25.6995517 C20.597193,25.7082846 20.6053801,25.7170175 20.6137037,25.725614 C20.6797466,25.7922027 20.7485185,25.8557895 20.8193372,25.9173294 C20.8317544,25.9281092 20.8440351,25.9388889 20.8565887,25.9495322 C20.9269981,26.0091618 20.9998635,26.0660624 21.0745029,26.1202339 C21.0878752,26.129922 21.101384,26.1393372 21.1148928,26.1488889 C21.1915789,26.2030604 21.2699025,26.2546394 21.3506823,26.3029435 C21.3615984,26.3093567 21.3726511,26.3154971 21.3834308,26.3217739 C21.4688499,26.3715789 21.5559064,26.4192008 21.645692,26.4621832 C21.6465107,26.4625926 21.6474659,26.4628655 21.6484211,26.4634113 C21.7377973,26.5063938 21.8296296,26.5450097 21.9226901,26.5808967 C21.9340156,26.5851267 21.9450682,26.5899025 21.9563938,26.5941326 C22.0459064,26.6275634 22.1374659,26.657037 22.230117,26.6836452 C22.2459454,26.6881481 22.2619103,26.692924 22.2778752,26.697154 C22.2942495,26.7015205 22.3102144,26.7068421 22.3267251,26.7109357 C22.4025926,26.7304483 22.4796881,26.7468226 22.5573294,26.7615595 C22.5738402,26.7646979 22.5902144,26.7674269 22.6067251,26.7704288 C22.7031969,26.7873489 22.8007602,26.8011306 22.8994152,26.8105458 C22.9119688,26.8117739 22.924386,26.8123197 22.9369396,26.8134113 C23.0413255,26.8222807 23.1466667,26.8278752 23.2533723,26.8278752 C23.3598051,26.8278752 23.4651462,26.8222807 23.5695322,26.8134113 C23.5822222,26.8123197 23.5947758,26.8116374 23.6074659,26.8104094 C23.7062573,26.8009942 23.8036842,26.7872125 23.9001559,26.7702924 C23.9168031,26.7672904 23.9331774,26.7645614 23.9496881,26.761423 C24.0442495,26.7434113 24.1375828,26.7218519 24.2294152,26.6968811 C24.2452437,26.6926511 24.2610721,26.6878752 24.2769006,26.6833723 C24.3698246,26.6567641 24.4615205,26.627154 24.551306,26.5935867 C24.5620858,26.5896296 24.5725926,26.5849903 24.5833723,26.5808967 C24.6758869,26.5452827 24.767037,26.5068031 24.8558674,26.46423 C24.8579142,26.4631384 24.859961,26.4624561 24.8620078,26.461501 C24.9512476,26.4185185 25.0378947,26.371306 25.1230409,26.3216374 C25.13423,26.3149513 25.145692,26.3088109 25.1568811,26.3022612 C25.2375244,26.2539571 25.315848,26.2023782 25.3925341,26.1484795 C25.4060429,26.1389279 25.4195517,26.1293762 25.4331969,26.1196881 C25.5082456,26.0652437 25.5811111,26.0082066 25.6517934,25.9484405 C25.6638012,25.9382066 25.675809,25.9276998 25.6878168,25.917193 C25.7591813,25.8552437 25.8287719,25.7911111 25.8952242,25.7241131 C25.9025926,25.7166082 25.9095517,25.7089669 25.9167836,25.701462 C25.9840546,25.6325536 26.0488694,25.5611891 26.1106823,25.4869591 C26.1135478,25.4835478 26.1165497,25.4802729 26.1194152,25.4771345 C26.1813645,25.4023587 26.2397661,25.3245809 26.295575,25.2450292 C26.3034893,25.2337037 26.3118129,25.2226511 26.3195906,25.2113255 C26.3725341,25.1343665 26.4223392,25.0549513 26.4695517,24.9738986 C26.4778752,24.9594347 26.4863353,24.9451072 26.4945224,24.9305068 C26.5403704,24.8491813 26.5834893,24.7662183 26.6231969,24.681345 C26.629883,24.6672904 26.6360234,24.652963 26.6424366,24.6389084 C26.6821442,24.5510331 26.7193957,24.4619298 26.7522807,24.3707797 C26.7554191,24.3620468 26.7581481,24.3531774 26.7612865,24.3444444 C26.7940351,24.2517934 26.8233723,24.1576413 26.8487524,24.0618519 C26.8502534,24.0562573 26.8520273,24.0506628 26.8536647,24.0450682 C26.8786355,23.9488694 26.8991033,23.8507602 26.9164327,23.7518324 C26.9180702,23.7426901 26.9206628,23.7340936 26.9221637,23.7249513 L32.48,23.7249513 C32.4666277,23.9233528 32.4523002,24.1223002 32.4361988,24.3220663 C32.4357895,24.3282066 32.4353801,24.3344834 32.4346979,24.3406238 C32.4213255,24.5065497 32.4064522,24.6727485 32.3910331,24.8393567 C32.3701559,25.0604094 32.3490058,25.2811891 32.3249903,25.4980117 C32.3229435,25.5173879 32.3204873,25.5369006 32.3183041,25.5562768 C31.8950292,29.3201754 30.9945809,32.4191423 29.6674464,34.6535478 C29.6593957,34.6670565 29.6509357,34.6805653 29.642885,34.6940741 C29.5450487,34.857271 29.4451657,35.0167836 29.3428265,35.1705653 C26.518538,39.4143665 24.6753411,43.5581481 24.8595517,49.9875049 C24.8767446,50.5857115 25.3670175,51.0589279 25.9616764,51.0589279 C25.9618129,51.0589279 25.9619493,51.0589279 25.9620858,51.0589279 L25.9622222,51.0589279 C25.9728655,51.0589279 25.9836452,51.0587914 25.994425,51.0585185 C26.6034113,51.0410526 27.0829045,50.5333138 27.0654386,49.924191 C26.8973294,44.0567446 28.5149708,40.3965497 31.1794737,36.392768 C31.2475634,36.2905653 31.3146979,36.1865887 31.3808772,36.0812476 C31.4083041,36.0377193 31.4347758,35.9930994 31.4617934,35.9491618 C31.4997271,35.8873489 31.5377973,35.8260819 31.5750487,35.7633138 C31.610117,35.7045029 31.64423,35.6443275 31.678616,35.5845614 C31.7064522,35.5361209 31.7346979,35.4882261 31.7621248,35.4392398 C31.8018324,35.368694 31.8407212,35.2969201 31.8794737,35.2251462 C31.9003509,35.1866667 31.9213645,35.14846 31.9421053,35.1097076 C31.9854971,35.0281092 32.0282066,34.9451462 32.0705068,34.8620468 C32.0852437,34.8331189 32.1002534,34.8043275 32.1147173,34.7752632 C32.1616569,34.6822027 32.2076413,34.5877778 32.2532164,34.492807 C32.2622222,34.4741131 32.2712281,34.4555556 32.2800975,34.4368616 C32.3303119,34.3315205 32.3795712,34.2249513 32.4281481,34.1172904 C32.431423,34.1100585 32.4345614,34.1028265 32.4379727,34.095731 C33.889961,30.8746394 34.6801559,26.6466667 34.7905458,21.4794932 C34.8864717,17.0267836 34.4299025,13.4596491 34.3491228,12.8694932 Z M9.00734893,21.5192008 L9.00721248,21.5192008 L2.36007797,21.5192008 C2.28680312,18.2817349 2.51986355,15.482963 2.66955166,14.0738207 L9.00748538,14.0738207 L9.00748538,21.5192008 L9.00734893,21.5192008 Z M16.4801559,21.5192008 C16.512768,20.7133138 17.1768811,20.0672125 17.9905458,20.0672125 C18.8042105,20.0672125 19.4683236,20.7133138 19.5010721,21.5192008 L16.4801559,21.5192008 Z M25.8707992,11.8675244 C25.26154,11.8675244 24.7677193,12.3614815 24.7677193,12.9706043 L24.7677193,22.6221442 L24.7677193,23.1085965 C24.7677193,23.9431384 24.0885965,24.6222612 23.2540546,24.6222612 C22.4195127,24.6222612 21.7405263,23.9431384 21.7405263,23.1085965 C21.7405263,23.1013645 21.7405263,23.0939961 21.7403899,23.0867641 L21.7399805,23.0623392 L21.7105068,21.5688694 C21.7046394,19.7150292 20.335614,18.1759844 18.5553216,17.9037622 C18.3711111,17.875653 18.1826706,17.8609162 17.9906823,17.8609162 C15.9396686,17.8609162 14.2709942,19.5297271 14.2709942,21.572963 L14.2636257,22.6135478 C14.2636257,22.6138207 14.2636257,22.6140936 14.2636257,22.6143665 L14.2407018,25.8959064 C14.2407018,26.7304483 13.5617154,27.4095712 12.7273099,27.4095712 C11.892768,27.4095712 11.2136452,26.7304483 11.2136452,25.8959064 L11.2136452,22.6224172 L11.2136452,12.9706043 C11.2136452,12.361345 10.7196881,11.8675244 10.1105653,11.8675244 L2.59695906,11.8675244 C2.51795322,11.5349903 2.47810916,11.1933138 2.47810916,10.84577 C2.47810916,8.41255361 4.45762183,6.43304094 6.89083821,6.43304094 C7.07723197,6.43304094 7.27290448,6.4462768 7.47253411,6.47261209 C8.03662768,6.54602339 8.56401559,6.18019493 8.69159844,5.62606238 C9.15417154,3.6125731 10.9219103,2.2062963 12.9903899,2.2062963 C14.1967641,2.2062963 15.3237232,2.68524366 16.1635867,3.55471735 C16.4310331,3.83157895 16.8233333,3.94933723 17.1988499,3.86460039 C17.5200585,3.79255361 17.8469981,3.75584795 18.1705263,3.75584795 C19.3236842,3.75584795 20.4148928,4.19904483 21.2434308,5.00356725 C21.6515595,5.39996101 22.2937037,5.42070175 22.727076,5.0522807 C23.2820273,4.57988304 23.9888499,4.31966862 24.7175049,4.31966862 C26.2315789,4.31966862 27.5071345,5.4022807 27.7504288,6.89384016 C27.8478558,7.49068226 28.4067641,7.89758285 29.0055166,7.80670565 C29.1590253,7.78323587 29.3166277,7.77136452 29.4734113,7.77136452 C31.1685575,7.77136452 32.5475439,9.15048733 32.5475439,10.8456335 C32.5475439,11.1953606 32.4879142,11.5408577 32.3727485,11.8673879 L25.8707992,11.8673879 L25.8707992,11.8675244 Z M32.5785185,21.5192008 L26.9738791,21.5192008 L26.9738791,14.0736842 L32.2694542,14.0736842 C32.4188694,15.4833723 32.651384,18.2828265 32.5785185,21.5192008 Z" id="Shape"></path>
                    <path d="M30.1375244,65.427076 C30.1352047,65.3984211 30.1317934,65.3699025 30.1287914,65.3411111 C30.1223782,65.2769786 30.1146004,65.212846 30.1050487,65.1487135 C30.1001365,65.1165107 30.0950877,65.0844444 30.0896296,65.0522417 C30.078577,64.9881092 30.065614,64.9242495 30.0515595,64.8602534 C30.0452827,64.8317349 30.0395517,64.8032164 30.0325926,64.7746979 C30.0103509,64.6834113 29.9859259,64.5922612 29.9574074,64.5016569 C29.8949123,64.3027096 29.8343275,64.1063548 29.7740156,63.9102729 C29.7738791,63.91 29.7737427,63.9097271 29.7737427,63.9094542 C29.4832359,62.9654776 29.2172904,62.0531579 28.9750877,61.1696296 C28.9738596,61.1652632 28.9726316,61.1606238 28.9714035,61.1562573 C28.9130019,60.9432554 28.8562378,60.7320273 28.8007018,60.5223002 C28.7974269,60.5101559 28.7942885,60.4977388 28.7910136,60.4855945 C28.7372515,60.2820078 28.6847173,60.0800585 28.6335478,59.8796101 C28.6290448,59.8620078 28.6245419,59.844269 28.620039,59.8266667 C28.5702339,59.6312671 28.5216569,59.4370955 28.474308,59.244425 C28.4688499,59.2221832 28.4633918,59.2002144 28.4580702,59.1781092 C28.4116764,58.9888499 28.3666472,58.8008187 28.3225731,58.6142885 C28.3169786,58.5908187 28.3115205,58.5672125 28.3060624,58.5437427 C28.2626706,58.3584405 28.2203704,58.17423 28.1791618,57.9916569 C28.1738402,57.9683236 28.1687914,57.9451267 28.1636062,57.9219298 C28.1226706,57.7389474 28.0826901,57.557193 28.0440741,57.3766667 C28.0397076,57.3560624 28.0353411,57.3355945 28.0309747,57.3148538 C27.9918129,57.1309162 27.9536062,56.9479337 27.9169006,56.7665887 C27.9147173,56.7555361 27.9125341,56.7446199 27.9102144,56.7337037 C27.71154,55.7502924 27.5476608,54.8031774 27.4176218,53.887037 C27.3319298,53.2839181 26.7735673,52.8648733 26.1705848,52.949883 C26.1327875,52.9552047 26.0956725,52.9625731 26.0595127,52.9714425 C25.5164327,53.1053021 25.1525146,53.6315984 25.2327485,54.197193 C25.2768226,54.5077583 25.325809,54.822963 25.3773879,55.1404873 C25.3833918,55.1777388 25.3892593,55.2147173 25.3955361,55.2521053 C25.4181871,55.3901949 25.4419298,55.5291033 25.4659454,55.6685575 C25.4739961,55.7152242 25.4821832,55.7617544 25.4903704,55.8085575 C25.5149318,55.9478752 25.5399025,56.0876023 25.5658285,56.2281481 C25.5731969,56.2681287 25.5808382,56.3085185 25.5883431,56.3486355 C25.7106043,57.0036062 25.8480117,57.6735867 26.0011111,58.3598051 C26.0088889,58.3950097 26.0165302,58.4299415 26.0244444,58.4652827 C26.0595127,58.6209747 26.0953996,58.7776218 26.1319688,58.9350877 C26.1411111,58.9741131 26.1502534,59.0131384 26.1593957,59.0523002 C26.1973294,59.2144055 26.2360819,59.377193 26.2757895,59.5412086 C26.2811111,59.5633138 26.2865692,59.5852827 26.2920273,59.6073879 C26.5189474,60.5408577 26.7737037,61.5048928 27.0565692,62.5022222 C27.0591618,62.5117739 27.0620273,62.5211891 27.0646199,62.5307407 C27.1212476,62.7298246 27.178694,62.9304094 27.2376413,63.1323587 L7.70191033,63.1323587 C8.59185185,60.0808772 9.22785575,57.3260429 9.61892788,54.8102729 C9.62233918,54.7880312 9.62602339,54.765653 9.6294347,54.7435478 C9.65249513,54.5941326 9.67432749,54.445809 9.69561404,54.2981676 C9.70107212,54.2600975 9.70680312,54.2217544 9.71212476,54.1836842 C9.73150097,54.0464133 9.75005848,53.9102339 9.76793372,53.7744639 C9.77421053,53.7267057 9.78062378,53.6786745 9.78676413,53.6310526 C9.80327485,53.5025146 9.81910331,53.3745224 9.83424951,53.2472125 C9.84052632,53.1938596 9.84693957,53.1406433 9.85294347,53.0872904 C9.8671345,52.9646199 9.88064327,52.8423587 9.89360624,52.7209162 C9.89947368,52.6646979 9.90520468,52.6088889 9.91093567,52.5529435 C9.92294347,52.4338207 9.93481481,52.3149708 9.94559454,52.1968031 C9.95077973,52.1412671 9.9554191,52.0858674 9.96033138,52.0306043 C9.97070175,51.9124366 9.98079922,51.7945419 9.98994152,51.6774659 C9.99403509,51.6252047 9.99758285,51.5734893 10.0014035,51.5213645 C10.0102729,51.4018324 10.0188694,51.2821637 10.0263743,51.1638596 C10.0291033,51.1204678 10.031423,51.0776218 10.0338791,51.0345029 C10.041384,50.9077388 10.0488889,50.7811111 10.0548928,50.655575 C10.055575,50.641384 10.0561209,50.6274659 10.0566667,50.6134113 C10.0787719,50.145653 10.0905068,49.6866277 10.0920078,49.2360624 C10.0920078,49.2301949 10.0921442,49.2243275 10.0921442,49.21846 C10.0924172,49.0934698 10.091462,48.9694347 10.0902339,48.8456725 C10.089961,48.8097856 10.089961,48.7734893 10.0894152,48.7377388 C10.0877778,48.622846 10.0850487,48.5090448 10.0820468,48.3953801 C10.0808187,48.3515789 10.08,48.3076413 10.0786355,48.2638402 C10.0752242,48.1538596 10.0708577,48.0446979 10.0662183,47.935809 C10.064308,47.8896881 10.0623977,47.8432943 10.0602144,47.7973099 C10.0550292,47.6895127 10.0490253,47.5822612 10.0426121,47.4754191 C10.0397466,47.4298441 10.037154,47.3841326 10.0342885,47.3385575 C10.0273294,47.2317154 10.0195517,47.1254191 10.0113645,47.0195322 C10.0079532,46.9750487 10.004269,46.9307018 10.0005848,46.8866277 C9.99157895,46.7796491 9.98216374,46.6730799 9.97192982,46.5670565 C9.96797271,46.525848 9.96387914,46.4849123 9.95978558,46.4439766 C9.95309942,46.3788889 9.94736842,46.3131189 9.9402729,46.2483041 C9.93768031,46.2242885 9.93385965,46.2016374 9.9311306,46.1778947 C9.92744639,46.1458285 9.92444444,46.1133528 9.92062378,46.081423 C9.90875244,45.9796296 9.89278752,45.8819298 9.87968811,45.7813645 C9.8577193,45.6135283 9.83670565,45.4448733 9.81159844,45.2805848 C9.79167641,45.1506823 9.76861598,45.0244639 9.74678363,44.8970175 C9.7208577,44.7458285 9.69602339,44.5934113 9.66736842,44.4452242 C9.64116959,44.3091813 9.61155945,44.1769591 9.58317739,44.0432359 C9.55438596,43.9080117 9.52682261,43.771423 9.49598441,43.638655 C9.46309942,43.4968811 9.42666667,43.3589279 9.39132554,43.2197466 C9.36076023,43.0995322 9.331423,42.9778168 9.29908382,42.8595127 C9.25883041,42.7121442 9.21530214,42.56846 9.17245614,42.4238207 C9.14107212,42.3182066 9.11132554,42.2110916 9.078577,42.1069786 C9.03081871,41.954425 8.97992203,41.8059649 8.92929825,41.6565497 C8.89791423,41.5641715 8.86816764,41.4700195 8.83596491,41.3788694 C8.7805653,41.2219493 8.72202729,41.0688499 8.66376218,40.9154776 C8.63346979,40.8355166 8.60440546,40.7537817 8.57329435,40.6749123 C8.51011696,40.5138986 8.44380117,40.3565692 8.37789474,40.1992398 C8.34910331,40.1307407 8.32153996,40.0606043 8.29220273,39.9927875 C8.22124756,39.8286355 8.14783626,39.6678947 8.07401559,39.5075634 C8.04727096,39.4491618 8.02134503,39.3892593 7.99419103,39.3314035 C7.91545809,39.1638402 7.83440546,38.9995517 7.75307992,38.8359454 C7.72892788,38.7875049 7.70586745,38.7378363 7.68157895,38.6898051 C7.59547758,38.5195127 7.50732943,38.3523587 7.41863548,38.1858869 C7.39748538,38.1461793 7.37701754,38.1053801 7.35573099,38.065809 C7.26253411,37.8927875 7.16729045,37.7229045 7.07150097,37.5539766 C7.05376218,37.5224561 7.03643275,37.4902534 7.0185575,37.4590058 C6.91812865,37.2832554 6.81633528,37.1102339 6.71385965,36.9384405 C6.69994152,36.9151072 6.6862963,36.8909552 6.67224172,36.8677583 C6.56267057,36.6850487 6.45187135,36.5049318 6.34025341,36.3263158 C6.33288499,36.3147173 6.32578947,36.3025731 6.3185575,36.2908382 C6.08017544,35.9098635 5.83824561,35.5374854 5.59508772,35.1723392 C5.38413255,34.8553606 5.03754386,34.6827485 4.68331384,34.6801559 C4.47072125,34.678655 4.25553606,34.7384211 4.06545809,34.8650487 C3.55826511,35.2026316 3.4208577,35.8873489 3.75830409,36.3945419 C4.78387914,37.93577 5.66167641,39.4270565 6.34134503,41.0339181 C6.36249513,41.0845419 6.38323587,41.1354386 6.40411306,41.1863353 C6.44436647,41.2838986 6.48311891,41.3824172 6.52187135,41.4807992 C8.34992203,46.1600195 8.69269006,52.4478752 5.16471735,63.9110916 C5.1645809,63.9113645 5.16444444,63.9116374 5.16444444,63.9119103 C5.10413255,64.1079922 5.04368421,64.304347 4.98105263,64.5032943 C4.95253411,64.5938986 4.92810916,64.6850487 4.90586745,64.7764717 C4.89890838,64.8048538 4.89317739,64.8333723 4.88703704,64.8617544 C4.87298246,64.9257505 4.86001949,64.989883 4.84896686,65.054152 C4.84350877,65.0860819 4.83832359,65.1180117 4.83354776,65.150078 C4.8239961,65.214347 4.81621832,65.278616 4.80966862,65.342885 C4.80666667,65.3714035 4.80325536,65.399922 4.80093567,65.428577 C4.79356725,65.5202729 4.78838207,65.6118324 4.7874269,65.7033918 C4.78619883,65.8019103 4.78974659,65.9000195 4.79561404,65.9979922 C4.79738791,66.0261014 4.7997076,66.0540741 4.80189084,66.0819103 C4.80789474,66.1575049 4.81621832,66.2326901 4.82658869,66.3077388 C4.83,66.3325731 4.83272904,66.3574074 4.83668616,66.3822417 C4.85169591,66.4784405 4.8697076,66.5739571 4.89167641,66.6687914 C4.89576998,66.6863938 4.90095517,66.7035867 4.90518519,66.7213255 C4.92442495,66.8000585 4.94625731,66.8779727 4.97013645,66.9554776 C4.9788694,66.9833138 4.98760234,67.0110136 4.99688109,67.0387135 C5.02267057,67.1156725 5.05050682,67.1919493 5.08079922,67.2675439 C5.08775828,67.2846004 5.09362573,67.3017934 5.1008577,67.3188499 C5.13865497,67.4094542 5.1802729,67.4988304 5.22475634,67.587115 C5.23635478,67.610039 5.24890838,67.6325536 5.26091618,67.6553411 C5.29680312,67.7232943 5.33460039,67.7905653 5.37444444,67.8568811 C5.38945419,67.8818519 5.40432749,67.9070955 5.41988304,67.9317934 C5.47296296,68.0161209 5.52808967,68.0994932 5.5877193,68.1808187 C5.58840156,68.1819103 5.58908382,68.1828655 5.58976608,68.1839571 C5.63493177,68.2456335 5.6820078,68.3052632 5.72990253,68.3638012 C5.74436647,68.3812671 5.75923977,68.3981871 5.7737037,68.4153801 C5.80808967,68.4559064 5.84315789,68.4961598 5.87890838,68.5351852 C5.89651072,68.554425 5.91438596,68.5733918 5.93226121,68.5922222 C5.96760234,68.6293372 6.00348928,68.6656335 6.03978558,68.7012476 C6.05725146,68.7183041 6.07444444,68.7356335 6.09231969,68.7522807 C6.13680312,68.7941715 6.18224172,68.8349708 6.22822612,68.8748148 C6.23805068,68.8834113 6.24760234,68.8924172 6.25769981,68.9008772 C6.31405458,68.9486355 6.37163743,68.9946199 6.43017544,69.0389669 C6.44559454,69.0507018 6.46155945,69.0616179 6.47711501,69.0730799 C6.52077973,69.1052827 6.5648538,69.1368031 6.60974659,69.1670955 C6.63076023,69.181423 6.65204678,69.1950682 6.67346979,69.2088499 C6.71481481,69.235731 6.75670565,69.2617934 6.7991423,69.287037 C6.82097466,69.3 6.84253411,69.3130994 6.86463938,69.325653 C6.91130604,69.3522612 6.95851852,69.3777778 7.0060039,69.4026121 C7.02346979,69.4117544 7.04066277,69.4214425 7.05840156,69.4303119 C7.12335283,69.462924 7.18925926,69.4941715 7.25612086,69.5232359 C7.26908382,69.5288304 7.28218324,69.5338791 7.29528265,69.5392008 C7.34959064,69.5621248 7.40430799,69.58423 7.45957115,69.6048343 C7.48276803,69.6135673 7.50651072,69.6216179 7.52984405,69.6298051 C7.57651072,69.6461793 7.62317739,69.6618713 7.67038986,69.6766082 C7.69536062,69.684386 7.72033138,69.6920273 7.74557505,69.6993957 C7.7945614,69.7137232 7.84382066,69.7268226 7.89335283,69.7391033 C7.91586745,69.7446979 7.93824561,69.7507018 7.96089669,69.7560234 C8.03212476,69.7726706 8.10389864,69.7878168 8.17635478,69.8006433 C8.28265107,69.8194737 8.3908577,69.8327096 8.49947368,69.8433528 C8.52635478,69.8459454 8.55350877,69.8484016 8.58052632,69.8504483 C8.6894152,69.8587719 8.79871345,69.8647758 8.90923977,69.8647758 L26.0288109,69.8647758 C26.1394737,69.8647758 26.2486355,69.8589084 26.3575244,69.8504483 C26.3845419,69.8484016 26.4115595,69.8460819 26.438577,69.8433528 C26.5473294,69.8327096 26.6552632,69.8194737 26.7616959,69.8006433 C26.8340156,69.7878168 26.9057895,69.7726706 26.9770175,69.7560234 C26.9996686,69.7507018 27.0220468,69.7446979 27.0445614,69.7391033 C27.0940936,69.7266862 27.1433528,69.7137232 27.1922027,69.6993957 C27.2173099,69.6920273 27.2425536,69.684386 27.2675244,69.6766082 C27.3147368,69.6618713 27.36154,69.6461793 27.4080702,69.6298051 C27.43154,69.6216179 27.4551462,69.6134308 27.4783431,69.6048343 C27.5336062,69.58423 27.5883236,69.5621248 27.6426316,69.5392008 C27.6555945,69.5337427 27.6688304,69.528694 27.6817934,69.5232359 C27.7485185,69.4941715 27.814425,69.4630604 27.8795127,69.4303119 C27.897115,69.4214425 27.914308,69.4117544 27.9319103,69.4026121 C27.9793957,69.3779142 28.0266082,69.3522612 28.0732749,69.325653 C28.0952437,69.312963 28.1169396,69.3 28.1387719,69.287037 C28.1810721,69.2617934 28.222963,69.235731 28.2644444,69.2088499 C28.285731,69.1950682 28.3070175,69.1811501 28.3281676,69.1670955 C28.3730604,69.1368031 28.4171345,69.1052827 28.4607992,69.0730799 C28.4763548,69.0616179 28.4923197,69.0505653 28.5077388,69.0389669 C28.5662768,68.9944834 28.6239961,68.948499 28.6802144,68.9008772 C28.6901754,68.8925536 28.6995906,68.8834113 28.7096881,68.8748148 C28.7556725,68.8349708 28.8011111,68.7941715 28.8455945,68.7522807 C28.8631969,68.7356335 28.8803899,68.7184405 28.8979922,68.701384 C28.934425,68.6656335 28.9704483,68.6293372 29.0057895,68.5920858 C29.0235283,68.5732554 29.0414035,68.5542885 29.0590058,68.5351852 C29.0947563,68.4960234 29.1296881,68.4560429 29.1642105,68.4153801 C29.1788109,68.3981871 29.1938207,68.3812671 29.2080117,68.3638012 C29.2559064,68.3052632 29.3029825,68.2454971 29.3481481,68.1839571 C29.3488304,68.1828655 29.3495127,68.1819103 29.3501949,68.1808187 C29.4098246,68.0994932 29.4650877,68.0161209 29.5180312,67.9317934 C29.5335867,67.9069591 29.54846,67.8819883 29.5634698,67.8568811 C29.6033138,67.7905653 29.6411111,67.7232943 29.6769981,67.6553411 C29.6890058,67.6325536 29.7015595,67.610039 29.7131579,67.587115 C29.7577778,67.4988304 29.7992593,67.4094542 29.8370565,67.3188499 C29.844152,67.3019298 29.8501559,67.2846004 29.857115,67.2675439 C29.8874074,67.1919493 29.9155166,67.1156725 29.9410331,67.0387135 C29.9503119,67.0110136 29.9593177,66.9833138 29.9677778,66.9554776 C29.9919298,66.8779727 30.0134893,66.799922 30.032729,66.7213255 C30.0369591,66.7038596 30.0421442,66.6865302 30.0462378,66.6687914 C30.0682066,66.5739571 30.0862183,66.4783041 30.1012281,66.3822417 C30.1050487,66.3574074 30.1079142,66.3325731 30.1113255,66.3076023 C30.1215595,66.2325536 30.129883,66.1573684 30.1360234,66.0817739 C30.1382066,66.0538012 30.1406628,66.025692 30.1423002,65.9978558 C30.1481676,65.899883 30.1517154,65.8017739 30.1504873,65.7032554 C30.1499415,65.6104678 30.1448928,65.5187719 30.1375244,65.427076 Z M27.6330799,66.7805458 C27.6120663,66.812885 27.5926901,66.8460429 27.5694932,66.8772904 C27.5285575,66.9330994 27.484347,66.9852242 27.4386355,67.0357115 C27.4251267,67.0507212 27.4107992,67.0647758 27.3968811,67.0793762 C27.3620858,67.1153996 27.3261988,67.1497856 27.2889474,67.1826706 C27.2740741,67.19577 27.2593372,67.2092788 27.2440546,67.2219688 C27.1410331,67.3073879 27.0302339,67.3810721 26.912885,67.4423392 C26.8955556,67.4514815 26.8776803,67.4596686 26.860078,67.4681287 C26.8158674,67.4894152 26.7708382,67.5090643 26.7248538,67.5268031 C26.7065692,67.5338986 26.6884211,67.5414035 26.6698635,67.5478168 C26.607232,67.569922 26.5435088,67.5898441 26.4784211,67.6052632 C26.3335088,67.6396491 26.1832749,67.6575244 26.0293567,67.6575244 L8.90978558,67.6575244 L8.90978558,67.6573879 C8.75614035,67.6573879 8.60563353,67.6396491 8.46072125,67.6051267 C8.39549708,67.5897076 8.33191033,67.5696491 8.26927875,67.5476803 C8.25072125,67.5412671 8.23270955,67.5337622 8.2142885,67.5266667 C8.16844055,67.5089279 8.12341131,67.4892788 8.07906433,67.4679922 C8.06146199,67.4593957 8.04358674,67.4512086 8.02625731,67.4422027 C7.90877193,67.3810721 7.79783626,67.307115 7.69481481,67.2218324 C7.67966862,67.2091423 7.66493177,67.19577 7.65005848,67.1826706 C7.61280702,67.1497856 7.57678363,67.1152632 7.5419883,67.0792398 C7.52807018,67.0647758 7.51387914,67.0505848 7.50023392,67.0357115 C7.45452242,66.9853606 7.41017544,66.9332359 7.36937622,66.8772904 C7.34631579,66.84577 7.32666667,66.812885 7.30578947,66.7805458 C7.02701754,66.3496296 6.93354776,65.8380702 7.04216374,65.3381092 L27.8965692,65.3381092 C28.0054581,65.8380702 27.9118519,66.3496296 27.6330799,66.7805458 Z" id="Shape"></path>
                </g>
            </g>
        </g>
    </g>
</svg>