<?xml version="1.0" encoding="UTF-8"?>
<svg width="74px" height="70px" viewBox="0 0 74 70" version="1.1" xmlns="http://www.w3.org/2000/svg" xmlns:xlink="http://www.w3.org/1999/xlink">
    <!-- Generator: sketchtool 46.2 (44496) - http://www.bohemiancoding.com/sketch -->
    <title>E8D17AE2-3056-4FCE-B771-55242F0D129D</title>
    <desc>Created with sketchtool.</desc>
    <defs></defs>
    <g id="Wapik" stroke="none" stroke-width="1" fill="none" fill-rule="evenodd">
        <g id="CONF-1440" transform="translate(-685.000000, -3612.000000)" fill-rule="nonzero">
            <g id="WHOM-INTERESTED" transform="translate(0.000000, 3327.000000)">
                <g id="two-column" transform="translate(135.000000, 263.000000)">
                    <g id="target-3" transform="translate(550.000000, 22.000000)">
                        <path d="M2.52777778,2.40740741 L15.1666667,2.40740741 L15.1666667,0 L1.26388889,0 C0.56590625,0 0,0.538958333 0,1.2037037 L0,14.4444444 L2.52777778,14.4444444 L2.52777778,2.40740741 Z" id="Shape" fill="#055574"></path>
                        <path d="M73.5,14.4444444 L73.5,1.2037037 C73.5,0.538958333 72.9340937,0 72.2361111,0 L58.3333333,0 L58.3333333,2.40740741 L70.9722222,2.40740741 L70.9722222,14.4444444 L73.5,14.4444444 Z" id="Shape" fill="#055574"></path>
                        <path d="M1.26388889,70 L15.1666667,70 L15.1666667,67.5925926 L2.52777778,67.5925926 L2.52777778,55.5555556 L0,55.5555556 L0,68.7962963 C0,69.4610417 0.56590625,70 1.26388889,70 Z" id="Shape" fill="#055574"></path>
                        <path d="M58.3333333,67.5925926 L58.3333333,70 L72.2361111,70 C72.9340937,70 73.5,69.4610417 73.5,68.7962963 L73.5,55.5555556 L70.9722222,55.5555556 L70.9722222,67.5925926 L58.3333333,67.5925926 Z" id="Shape" fill="#055574"></path>
                        <path d="M35.525,67.6375 L35.525,70 L37.975,70 L37.975,67.6375 C55.9434531,67.0069167 70.3572625,53.2794792 71.019375,36.1666667 L73.5,36.1666667 L73.5,33.8333333 L71.019375,33.8333333 C70.3572625,16.7205208 55.9434531,2.99308333 37.975,2.3625 L37.975,0 L35.525,0 L35.525,2.3625 C17.5565469,2.99308333 3.1427375,16.7205208 2.480625,33.8333333 L0,33.8333333 L0,36.1666667 L2.480625,36.1666667 C3.1427375,53.2794792 17.5565469,67.0069167 35.525,67.6375 Z M18.839275,30.793 L23.217425,33.2955 C22.7262,36.1515 19.030375,38.5 17.15,38.5 C14.4177906,38.0568125 12.1449562,36.2524167 11.195275,33.7726667 C13.292475,33.6081667 17.07895,33.0026667 18.839275,30.793 Z M11.092375,31.4335 C11.420675,27.5228333 13.3525,25.6666667 17.15,25.6666667 C20.62655,25.6666667 22.54,27.2323333 23.087575,30.499 L19.005875,28.1656667 C18.4256844,27.8341875 17.6732281,28.0134167 17.325175,28.5659792 C17.2792375,28.6388958 17.241875,28.7161875 17.2137,28.7968333 C16.59385,30.5666667 13.24715,31.2375 11.092375,31.4323333 L11.092375,31.4335 Z M17.15,42.8073333 L18.16185,45.2188333 L17.15,46.1836667 L16.13815,45.2188333 L17.15,42.8073333 Z M15.340675,40.8333333 L13.5632,45.066 C13.3811344,45.4995625 13.4881687,45.9948125 13.83515,46.3248333 L16.28515,48.6581667 C16.7635125,49.1136042 17.5389375,49.1136042 18.0173,48.6581667 L20.4673,46.3248333 C20.8142812,45.9948125 20.9213156,45.4995625 20.73925,45.066 L18.959325,40.8333333 L21.6825,40.8333333 C23.9150625,40.8333333 25.725,42.5570833 25.725,44.6833333 L25.725,52.5 L10.759175,52.5 C9.95435,51.4187917 9.2248625,50.2885833 8.575,49.1166667 L8.575,44.6833333 C8.575,42.5570833 10.3849375,40.8333333 12.6175,40.8333333 L15.340675,40.8333333 L15.340675,40.8333333 Z M38.439275,23.793 L42.817425,26.2955 C42.3262,29.1515 38.630375,31.5 36.75,31.5 C34.0177906,31.0568125 31.7449562,29.2524167 30.795275,26.7726667 C32.892475,26.6081667 36.67895,26.0026667 38.439275,23.793 Z M30.692375,24.4335 C31.020675,20.5228333 32.9525,18.6666667 36.75,18.6666667 C40.22655,18.6666667 42.14,20.2323333 42.687575,23.499 L38.605875,21.1656667 C38.0256844,20.8341875 37.2732281,21.0134167 36.925175,21.5659792 C36.8792375,21.6388958 36.841875,21.7161875 36.8137,21.7968333 C36.19385,23.5666667 32.84715,24.2375 30.692375,24.4323333 L30.692375,24.4335 Z M36.75,35.8073333 L37.76185,38.2188333 L36.75,39.1836667 L35.73815,38.2188333 L36.75,35.8073333 Z M34.940675,33.8333333 L33.1632,38.066 C32.9811344,38.4995625 33.0881687,38.9948125 33.43515,39.3248333 L35.88515,41.6581667 C36.3635125,42.1136042 37.1389375,42.1136042 37.6173,41.6581667 L40.0673,39.3248333 C40.4142812,38.9948125 40.5213156,38.4995625 40.33925,38.066 L38.559325,33.8333333 L41.2825,33.8333333 C43.5150625,33.8333333 45.325,35.5570833 45.325,37.6833333 L45.325,45.5 L28.175,45.5 L28.175,37.6833333 C28.175,35.5570833 29.9849375,33.8333333 32.2175,33.8333333 L34.940675,33.8333333 Z M58.039275,30.793 L62.417425,33.2955 C61.9262,36.1515 58.230375,38.5 56.35,38.5 C53.6177906,38.0568125 51.3449562,36.2524167 50.395275,33.7726667 C52.492475,33.6081667 56.27895,33.0026667 58.039275,30.793 L58.039275,30.793 Z M50.292375,31.4335 C50.620675,27.5228333 52.5525,25.6666667 56.35,25.6666667 C59.82655,25.6666667 61.74,27.2323333 62.287575,30.499 L58.205875,28.1656667 C57.6256844,27.8341875 56.8732281,28.0134167 56.525175,28.5659792 C56.4792375,28.6388958 56.441875,28.7161875 56.4137,28.7968333 C55.79385,30.5666667 52.44715,31.2375 50.292375,31.4323333 L50.292375,31.4335 Z M56.35,42.8073333 L57.36185,45.2188333 L56.35,46.1836667 L55.33815,45.2188333 L56.35,42.8073333 Z M54.540675,40.8333333 L52.7632,45.066 C52.5811344,45.4995625 52.6881688,45.9948125 53.03515,46.3248333 L55.48515,48.6581667 C55.9635125,49.1136042 56.7389375,49.1136042 57.2173,48.6581667 L59.6673,46.3248333 C60.0142812,45.9948125 60.1213156,45.4995625 59.93925,45.066 L58.159325,40.8333333 L60.8825,40.8333333 C63.1150625,40.8333333 64.925,42.5570833 64.925,44.6833333 L64.925,49.1166667 C64.2751375,50.2885833 63.54565,51.4187917 62.740825,52.5 L47.775,52.5 L47.775,44.6833333 C47.775,42.5570833 49.5849375,40.8333333 51.8175,40.8333333 L54.540675,40.8333333 Z M37.975,65.3041667 L37.975,63 L35.525,63 L35.525,65.3041667 C26.7154125,64.9823125 18.4422219,61.1899167 12.682425,54.8333333 L26.95,54.8333333 C27.6265063,54.8333333 28.175,54.3109583 28.175,53.6666667 L28.175,47.8333333 L45.325,47.8333333 L45.325,53.6666667 C45.325,54.3109583 45.8734938,54.8333333 46.55,54.8333333 L60.817575,54.8333333 C55.0577781,61.1899167 46.7845875,64.9823125 37.975,65.3041667 Z M35.525,4.69583333 L35.525,7 L37.975,7 L37.975,4.69583333 C54.5913594,5.32291667 67.9109375,18.0082292 68.569375,33.8333333 L66.15,33.8333333 L66.15,36.1666667 L68.569375,36.1666667 C68.4696906,38.7037292 68.0342031,41.2187708 67.273325,43.652 C66.8076719,40.9625417 64.5356031,38.887625 61.694675,38.5571667 C63.6065937,37.1242083 64.7825937,34.979875 64.925,32.6666667 C64.925,24.9526667 60.261425,23.3333333 56.35,23.3333333 C52.438575,23.3333333 47.775,24.9526667 47.775,32.6666667 C47.9174062,34.979875 49.0934062,37.1242083 51.005325,38.5571667 C50.0084812,38.6739792 49.0539,39.0104167 48.217225,39.5395 C48.06165,39.6386667 47.91955,39.7495 47.775,39.8603333 L47.775,37.6833333 C47.7815844,34.566 45.3432219,31.934875 42.094675,31.5536667 C44.005675,30.1214375 45.1815219,27.9785625 45.325,25.6666667 C45.325,17.9526667 40.661425,16.3333333 36.75,16.3333333 C32.838575,16.3333333 28.175,17.9526667 28.175,25.6666667 C28.3174062,27.979875 29.4934062,30.1242083 31.405325,31.5571667 C28.1581562,31.9382292 25.7202531,34.5673125 25.725,37.6833333 L25.725,39.8556667 C25.58045,39.746 25.43835,39.634 25.282775,39.5348333 C24.4461,39.00575 23.4915187,38.6693125 22.494675,38.5525 C24.4053687,37.1205625 25.5812156,34.9782708 25.725,32.6666667 C25.725,24.9526667 21.061425,23.3333333 17.15,23.3333333 C13.238575,23.3333333 8.575,24.9526667 8.575,32.6666667 C8.71740625,34.979875 9.89340625,37.1242083 11.805325,38.5571667 C8.96439687,38.887625 6.69232812,40.9625417 6.226675,43.652 C5.46579687,41.2187708 5.03030937,38.7037292 4.930625,36.1666667 L7.35,36.1666667 L7.35,33.8333333 L4.930625,33.8333333 C5.5890625,18.0082292 18.9086406,5.32291667 35.525,4.69583333 Z" id="Shape" fill="#00A54F"></path>
                    </g>
                </g>
            </g>
        </g>
    </g>
</svg>