<?xml version="1.0" encoding="UTF-8"?>
<svg width="70px" height="70px" viewBox="0 0 70 70" version="1.1" xmlns="http://www.w3.org/2000/svg" xmlns:xlink="http://www.w3.org/1999/xlink">
    <!-- Generator: sketchtool 46.2 (44496) - http://www.bohemiancoding.com/sketch -->
    <title>1DC04D22-9D43-4107-AF84-12C1A8BF5EFD</title>
    <desc>Created with sketchtool.</desc>
    <defs></defs>
    <g id="Wapik" stroke="none" stroke-width="1" fill="none" fill-rule="evenodd">
        <g id="CONF-1440" transform="translate(-1079.000000, -3612.000000)" fill-rule="nonzero">
            <g id="WHOM-INTERESTED" transform="translate(0.000000, 3327.000000)">
                <g id="two-column" transform="translate(135.000000, 263.000000)">
                    <g id="growth" transform="translate(944.000000, 22.000000)">
                        <path d="M19.7982121,4.66002079 C11.4392516,4.66002079 4.66307692,11.4361954 4.66307692,19.7951559 C4.66307692,28.1541164 11.4392516,34.9302911 19.7982121,34.9302911 C28.1571726,34.9302911 34.9333472,28.1541164 34.9333472,19.7951559 C34.9235967,11.4402703 28.1530977,4.66962578 19.7982121,4.66002079 Z M19.7982121,32.6018087 C12.7253015,32.6018087 6.99155925,26.8680665 6.99170478,19.7950104 C6.99170478,12.7220998 12.725447,6.98835759 19.7983576,6.98850312 C26.3668607,6.98850312 31.8703742,11.957921 32.5385031,18.4923701 L15.723368,28.0985239 L16.8782952,30.1196466 L32.5268607,21.1806029 C31.8127443,27.6743035 26.3309148,32.5929314 19.7982121,32.6018087 Z" id="Shape" fill="#00A54F"></path>
                        <path d="M68.696341,0.00305613306 L61.710894,0.00305613306 L61.710894,2.33153846 L65.8858628,2.33153846 L59.1495634,9.06434511 L55.2458628,7.11074844 C54.8201871,6.8981289 54.3080665,6.96594595 53.9523909,7.28189189 L44.1448233,15.9997297 L41.4007069,14.1695426 C41.0336798,13.9249064 40.5599792,13.9087526 40.1770894,14.1276299 L38.9360083,14.8366528 C36.2013514,4.25995842 25.4104366,-2.09723493 14.8338877,0.637422037 C4.25733888,3.372079 -2.10014553,14.1629938 0.634511435,24.7396881 C2.57035343,32.2270686 8.69237006,37.8996881 16.305343,39.260104 L16.305343,41.915738 L13.9768607,41.915738 C13.3339085,41.915738 12.8126195,42.437027 12.8126195,43.0799792 L12.8126195,47.7369439 C12.8126195,48.379896 13.3339085,48.901185 13.9768607,48.901185 L13.9768607,64.0363202 C13.9768607,67.2512266 16.5831601,69.857526 19.7980665,69.857526 C23.012973,69.857526 25.6192723,67.2512266 25.6192723,64.0363202 L25.6192723,48.901185 C26.2622245,48.901185 26.7835135,48.379896 26.7835135,47.7369439 L26.7835135,43.0799792 C26.7835135,42.437027 26.2622245,41.915738 25.6192723,41.915738 L23.29079,41.915738 L23.29079,39.260104 C33.7199168,37.4700832 40.8503119,27.7317879 39.4073805,17.2489605 L40.7078378,16.5061746 L43.6009771,18.4353222 C44.0414969,18.7288565 44.6246362,18.6881081 45.0201871,18.3363617 L54.9092516,9.54634096 L58.8618503,11.5255509 C59.3099376,11.7495218 59.8510187,11.6619127 60.2053846,11.3078378 L67.5319543,3.97777547 L67.5319543,8.15274428 L69.8604366,8.15274428 L69.8604366,1.1672973 C69.8605821,0.524345114 69.3392931,0.00305613306 68.696341,0.00305613306 Z M23.2909356,64.0363202 C23.2909356,65.9653222 21.7272141,67.5290437 19.7982121,67.5290437 C17.86921,67.5290437 16.3054886,65.9653222 16.3054886,64.0363202 L16.3054886,48.901185 L23.2909356,48.901185 L23.2909356,64.0363202 Z M24.4551767,44.2442204 L24.4551767,46.5727027 L15.1412474,46.5727027 L15.1412474,44.2442204 L24.4551767,44.2442204 Z M18.6339709,41.915738 L18.6339709,39.5278794 C19.0216632,39.5511642 19.4046985,39.5872557 19.7982121,39.5872557 C20.1917256,39.5872557 20.5747609,39.5511642 20.9624532,39.5278794 L20.9624532,41.915738 L18.6339709,41.915738 Z M19.7982121,37.2587734 C10.1533472,37.2587734 2.33459459,29.4400208 2.33459459,19.7951559 C2.33459459,10.1502911 10.1533472,2.33153846 19.7982121,2.33153846 C29.4430769,2.33153846 37.2618295,10.1502911 37.2618295,19.7951559 C37.2514969,29.4358004 29.438711,37.2485863 19.7982121,37.2587734 Z" id="Shape" fill="#00A54F"></path>
                        <path d="M68.696341,12.8097089 L59.3824116,12.8097089 C58.7394595,12.8097089 58.2181705,13.3309979 58.2181705,13.9739501 L58.2181705,25.6163617 L50.0684823,25.6163617 C49.4255301,25.6163617 48.9042412,26.1376507 48.9042412,26.7806029 L48.9042412,31.4375676 L40.754553,31.4375676 C40.1116008,31.4375676 39.5903119,31.9588565 39.5903119,32.6018087 L39.5903119,46.5727027 L31.4406237,46.5727027 C30.7976715,46.5727027 30.2763825,47.0939917 30.2763825,47.7369439 L30.2763825,68.6932848 C30.2763825,69.336237 30.7976715,69.857526 31.4406237,69.857526 L68.696341,69.857526 C69.3392931,69.857526 69.8605821,69.336237 69.8605821,68.6932848 L69.8605821,13.9739501 C69.8605821,13.3309979 69.3392931,12.8097089 68.696341,12.8097089 Z M39.5903119,67.5290437 L32.6048649,67.5290437 L32.6048649,48.901185 L39.5903119,48.901185 L39.5903119,67.5290437 Z M48.9042412,67.5290437 L41.9187942,67.5290437 L41.9187942,47.7369439 L41.9187942,33.7660499 L48.9042412,33.7660499 L48.9042412,67.5290437 Z M58.2181705,67.5290437 L51.2327235,67.5290437 L51.2327235,32.6018087 L51.2327235,27.9448441 L58.2181705,27.9448441 L58.2181705,67.5290437 Z M67.5320998,67.5290437 L60.5466528,67.5290437 L60.5466528,15.1381913 L67.5320998,15.1381913 L67.5320998,67.5290437 Z" id="Shape" fill="#055574"></path>
                    </g>
                </g>
            </g>
        </g>
    </g>
</svg>