<?xml version="1.0" encoding="UTF-8"?>
<svg width="70px" height="70px" viewBox="0 0 70 70" version="1.1" xmlns="http://www.w3.org/2000/svg" xmlns:xlink="http://www.w3.org/1999/xlink">
    <!-- Generator: sketchtool 46.2 (44496) - http://www.bohemiancoding.com/sketch -->
    <title>171B6425-C7B0-4CD2-93C7-EDD28723A028</title>
    <desc>Created with sketchtool.</desc>
    <defs></defs>
    <g id="Wapik" stroke="none" stroke-width="1" fill="none" fill-rule="evenodd">
        <g id="CONF-1440" transform="translate(-296.000000, -3612.000000)" fill-rule="nonzero">
            <g id="WHOM-INTERESTED" transform="translate(0.000000, 3327.000000)">
                <g id="two-column" transform="translate(135.000000, 263.000000)">
                    <g id="padlock-3" transform="translate(161.000000, 22.000000)">
                        <path d="M55.2304147,60.1836667 L50.8025806,55.7876667 C52.9095622,51.9703333 54.0552995,47.8508333 54.0552995,43.631 L54.0552995,43.1666667 L56.40553,43.1666667 L56.40553,40.8333333 L54.0552995,40.8333333 L54.0552995,30.3333333 C54.0552995,29.6893333 53.530023,29.1666667 52.8801843,29.1666667 L44.6543779,29.1666667 L44.6543779,22.1666667 C44.6543779,21.5226667 44.1291014,21 43.4792627,21 L39.9539171,21 L39.9539171,17.5 C39.9539171,7.8505 32.0465668,0 22.3271889,0 C12.6078111,0 4.70046083,7.8505 4.70046083,17.5 L4.70046083,21 L1.17511521,21 C0.525276498,21 0,21.5226667 0,22.1666667 L0,30.3333333 L0,36.1666667 L0,42 L0,47.8333333 L0,53.6666667 L0,57.1666667 C0,60.3831667 2.63578341,63 5.87557604,63 L25.2238479,63 C27.8643318,65.6016667 31.0441935,67.9256667 34.7011521,69.8623333 C34.873894,69.9545 35.0630876,70 35.2534562,70 C35.4438249,70 35.6330184,69.9545 35.8069355,69.8623333 C41.7377419,66.7216667 46.4135253,62.5648333 49.5534332,57.8456667 L53.5688018,61.8333333 L49.3548387,61.8333333 L49.3548387,64.1666667 L56.40553,64.1666667 C57.0553687,64.1666667 57.5806452,63.644 57.5806452,63 L57.5806452,56 L55.2304147,56 L55.2304147,60.1836667 Z M51.7050691,43.631 C51.7050691,47.2301667 50.7837788,50.7605 49.0704608,54.0668333 L47.0234101,52.0345 C48.2878341,49.2683333 49.0763364,46.2746667 49.2925576,43.1655 L51.7050691,43.1655 L51.7050691,43.631 Z M47.0046083,40.8333333 L35.2534562,40.8333333 C34.7787097,40.8333333 34.3486175,41.118 34.1676498,41.5531667 C33.9855069,41.9895 34.0865668,42.4911667 34.4226498,42.8248333 L44.1702304,52.5023333 C42.1349309,56.2531667 39.086682,59.4498333 35.2534562,61.6618333 C27.9877189,57.47 23.5023041,49.7583333 23.5023041,41.3828333 L23.5023041,36.1666667 L47.0046083,36.1666667 L47.0046083,40.8333333 Z M38.0901843,43.1666667 L46.930576,43.1666667 C46.7413825,45.6365 46.165576,48.0293333 45.2431106,50.267 L38.0901843,43.1666667 Z M7.05069124,17.5 C7.05069124,9.13733333 13.9039631,2.33333333 22.3271889,2.33333333 C30.7504147,2.33333333 37.6036866,9.13733333 37.6036866,17.5 L37.6036866,21 L34.078341,21 L34.078341,17.5 C34.078341,11.067 28.8067742,5.83333333 22.3271889,5.83333333 C15.8476037,5.83333333 10.5760369,11.067 10.5760369,17.5 L10.5760369,21 L7.05069124,21 L7.05069124,17.5 Z M31.7281106,21 L12.9262673,21 L12.9262673,17.5 C12.9262673,12.3538333 17.1437558,8.16666667 22.3271889,8.16666667 C27.5106221,8.16666667 31.7281106,12.3538333 31.7281106,17.5 L31.7281106,21 Z M2.35023041,43.1666667 L9.40092166,43.1666667 L9.40092166,46.6666667 L2.35023041,46.6666667 L2.35023041,43.1666667 Z M9.40092166,40.8333333 L2.35023041,40.8333333 L2.35023041,37.3333333 L9.40092166,37.3333333 L9.40092166,40.8333333 Z M2.35023041,49 L9.40092166,49 L9.40092166,52.5 L2.35023041,52.5 L2.35023041,49 Z M9.40092166,35 L2.35023041,35 L2.35023041,31.5 L9.40092166,31.5 L9.40092166,35 Z M5.87557604,60.6666667 C3.93193548,60.6666667 2.35023041,59.0963333 2.35023041,57.1666667 L2.35023041,54.8333333 L10.5760369,54.8333333 C11.2258756,54.8333333 11.7511521,54.3106667 11.7511521,53.6666667 L11.7511521,47.8333333 L11.7511521,42 L11.7511521,36.1666667 L11.7511521,30.3333333 C11.7511521,29.6893333 11.2258756,29.1666667 10.5760369,29.1666667 L2.35023041,29.1666667 L2.35023041,23.3333333 L42.3041475,23.3333333 L42.3041475,29.1666667 L17.6267281,29.1666667 C16.9768894,29.1666667 16.4516129,29.6893333 16.4516129,30.3333333 L16.4516129,43.631 C16.4516129,49.7233333 18.81947,55.6115 23.0745622,60.6666667 L5.87557604,60.6666667 Z M35.2534562,67.5056667 C24.93947,61.8496667 18.8018433,52.9631667 18.8018433,43.631 L18.8018433,31.5 L51.7050691,31.5 L51.7050691,40.8333333 L49.3548387,40.8333333 L49.3548387,35 C49.3548387,34.356 48.8295622,33.8333333 48.1797235,33.8333333 L22.3271889,33.8333333 C21.6773502,33.8333333 21.1520737,34.356 21.1520737,35 L21.1520737,41.3816667 C21.1520737,50.8258333 26.3402074,59.5023333 34.690576,64.0243333 C34.8656682,64.1188333 35.0595622,64.1666667 35.2534562,64.1666667 C35.4473502,64.1666667 35.6412442,64.1188333 35.8163364,64.0243333 C40.106682,61.7015 43.55447,58.2761667 45.9,54.2196667 L47.8530415,56.1586667 C45.0245392,60.5733333 40.7377189,64.4991667 35.2534562,67.5056667 Z" id="Shape" fill="#00A54F"></path>
                        <rect id="Rectangle-path" fill="#00A54F" x="58.7096774" y="40.6451613" width="2.25806452" height="2.25806452"></rect>
                        <rect id="Rectangle-path" fill="#00A54F" x="63.2258065" y="40.6451613" width="2.25806452" height="2.25806452"></rect>
                        <rect id="Rectangle-path" fill="#00A54F" x="67.7419355" y="40.6451613" width="2.25806452" height="2.25806452"></rect>
                        <rect id="Rectangle-path" fill="#055574" x="63.2258065" y="9.03225806" width="2.25806452" height="2.25806452"></rect>
                        <rect id="Rectangle-path" fill="#055574" x="67.7419355" y="9.03225806" width="2.25806452" height="2.25806452"></rect>
                        <path d="M67.7419355,21.3813332 L53.7891358,21.3813332 L56.5505521,18.631311 L54.8476988,16.9354839 L50.0305748,21.7327316 C49.5597009,22.2016626 49.5597009,22.9596277 50.0305748,23.4285587 L54.8476988,28.2258065 L56.5505521,26.5299794 L53.7891358,23.7799571 L67.7419355,23.7799571 L67.7419355,21.3813332 Z" id="Shape" fill="#055574"></path>
                        <path d="M62.895148,28.7926013 L61.2987297,27.0967742 L56.7826947,31.8940219 C56.3412523,32.3629529 56.3412523,33.1209181 56.7826947,33.589849 L61.2987297,38.3870968 L62.895148,36.6912697 L60.306331,33.9412474 L70,33.9412474 L70,31.5426235 L60.306331,31.5426235 L62.895148,28.7926013 Z" id="Shape" fill="#055574"></path>
                        <path d="M48.0735052,15.8064516 L49.7763586,14.1106245 L47.0149422,11.3606023 L60.9677419,11.3606023 L60.9677419,8.96197838 L47.0149422,8.96197838 L49.7763586,6.21195611 L48.0735052,4.51612903 L43.2563812,9.31337678 C42.7855073,9.78230775 42.7855073,10.5402729 43.2563812,11.0092039 L48.0735052,15.8064516 Z" id="Shape" fill="#055574"></path>
                    </g>
                </g>
            </g>
        </g>
    </g>
</svg>