<?xml version="1.0" encoding="UTF-8" standalone="no"?>
<svg
   xmlns:dc="http://purl.org/dc/elements/1.1/"
   xmlns:cc="http://creativecommons.org/ns#"
   xmlns:rdf="http://www.w3.org/1999/02/22-rdf-syntax-ns#"
   xmlns:svg="http://www.w3.org/2000/svg"
   xmlns="http://www.w3.org/2000/svg"
   viewBox="0 0 263.98666 113.38667"
   height="113.38667"
   width="263.98666"
   xml:space="preserve"
   id="svg2"
   version="1.1"><metadata
     id="metadata8"><rdf:RDF><cc:Work
         rdf:about=""><dc:format>image/svg+xml</dc:format><dc:type
           rdf:resource="http://purl.org/dc/dcmitype/StillImage" /></cc:Work></rdf:RDF></metadata><defs
     id="defs6" /><g
     transform="matrix(1.3333333,0,0,-1.3333333,0,113.38667)"
     id="g10"><g
       transform="scale(0.1)"
       id="g12"><path
         id="path14"
         style="fill:#a11646;fill-opacity:1;fill-rule:nonzero;stroke:none"
         d="m 463.555,593.543 c -15.543,-1.852 -31.145,-3.313 -46.614,-5.625 -33.91,-5.082 -57.464,-22.926 -68.355,-56.281 -17.32,-53.028 -34.875,-105.977 -52.332,-158.949 -2.191,-0.618 -3.551,-0.313 -3.484,2.5 0.101,4.675 -0.051,9.367 -0.094,14.05 4.332,34.328 8.625,68.653 13.012,102.977 2.117,16.5 4.609,32.949 6.578,49.469 2.691,22.562 -9.789,39.812 -32.168,44.007 -8.926,1.672 -18.118,1.926 -27.172,2.821 -1.813,3.027 -4.828,2.707 -7.696,2.718 -12.851,0.067 -25.703,0.106 -38.55,0.153 -5.707,0.137 -11.469,-0.5 -17.032,1.324 -2.171,3.453 -5.687,2.465 -8.789,2.496 -12.289,0.11 -24.574,0.098 -36.867,0.125 -5.664,0.031 -11.371,-0.488 -16.902,1.262 -1.227,4.262 -4.781,2.418 -7.293,2.469 -10.981,0.246 -21.9611,0.164 -32.9415,0.191 -24.3985,1.305 -54.336,4.723 -78.73441,6.023 C 5.88281,606.16 0,606.848 0,608.156 c 3.92578,0 21.5898,-1.578 25.4141,-0.953 6.4375,1.055 13.5468,-2.898 19.3554,2.563 33.7266,2.422 67.4415,4.914 101.1715,7.226 12.329,0.848 24.696,1.262 37.036,1.871 14.859,0.059 29.718,0.094 44.578,0.196 2.461,0.019 5.433,-0.688 6.086,3.058 9.109,0.707 18.199,0.977 27.355,0.86 40.117,-0.508 77.195,19.461 90.543,60.582 12.289,37.863 26.797,75.007 40.316,112.472 4.704,13.039 9.375,26.078 14.063,39.121 4.617,0.735 4.828,-2.418 4.961,-5.632 -4.301,-15.594 -4.461,-31.809 -7.293,-47.649 -7.066,-39.516 -13.406,-79.168 -19.934,-118.777 -2.093,-12.696 13.164,-32.211 29.161,-36.457 19.375,-5.141 39.523,-5.137 59.273,-7.852 1.941,-0.269 3.906,-0.43 5.852,-0.64 0.097,-1.137 0.199,-2.274 0.292,-3.407 -1.351,-6.406 -2.707,-12.808 -4.058,-19.211 -1.559,-0.355 -3.113,-0.707 -4.668,-1.062 l -0.52,-0.172 -0.546,0.035 c -1.805,0.86 -3.45,0.66 -4.883,-0.785" /><path
         id="path16"
         style="fill:#a11646;fill-opacity:1;fill-rule:nonzero;stroke:none"
         d="m 44.7695,609.766 c -5.8086,-5.461 -12.9179,-1.508 -19.3554,-2.563 -3.8243,-0.625 -7.8321,-0.109 -11.7578,-0.109 0,0.652 -13.6563,0.41 -13.6563,1.062 10.3711,0.239 34.3984,1.371 44.7695,1.61" /><path
         id="path18"
         style="fill:#646f7b;fill-opacity:1;fill-rule:nonzero;stroke:none"
         d="m 1641.92,688.66 c -3.59,-8.312 -7.21,-16.617 -10.78,-24.937 -19.24,-44.785 -38.32,-89.637 -57.84,-134.297 -3.39,-7.754 -1.81,-9.309 6.19,-9.016 14.72,0.539 29.49,0.485 44.23,0 6.55,-0.215 8.11,2.149 8.56,8.317 2.15,29.378 5.31,58.683 7.17,88.078 1.49,23.785 5.45,47.445 2.47,71.855 z M 1398.64,371.113 c 15.75,31.778 30.47,61.672 45.34,91.477 50.14,100.426 100.42,200.781 150.31,301.328 3.66,7.383 7.39,10.457 16.01,10.328 37.02,-0.566 74.06,-0.387 111.08,-0.109 6.64,0.054 9.02,-1.5 9,-8.637 -0.36,-128.777 -0.48,-257.555 -0.45,-386.328 0,-6.465 -1.87,-8.281 -8.33,-8.223 -31.13,0.332 -62.26,0.332 -93.39,0 -6.57,-0.066 -8.42,1.934 -7.97,8.289 1.45,20.239 2.28,40.52 3.76,60.75 0.5,6.723 -0.36,9.883 -8.51,9.649 -22.26,-0.641 -44.57,-0.574 -66.84,-0.028 -6.97,0.176 -9.57,-2.605 -11.91,-8.468 -8.46,-21.278 -17.45,-42.332 -26.21,-63.485 -1.36,-3.277 -2,-6.66 -7.01,-6.629 -34.34,0.164 -68.67,0.086 -104.88,0.086" /><path
         id="path20"
         style="fill:#646f7b;fill-opacity:1;fill-rule:nonzero;stroke:none"
         d="m 838.629,648.586 c -14.094,0 -28.184,0.199 -42.274,-0.09 -6.32,-0.129 -8.964,1.031 -6.968,8.274 2.144,7.835 3.332,16 3.343,24.253 0.024,20.207 -9.097,29.559 -29.296,29.864 -20.977,0.316 -39.11,-15.559 -42.141,-36.582 -1.797,-12.481 2.305,-22.461 11.652,-30.625 16.43,-14.352 36.078,-23.66 54.512,-34.852 10.645,-6.465 21.219,-12.969 31.176,-20.476 22.441,-16.934 34.469,-38.852 33.144,-67.477 -2.074,-44.801 -15.886,-84.762 -48.847,-116.43 -23.684,-22.761 -52.77,-34.812 -84.883,-39.836 -35.676,-5.562 -71.098,-5.515 -105.727,6.368 -42.418,14.562 -60.656,48 -50.246,91.91 2.867,12.09 5.957,24.121 8.754,36.226 1.152,4.961 2.879,7.692 9.02,7.602 28.5,-0.395 57.015,-0.395 85.523,-0.02 7.711,0.106 7.695,-2.875 6.223,-8.859 -3.043,-12.34 -7.676,-24.383 -7.301,-37.43 0.371,-13.074 6.172,-20.789 18.656,-24.293 33.145,-9.285 66.86,20.141 62.074,54.387 -1.687,12.113 -8.886,21.23 -18.714,27.703 -16.118,10.617 -32.907,20.211 -49.153,30.645 -9.066,5.832 -17.84,12.179 -26.351,18.804 -31.594,24.59 -41.086,56.981 -32.77,95.309 14.055,64.742 59.84,107.246 125.539,117.246 27.434,4.176 54.68,5.25 81.852,-1.504 51.824,-12.887 77.804,-53 68.32,-105.512 -4.441,-24.578 -4.441,-24.578 -29.558,-24.566 -8.52,0.004 -17.04,0 -25.559,0 0,-0.012 0,-0.023 0,-0.039" /><path
         id="path22"
         style="fill:#646e7a;fill-opacity:1;fill-rule:nonzero;stroke:none"
         d="m 1052.38,692.398 c -1.58,-0.507 -2.04,-0.519 -2.11,-0.699 -23.82,-55.144 -47.56,-110.324 -71.485,-165.422 -2.5,-5.754 0.293,-5.773 4.539,-5.75 16.028,0.094 32.056,0.286 48.066,-0.101 5.75,-0.137 6.96,2.101 7.33,7.277 1.2,17.266 3,34.492 4.43,51.742 3.1,37.418 6.12,74.844 9.23,112.953 z M 805.57,371.105 c 7.407,15.157 14.153,29.219 21.114,43.165 58.296,116.796 116.699,233.535 174.776,350.437 3.61,7.277 7.87,9.59 15.76,9.504 36.68,-0.414 73.37,-0.375 110.05,-0.063 7,0.059 9.5,-1.304 9.49,-9.031 -0.26,-128.394 -0.23,-256.789 -0.07,-385.183 0.01,-6.457 -1.04,-9.114 -8.36,-9.004 -31.12,0.422 -62.24,0.39 -93.34,0.019 -7.27,-0.09 -8.63,2.285 -8.11,9.031 1.56,20.547 2.26,41.165 3.68,61.719 0.42,6.121 -1.5,7.922 -7.56,7.84 -22.92,-0.305 -45.855,-0.332 -68.777,0.016 -5.606,0.082 -8.184,-2.086 -10.137,-6.914 -8.68,-21.528 -17.566,-42.969 -26.465,-64.414 -1.433,-3.469 -2.117,-7.278 -7.695,-7.239 -34.301,0.235 -68.602,0.117 -104.356,0.117" /><path
         id="path24"
         style="fill:#646e7a;fill-opacity:1;fill-rule:nonzero;stroke:none"
         d="m 1424.45,648.02 c -15.72,0 -31.46,0.175 -47.17,-0.094 -5.95,-0.102 -7.24,1.387 -5.42,7.32 2.68,8.727 4.64,17.734 6.07,26.754 3.03,19.027 -6.11,29.34 -25.43,29.52 -19.1,0.175 -31.27,-9.872 -38.68,-26.528 -8.56,-19.262 -11.8,-40.09 -16.85,-60.351 -12.64,-50.743 -25.07,-101.536 -37.12,-152.418 -2.8,-11.836 -4.64,-24.516 8.16,-32.668 10.43,-6.653 30.28,-4.305 40.75,4.172 8.46,6.851 13.72,15.836 16.72,26.05 3.98,13.477 7.66,27.047 10.93,40.703 1.13,4.739 3.01,6.293 7.85,6.266 32.43,-0.195 64.87,-0.125 97.31,-0.086 3.63,0.008 6.58,-0.027 5.28,-5.199 -7.86,-31.164 -16.62,-61.938 -35.47,-88.734 -19.78,-28.125 -47.06,-45.325 -80.08,-52.84 -41,-9.336 -82.44,-10.246 -123.66,-0.981 -41.45,9.321 -59.5,32.688 -59.68,75.203 -0.1,27.2 7.62,52.95 13.98,78.954 11.1,45.386 22.22,90.773 33.52,136.109 17.83,71.445 69.1,115.516 142.65,123.281 25.87,2.731 51.61,3.192 77.2,-2.031 59.5,-12.145 83.52,-49.336 70.62,-109.027 -5.05,-23.356 -5.05,-23.352 -29.04,-23.336 -10.81,0.004 -21.62,0 -32.44,0 0,-0.016 0,-0.032 0,-0.039" /><path
         id="path26"
         style="fill:#646f7b;fill-opacity:1;fill-rule:nonzero;stroke:none"
         d="m 469.504,594.465 c 1.555,0.355 3.109,0.707 4.668,1.058 27.808,3.258 55.617,6.52 84.086,9.848 -2.945,3.043 -6,3.012 -8.84,3.375 -17.168,2.215 -34.328,4.492 -51.531,6.41 -6.508,0.727 -13.231,4.664 -19.657,-0.418 -0.093,1.133 -0.195,2.27 -0.292,3.407 12.335,48.808 24.882,97.558 36.773,146.476 1.867,7.684 4.934,9.656 12.43,9.551 29.816,-0.422 59.652,-0.426 89.468,0.008 8.016,0.113 8.961,-1.739 7.047,-9.356 -32.41,-129.054 -64.554,-258.183 -96.465,-387.371 -1.578,-6.379 -4.945,-6.406 -9.793,-6.394 -30.48,0.086 -60.968,0.339 -91.441,-0.161 -8.086,-0.125 -8.922,2.012 -7.086,9.219 13.469,52.938 26.582,105.957 39.789,158.957 3.953,15.864 7.832,31.746 11.789,47.617 0.68,2.743 2.711,5.586 -0.945,7.774" /><path
         id="path28"
         style="fill:#a11648;fill-opacity:1;fill-rule:nonzero;stroke:none"
         d="m 658.031,97.9336 c 5.625,10.5354 11.832,20.8084 16.688,31.6874 3.832,8.582 8.875,12.981 18.547,11.192 3.152,-0.586 6.496,-0.098 11.711,-0.098 -7.965,-14.016 -14.938,-27.141 -22.786,-39.727 -3.707,-5.9372 -4.031,-10.6911 -0.98,-17.031 8.598,-17.8593 16.465,-36.0742 24.648,-54.2109 -1.117,-0.3984 -1.406,-0.5742 -1.703,-0.5938 -21.597,-1.4062 -21.578,-1.3867 -30.429,18.6836 -3.289,7.4493 -6.7,14.8516 -10.305,22.8282 -5.469,-4.461 -7.832,-9.6758 -7.578,-16.2696 0.176,-4.5781 -0.59,-9.2656 0.176,-13.7187 1.8,-10.457 -2.782,-12.5313 -12.309,-12.1016 -7.023,0.3164 -9.356,1.4375 -9.234,9.1055 0.484,31.7266 0.523,63.4653 -0.098,95.1913 -0.18,9.223 4.937,7.981 10.441,7.863 5.586,-0.117 12.02,1.954 11.258,-8.156 -0.859,-11.363 -0.195,-22.84 -0.195,-34.2655 0.719,-0.1289 1.43,-0.2539 2.148,-0.3789" /><path
         id="path30"
         style="fill:#a11648;fill-opacity:1;fill-rule:nonzero;stroke:none"
         d="m 1190.8,70.5781 c -0.34,7.5586 -0.57,14.0625 -0.93,20.5586 -0.26,4.7227 -2.14,8.3789 -7.44,8.4649 -5.17,0.0781 -8.09,-3.625 -8.25,-8.0078 -0.46,-13.6446 -0.46,-27.3243 -0.05,-40.9649 0.12,-4.3672 2.71,-8.1562 8.04,-8.1367 5.02,0.0117 6.84,3.8281 7.32,7.7148 0.87,7.0782 0.95,14.2578 1.31,20.3711 z M 1170.01,1.66016 c -16.24,-0.777347 -16.23,-0.777347 -16.22,15.02344 0,28.1133 0,56.2266 0,84.3434 0,11.414 8.32,16.946 18.39,11.161 3.03,-1.739 3.74,-2.079 6.58,-0.411 13.87,8.118 27.69,2.121 30.16,-13.6403 2.79,-17.8125 2.87,-35.9101 0.13,-53.7304 -2.73,-17.7071 -16.96,-22.1875 -35.6,-11.3672 -2.55,-10.3321 0.5,-20.7539 -1.63,-30.78129 0,10.73049 0,21.46489 0,32.19529 -0.6,0 -1.2,-0.0078 -1.81,-0.0078 0,-10.9297 0,-21.8555 0,-32.78514" /><path
         id="path32"
         style="fill:#a31647;fill-opacity:1;fill-rule:nonzero;stroke:none"
         d="m 926.168,116.699 c 2.664,17.524 11.953,25.567 30.34,26.289 18.808,0.742 28.984,-6.109 32.531,-21.902 0.086,-13.516 0.086,-13.508 -13.098,-13.508 -1.902,0 -3.816,-0.074 -5.722,-0.125 -0.332,2.578 -0.418,5.215 -1.035,7.727 -1.192,4.812 -2.508,9.793 -8.719,10.3 -6.379,0.508 -10.606,-2.722 -12.793,-8.476 -1.027,-2.695 -1.789,-5.684 -1.817,-8.543 -0.156,-15.9805 -0.175,-31.9649 0.079,-47.9415 0.046,-3.1445 1.113,-6.4336 2.382,-9.375 2.332,-5.4179 6.922,-7.6953 12.676,-7.0898 5.625,0.5859 7.215,5.1836 8.106,9.7148 0.867,4.4571 0.996,9.0664 1.445,13.5938 l 0.449,0.0234 -0.226,0.4102 c 0.136,0.4297 0.41,0.7304 0.832,0.9062 17.968,-1.2383 17.968,-1.2383 17.871,-18.2031 -3.867,-17.4023 -12.832,-24.2852 -31.231,-23.9648 -19.23,0.3203 -28.957,7.6875 -32.062,24.2578 0,21.9648 -0.008,43.9336 -0.008,65.906" /><path
         id="path34"
         style="fill:#a11649;fill-opacity:1;fill-rule:nonzero;stroke:none"
         d="m 740.32,59.7383 c 2.918,15.1367 5.848,30.2734 8.746,45.4097 1.266,6.582 14.098,11.504 19.7,7.579 2.304,-1.614 0.925,-3.477 0.511,-5.215 C 761.793,76.3906 754.34,45.2578 746.703,14.1602 744.469,5.07031 738.191,0.3125 728.891,0.410156 c -3.961,0.039063 -10.137,-2.499996 -10.7,4.570314 -0.398,5.02343 -3.265,12.00393 7.09,12.02343 6.262,0.0117 3.727,5.7031 2.91,9.1484 -6.082,25.754 -12.464,51.4258 -18.402,77.2067 -0.707,3.079 -5.664,9.465 1.848,9.348 5.89,-0.098 15.715,6.555 17.914,-6.406 2.637,-15.5471 5.887,-30.9963 8.871,-46.4924 0.637,-0.0234 1.266,-0.043 1.898,-0.0703" /><path
         id="path36"
         style="fill:#a11648;fill-opacity:1;fill-rule:nonzero;stroke:none"
         d="m 1115.13,72.3945 c -5.78,-3.9726 -10.74,-6.5429 -14.6,-10.2734 -4.75,-4.6016 -4.33,-11.0078 -1.89,-16.4844 1.52,-3.4179 5.9,-3.8984 9.6,-2.8789 5.93,1.6289 6.61,6.707 6.83,11.6875 0.25,5.418 0.06,10.8672 0.06,17.9492 z m 19.91,-7.5468 c 0.56,-8.6329 -1.24,-19.836 1.02,-30.8516 0.82,-4.0156 -0.5,-6.0234 -4.28,-4.9805 -5.03,1.3867 -11.97,-4.3164 -15.2,4.2266 -0.98,2.5781 -2.49,-0.0469 -3.57,-0.7305 -12.16,-7.7344 -23.88,-7.2656 -30.78,1.2696 -7.81,9.6796 -6.62,28.0742 2.37,36.9218 3.58,3.5078 7.91,5.7735 12.45,7.7344 4.19,1.8281 8.46,3.5078 12.53,5.6172 4.03,2.0898 6.65,5.2851 5.81,10.293 -0.67,4.0039 -3.38,5.207 -7.05,5.3398 -4.91,0.1992 -9.53,-0.3984 -10.8,-6.1133 -2.52,-11.375 -11.45,-5.4297 -16.64,-5.0469 -6.52,0.4805 -2.09,6.7579 -1.52,10.2618 1.3,7.9019 6.65,12.5699 14.16,14.6489 8.69,2.414 17.47,2.472 26.24,0.343 9.9,-2.414 15.08,-8.761 15.23,-18.9451 0.15,-9.1718 0.03,-18.3515 0.03,-29.9882" /><path
         id="path38"
         style="fill:#a31647;fill-opacity:1;fill-rule:nonzero;stroke:none"
         d="m 1026.33,107.668 c 6.08,3.137 11.09,8.75 19,7.488 6.3,-1.004 12.16,-2.359 14.82,-9.109 -0.09,-25.6368 -0.16,-51.2814 -0.25,-76.9259 -16.87,-0.6133 -16.88,-0.6133 -16.9,16.3906 -0.01,13.9805 0.02,27.9649 -0.02,41.9531 -0.02,4.9219 0.21,10.379 -5.88,11.9493 -6.07,1.5819 -8.61,-2.9961 -10.77,-7.586 -0.27,0.711 0.08,2.0391 -1.34,1.6485 -0.29,-0.0782 -0.45,-1.0743 -0.45,-1.6485 -0.03,-20.8789 -0.03,-41.75 -0.04,-62.6289 -5.24,-0.0078 -10.48,-0.0156 -15.73,-0.0273 -0.02,33.0078 -0.04,66.0156 -0.03,99.0121 0,5.351 -1.66,11.046 7.62,11.144 9.89,0.098 7.72,-6.074 8.19,-11.711 0.55,-6.648 -2.05,-13.601 1.78,-19.949" /><path
         id="path40"
         style="fill:#a11646;fill-opacity:1;fill-rule:nonzero;stroke:none"
         d="m 1296.81,80.2266 c 5.24,-0.461 10.15,-0.9649 9.33,6.8672 -0.66,6.3359 -0.43,12.8085 -9.52,12.6171 -8.15,-0.1796 -8.67,-5.6093 -9.15,-11.9843 -0.6,-7.9297 3.72,-8.3711 9.34,-7.5 z m 26.52,-37.3243 c -4.65,-12.7539 -13.84,-17.4296 -31.46,-16.0078 -12.42,0.9961 -22.32,9.4961 -23.23,22.2969 -1.07,14.9024 -0.95,29.9609 -0.18,44.8945 0.41,8.0231 4.86,14.7341 13.17,17.7301 12.2,-0.679 24.69,1.411 36.47,-3.652 3.5,-2.508 5.15,-5.992 5.4,-10.2148 0,-5.5625 -0.01,-11.1328 0,-16.6953 0.02,-12.8945 0.02,-12.5898 -12.5,-13.0391 -7.65,-0.2734 -15.58,2.1368 -22.94,-1.8164 -0.15,-4.2382 -0.39,-8.4765 -0.39,-12.7148 -0.01,-4.7656 0.69,-9.3945 6.22,-10.8984 5.63,-1.5313 9.46,0.8281 11.59,6.1523 3.36,1.5352 1.1,7.4414 7.17,7.6758 9.78,0.3789 10.74,-0.1758 10.68,-13.711" /><path
         id="path42"
         style="fill:#a11649;fill-opacity:1;fill-rule:nonzero;stroke:none"
         d="m 846.527,51.9844 c 3.336,19.1679 6.289,36.5508 9.453,53.8986 0.485,2.633 -0.16,6.785 3.778,7.078 5.476,0.398 11.25,1.484 16.449,-0.695 2.231,-0.926 0.703,-4.176 0.219,-6.289 -5.352,-23.2582 -11.074,-46.4457 -16.016,-69.7934 -1.328,-6.2813 -4.055,-8.0078 -9.808,-7.375 -3.239,0.3516 -6.602,0.4531 -9.809,-0.0195 -5.543,-0.8086 -7.242,2.0234 -8.328,6.8007 -5.285,23.2774 -10.594,46.5586 -16.41,69.7152 -1.782,7.082 0.648,7.578 6.867,8.156 10.215,0.934 14.328,-2.141 15.402,-12.777 1.598,-15.7504 5.168,-31.2973 8.203,-48.6996" /><path
         id="path44"
         style="fill:#a31647;fill-opacity:1;fill-rule:nonzero;stroke:none"
         d="m 1245.22,51.0586 c 0.32,-0.0234 0.65,-0.043 0.98,-0.0625 0,15.5586 0,31.1133 0,46.6602 -0.33,0 -0.66,0 -0.98,0.0117 0,-15.5352 0,-31.0742 0,-46.6094 z m -16.64,16.3281 c -0.01,6.5508 0.33,13.1328 -0.13,19.6563 -0.31,4.3633 3.13,10.1836 -5.77,11.9258 -3.2,0.625 -2.95,12.0782 -0.43,12.7692 9.56,2.629 6.53,9.582 6.08,14.731 -0.79,8.672 3.35,9.136 10.23,9.273 7.4,0.156 10.57,-1.472 10.03,-9.637 -0.33,-5.019 -3.94,-12.707 6.58,-13.82 3.03,-0.32 1.67,-13.6873 -1.7,-13.8944 -6.54,-0.4023 -5.11,-4.6601 -5.13,-8.289 -0.07,-11.7969 -0.06,-23.5938 0.03,-35.3907 0.04,-4.6328 -1.46,-9.3398 6.13,-11.0078 4.38,-0.9687 1.51,-7.4883 1.97,-11.4843 0.47,-4.0625 -2.79,-3.3594 -5.31,-3.7305 -16.37,-2.3633 -22.48,2.8008 -22.56,19.2305 -0.03,6.5585 -0.01,13.1132 -0.02,19.6679" /><path
         id="path46"
         style="fill:#6e787f;fill-opacity:1;fill-rule:nonzero;stroke:none"
         d="m 1150.95,258.938 c 0.03,5.656 0.33,12.109 -6.77,13.398 -6.72,1.23 -9.83,-4.297 -11.74,-9.688 -2.29,-6.445 -4.35,-13.066 -2.81,-20.097 0.91,-4.09 2.86,-7.395 7.39,-8.164 4.65,-0.801 7.3,1.992 9.27,5.664 3.16,5.887 4.4,12.265 4.66,18.887 z m 29.36,0.539 c 0.11,5.339 0.17,11.218 -6.22,12.82 -6.68,1.672 -10.16,-3.195 -12.42,-8.606 -2.54,-6.062 -3.79,-12.476 -3.97,-19.07 -0.1,-4.16 0.68,-7.988 5.24,-9.453 4.6,-1.477 8.34,0.137 11.06,4.023 4.26,6.067 6.13,12.911 6.31,20.286 z m -26.08,15.574 c 1.44,7.031 2.96,13.047 3.82,19.16 0.54,3.816 2.35,5.117 5.83,4.734 4.51,-0.507 2.34,-3.593 2.29,-5.925 -0.1,-5.149 -3.28,-9.993 -1.63,-15.364 16.84,5.93 26.53,-2.176 24.15,-20.125 -0.81,-6.152 -1.98,-12.226 -4.83,-17.871 -6.42,-12.754 -16.29,-15.957 -29.02,-8.976 -1.26,-5.719 -2.62,-11.317 -3.69,-16.969 -0.63,-3.274 -2.49,-4.336 -5.51,-3.918 -4.21,0.586 -2.8,3.535 -2.39,5.984 0.37,2.246 0.81,4.492 1.3,6.723 0.99,4.59 -0.62,5.73 -5.16,4.668 -9.64,-2.27 -14.99,2.945 -17.22,11.531 -3.21,12.395 -0.7,24.102 6.71,34.402 6.29,8.75 13.88,9.211 25.35,1.946" /><path
         id="path48"
         style="fill:#a31647;fill-opacity:1;fill-rule:nonzero;stroke:none"
         d="m 1367.03,89.1211 c -3.94,-4.0508 -4.81,-8.9805 -4.71,-14.4609 0.22,-12.1211 -0.46,-24.2774 0.28,-36.3555 0.49,-8.0313 -2.35,-9.5899 -9.83,-9.7188 -7.99,-0.1367 -10.59,1.6993 -10.33,10.1289 0.64,21.5977 0.05,43.2383 0.28,64.8592 0.05,3.75 -2.83,10.168 5.44,9.582 6.1,-0.429 15,3.399 13.16,-9.718 5,2.082 6.15,7.816 10.96,8.339 4.26,0 6.56,-1.668 6.24,-6.386 -0.31,-4.493 -0.11,-9.0121 -0.14,-13.5238 -0.67,0 -1.35,0 -2.04,0 -3.08,-0.9688 -7.38,2.1406 -9.31,-2.7461" /><path
         id="path50"
         style="fill:#707981;fill-opacity:1;fill-rule:nonzero;stroke:none"
         d="m 1966.48,256.23 c -6.13,-7.964 -8.71,-15.718 -12.32,-22.917 -1.68,-3.372 -3.39,-6.25 -8.01,-5.579 -5.07,0.743 -3.42,4.914 -4.08,7.676 -1.91,7.856 -0.21,16.262 -3.91,26.582 -2.13,-11.094 -3.79,-19.707 -5.45,-28.328 -0.64,-3.379 -1.5,-6.711 -6.07,-5.828 -4.81,0.918 -2.65,4.246 -2.14,6.93 2.3,12.187 4.7,24.367 6.9,36.574 0.91,5.051 2.56,7.91 8.77,7.656 6.97,-0.281 5.7,-5.058 6.15,-8.84 1.1,-9.07 1.8,-18.203 2.94,-30.261 6.34,12.441 11.55,22.625 16.72,32.824 1.45,2.84 2.18,6.004 6.57,6.121 5.48,0.144 8.64,-0.149 6.87,-7.344 -3.01,-12.344 -5,-24.949 -7.38,-37.449 -0.73,-3.762 -1.68,-7.473 -6.7,-6.113 -4.83,1.296 -1.56,4.675 -1.37,7.195 0.49,6.465 3.54,12.578 2.51,21.101" /><path
         id="path52"
         style="fill:#707981;fill-opacity:1;fill-rule:nonzero;stroke:none"
         d="m 1337.62,258.066 c -4.16,-8.425 -8.49,-16.785 -12.4,-25.332 -1.76,-3.855 -4.15,-5.718 -8.34,-4.961 -4.34,0.793 -3.04,4.454 -3.33,7.114 -0.97,8.726 -1.73,17.488 -2.71,27.625 -4.58,-9.785 -4.36,-19.446 -6.71,-28.438 -1.02,-3.867 -1.61,-7.441 -6.55,-6.203 -4.67,1.176 -1.97,5.039 -1.56,7.356 2.2,12.558 5.23,24.98 7.17,37.578 0.95,6.164 4.41,5.965 8.91,6.004 5.6,0.07 5.02,-3.739 5.39,-7.325 0.95,-9.304 2.05,-18.601 5.04,-28.171 4.93,9.871 10.16,19.609 14.64,29.667 2.35,5.247 5.92,6.856 10.83,5.618 6.43,-1.633 2.52,-6.496 2.01,-9.614 -1.96,-11.929 -4.69,-23.738 -6.78,-35.652 -0.7,-3.906 -2.07,-6.387 -6.24,-5.496 -5.04,1.082 -1.95,4.883 -1.61,7.176 1.06,7.402 2.72,14.715 4.15,22.058 -0.64,0.332 -1.27,0.664 -1.91,0.996" /><path
         id="path54"
         style="fill:#707981;fill-opacity:1;fill-rule:nonzero;stroke:none"
         d="m 1799.21,723.016 c 8.75,6.082 12.46,17.8 9.29,29.289 -3.11,11.3 -12.27,19.468 -22.63,20.207 -14.65,1.035 -26.74,-9.973 -27.95,-25.449 -1.26,-16.196 9.62,-30.825 24,-31.653 6.88,-0.394 13.69,0.512 17.43,7.735 z m -15.74,57.195 c 18.19,0.074 32.81,-15.59 33.16,-35.523 0.35,-20.04 -14.64,-37.008 -32.81,-37.153 -18.16,-0.137 -33.22,16.606 -33.12,36.817 0.11,19.867 14.65,35.785 32.77,35.859" /><path
         id="path56"
         style="fill:#6e787f;fill-opacity:1;fill-rule:nonzero;stroke:none"
         d="m 716.453,236.145 c 17.086,-1.868 17.102,-1.868 20.344,13.972 0.918,4.477 2.125,8.946 2.391,13.457 0.144,2.422 3.859,7.231 -2.356,7.199 -3.906,-0.019 -9.394,3.094 -11.34,-3.82 -2.898,-10.301 -6.015,-20.535 -9.039,-30.808 z m 18.391,42.597 c 16.582,0 16.547,0.012 13.148,-16.504 -1.187,-5.761 -2.289,-11.543 -3.207,-17.351 -0.582,-3.657 -2.504,-6.438 1.953,-10.727 3.598,-3.476 -0.465,-11.531 -2.75,-17.183 -0.297,-0.747 -2.996,-0.942 -4.472,-0.696 -2.657,0.449 -2.524,2.91 -2.055,4.68 1.758,6.59 -2.074,6.988 -6.93,6.805 -4.574,-0.176 -9.179,-0.301 -13.738,0.007 -5.426,0.372 -9.715,-0.156 -10.156,-7 -0.215,-3.359 -2.129,-5.625 -5.867,-4.648 -4.602,1.199 -2.149,4.59 -1.883,7.219 0.617,6.16 3.851,10.437 7.789,15.371 5.535,6.941 7.051,16.676 9.426,25.535 3.91,14.52 4.011,14.492 18.742,14.492" /><path
         id="path58"
         style="fill:#6e787f;fill-opacity:1;fill-rule:nonzero;stroke:none"
         d="m 149.988,257.785 c 0.024,6.121 -0.418,12.473 -7.625,14.168 -7.047,1.672 -11.609,-2.574 -14.941,-8.465 -3.168,-5.617 -4.309,-11.582 -3.766,-17.929 0.422,-4.93 2.317,-8.821 7.422,-10.43 5.375,-1.691 9.66,0.195 12.977,4.324 4.261,5.313 5.808,11.613 5.933,18.332 z m -29.59,-25.332 c -1.414,-6.672 -3.062,-13.281 -4.148,-19.973 -0.645,-3.984 -2.945,-4.792 -6.184,-4.351 -4.378,0.601 -2.55,3.785 -2.113,6.062 3.813,19.864 7.723,39.707 11.621,59.551 0.356,1.817 0.637,5.352 2.438,4.512 8.449,-3.945 15.926,4.551 24.09,1.316 1.211,-0.484 2.55,-0.703 3.687,-1.304 10.891,-5.762 12.414,-25.618 3.164,-40.746 -7.238,-11.844 -19.164,-14.012 -30.59,-5.594 -0.465,0.34 -1.187,0.332 -1.965,0.527" /><path
         id="path60"
         style="fill:#6d767e;fill-opacity:1;fill-rule:nonzero;stroke:none"
         d="m 1281.71,256.914 c 0.18,7.309 -1.29,12.961 -7.99,15.02 -6.29,1.925 -10.61,-1.922 -13.87,-6.649 -3.99,-5.769 -5.8,-12.351 -5.15,-19.375 0.48,-5.129 2.48,-9.394 8.07,-10.957 5.47,-1.531 9.51,0.774 12.78,4.793 4.28,5.266 5.36,11.692 6.16,17.168 z m -30.2,-24.805 c -1.2,-6.328 -2.24,-12.019 -3.38,-17.683 -0.74,-3.692 -1.83,-7.434 -6.85,-6.121 -4.43,1.16 -2.45,4.84 -1.98,7.34 3.67,19.281 7.58,38.507 11.37,57.753 0.44,2.247 0.75,5.911 3.29,5 7.35,-2.625 13.69,2.219 20.55,1.743 3.91,-0.266 7.7,-1.731 10.37,-4.985 7.62,-9.258 6.19,-19.668 2.93,-29.812 -3.02,-9.422 -8.56,-16.758 -19.43,-18.645 -6.41,-1.109 -11.01,2.629 -16.87,5.41" /><path
         id="path62"
         style="fill:#707981;fill-opacity:1;fill-rule:nonzero;stroke:none"
         d="m 1436.85,227.695 c -9.49,0 -18.6,0.078 -27.69,-0.039 -4.57,-0.054 -7.43,0.149 -5.93,6.446 3.01,12.707 5.07,25.625 7.51,38.457 0.71,3.711 1.61,7.168 6.68,6.171 5.96,-1.171 2.29,-5.386 1.94,-7.753 -1.32,-8.7 -3.58,-17.254 -5.04,-25.946 -0.5,-2.988 -2.92,-8.476 3.26,-7.871 5.33,0.528 13.31,-5.012 15.78,4.149 2.71,10.07 4.25,20.461 6.07,30.746 0.66,3.797 1.06,7.422 6.24,6.66 6.63,-0.988 2.79,-5.383 2.33,-8.266 -1.37,-8.711 -2.96,-17.39 -4.86,-26.004 -1.45,-6.543 6.28,-11.843 2.15,-18.672 -0.79,-1.32 -0.76,-3.156 -1.06,-4.757 -0.58,-3.18 -1.74,-5.731 -5.69,-5.008 -4.82,0.887 -2.55,4.316 -2.36,6.953 0.08,1.269 0.35,2.527 0.67,4.734" /><path
         id="path64"
         style="fill:#6e787f;fill-opacity:1;fill-rule:nonzero;stroke:none"
         d="m 671.383,234.523 c 6.898,-0.144 14.371,7.61 14.461,14.688 0.019,1.418 -0.317,3.262 -1.446,3.008 -6.39,-1.477 -14.054,1.094 -18.921,-5.324 -2.079,-2.743 -2.032,-6.09 -0.579,-9.227 1.297,-2.793 4.165,-2.648 6.485,-3.145 z m 7.953,45.989 c 14.664,-0.215 19.574,-6.391 17.047,-19.551 -1.168,-6.086 -2.551,-12.141 -3.692,-18.234 -0.464,-2.469 -1.761,-5.43 0.832,-7.254 2.684,-1.887 3.555,-4.082 1.696,-6.516 -1.824,-2.394 -5.371,-2.305 -7.149,-0.793 -4.05,3.449 -7.031,1.856 -11.078,-0.027 -9.426,-4.375 -18.746,-0.324 -21.445,8.586 -2.91,9.578 2.051,18.789 11.836,21.129 4.07,0.976 8.402,0.878 12.621,1.234 4.555,0.379 8.703,1.285 8.25,7.242 -0.512,6.606 -5.578,6.438 -10.141,6.211 -4.082,-0.203 -7.515,-2.051 -9.133,-6.25 -1.257,-3.277 -4.238,-3.379 -6.539,-2.293 -3.386,1.602 -1.527,4.473 -0.398,6.719 3.902,7.773 11.02,9.531 17.293,9.797" /><path
         id="path66"
         style="fill:#6e787f;fill-opacity:1;fill-rule:nonzero;stroke:none"
         d="m 1582.56,251.23 c -0.4,-0.496 -1,-0.925 -1.1,-1.453 -0.1,-0.488 0.32,-1.093 0.52,-1.648 0.52,0.562 1.2,1.062 1.51,1.726 0.12,0.254 -0.58,0.887 -0.93,1.375 z m 20.07,10.958 c -7.94,-10.602 -14.69,-19.684 -21.51,-28.692 -1.54,-2.039 -2.54,-4.937 -5.37,-5.43 -3.88,-0.664 -8.21,-1.699 -6.72,5.266 2.87,13.418 5.52,26.895 7.88,40.41 0.75,4.336 2.91,5.52 6.71,4.903 4.48,-0.735 2.26,-3.758 1.87,-6.043 -0.6,-3.547 -1.55,-7.043 -1.99,-10.61 -0.38,-3.074 -2.85,-7.371 0.24,-9.043 3.73,-2.019 5.05,3 6.95,5.246 4.43,5.235 8.47,10.821 12.56,16.336 1.82,2.446 3.62,4.375 7.13,4.309 4.04,-0.078 5.87,-0.625 4.74,-5.598 -2.96,-13.047 -5.33,-26.238 -7.76,-39.402 -0.74,-4.024 -2.06,-7.168 -6.85,-5.996 -4.79,1.179 -1.89,4.922 -1.67,7.297 0.82,8.32 4.19,16.289 3.79,27.047" /><path
         id="path68"
         style="fill:#6e787f;fill-opacity:1;fill-rule:nonzero;stroke:none"
         d="m 1749.87,248.969 c 5.83,7.73 11.69,15.437 17.47,23.203 2.99,4.004 6.1,8.777 11.78,6.266 5.84,-2.579 1.21,-7.333 0.64,-10.918 -1.8,-11.297 -4.15,-22.5 -6.23,-33.75 -0.64,-3.465 -1.62,-6.551 -6.07,-5.997 -5.65,0.715 -3.19,4.668 -2.68,7.5 1.56,8.633 3.38,17.231 3.71,26.622 -6.86,-9.227 -13.67,-18.497 -20.64,-27.633 -1.74,-2.278 -2.83,-5.571 -5.99,-6.184 -3.96,-0.781 -8.29,-1.476 -6.9,5.313 2.68,13.117 5.13,26.269 7.74,39.406 0.65,3.277 1.43,6.512 6.06,5.926 5.82,-0.743 3.12,-4.895 2.73,-7.5 -1.04,-7.051 -2.67,-14.012 -4.06,-21.004 0.82,-0.41 1.63,-0.832 2.44,-1.25" /><path
         id="path70"
         style="fill:#6e787f;fill-opacity:1;fill-rule:nonzero;stroke:none"
         d="m 1502.74,259.223 c -6.61,-8.801 -13.32,-17.532 -19.81,-26.418 -2.48,-3.418 -5.28,-6.563 -9.61,-4.778 -4.81,1.985 -1.72,6.067 -1.15,9.219 2.16,11.887 4.66,23.723 6.67,35.637 0.74,4.394 2.51,6.738 7.04,5.715 4.88,-1.118 2.17,-4.692 1.8,-7.153 -1.07,-7.058 -3.6,-13.886 -3.43,-22.918 7.01,5.508 10.48,12.383 15.19,18.094 2.69,3.281 5.17,6.75 7.84,10.063 2.49,3.113 6.24,2.695 9.04,1.621 3.35,-1.289 1,-4.524 0.57,-6.86 -2.3,-12.527 -4.66,-25.047 -7.09,-37.554 -0.63,-3.235 -1.28,-6.703 -5.95,-6.106 -5.54,0.703 -3.37,4.805 -2.92,7.551 1.25,7.676 3.8,15.144 1.81,23.887" /><path
         id="path72"
         style="fill:#6e787f;fill-opacity:1;fill-rule:nonzero;stroke:none"
         d="m 563.945,252.656 c -6.015,-0.933 -11.621,-1.101 -16.695,-2.808 -4.617,-1.567 -7.609,-5.5 -5.156,-10.879 2.371,-5.188 6.758,-5.696 11.547,-3.75 7.382,2.996 9.015,9.508 10.304,17.437 z m -7.125,27.856 c 14.707,0.093 19.821,-5.801 17.473,-18.828 -1.047,-5.774 -2.422,-11.489 -3.43,-17.27 -0.531,-3.062 -2.242,-6.562 0.93,-9.09 2.57,-2.051 3.211,-4.308 1.105,-6.594 -1.996,-2.167 -5.535,-2.046 -7.199,-0.417 -3.722,3.632 -6.484,1.667 -10.109,0.097 -9.746,-4.238 -19.289,-0.769 -22.121,7.528 -3.449,10.089 2.129,19.933 12.953,22.246 3.793,0.812 7.793,0.625 11.691,0.918 4.684,0.351 8.641,1.781 8.114,7.492 -0.539,5.761 -5.079,6.074 -9.481,6.054 -4.211,-0.019 -7.824,-1.652 -9.519,-5.656 -1.536,-3.609 -4.422,-4.472 -7.028,-2.859 -3.379,2.09 -1.121,5.156 0.332,7.668 3.918,6.758 10.442,8.347 16.289,8.711" /><path
         id="path74"
         style="fill:#6e787f;fill-opacity:1;fill-rule:nonzero;stroke:none"
         d="m 1386.14,252.852 c -6.08,-0.997 -11.64,-1.231 -16.72,-2.918 -4.79,-1.602 -7.29,-5.743 -5.05,-10.977 2.25,-5.266 6.52,-5.852 11.4,-3.762 7.28,3.11 9.03,9.532 10.37,17.657 z m 11.53,14.992 c -1.26,-6.699 -2.54,-13.086 -3.64,-19.512 -0.88,-5.117 -4.52,-10.508 1.65,-15.051 1.17,-0.867 0.75,-3.25 -0.48,-4.461 -2.15,-2.121 -5.48,-2.187 -7.23,-0.617 -4.06,3.652 -7.02,1.731 -11.02,-0.086 -9.49,-4.316 -18.59,-0.332 -21.45,8.645 -2.95,9.273 2.22,18.621 11.99,21.082 3.44,0.871 7.09,0.945 10.67,1.172 3.93,0.254 8.15,0 9.83,4.621 0.92,2.515 0.87,5.347 -1.76,7.027 -4.18,2.668 -8.6,2.844 -13,0.441 -0.85,-0.46 -1.85,-0.925 -2.36,-1.671 -1.9,-2.84 -2.68,-6.981 -7.69,-5.782 -1.52,0.364 -2.55,1.223 -2.4,2.539 0.47,4.426 2.56,7.942 6.34,10.508 9.42,6.391 24.97,4.641 29.01,-3.465 0.85,-1.711 1.08,-3.718 1.54,-5.39" /><path
         id="path76"
         style="fill:#a11646;fill-opacity:1;fill-rule:nonzero;stroke:none"
         d="m 800.215,29.1406 c -5.18,0.0508 -10.363,0.0977 -15.543,0.1485 -0.008,24.5195 0.125,49.0429 -0.141,73.5629 -0.062,6 1.149,8.82 8.004,8.82 6.981,0 8,-3.106 7.938,-8.953 -0.262,-24.5237 -0.2,-49.0549 -0.258,-73.5784" /><path
         id="path78"
         style="fill:#6e787f;fill-opacity:1;fill-rule:nonzero;stroke:none"
         d="m 808.023,262.109 c -8.394,-11.25 -15.273,-20.32 -21.964,-29.531 -2.508,-3.457 -5.493,-6.316 -9.743,-4.375 -3.976,1.836 -1.609,5.86 -1.097,8.711 2.191,12.219 4.965,24.328 7.133,36.547 0.722,4.09 2.449,5.769 6.461,5.223 5.535,-0.75 2.277,-4.344 1.917,-6.641 -1.242,-8.02 -2.82,-15.984 -2.843,-24.777 5.652,7.422 11.297,14.855 16.965,22.257 1.988,2.598 3.894,5.274 6.121,7.657 2.312,2.468 5.613,2.031 8.3,1.203 4.129,-1.281 1.2,-4.445 0.821,-6.567 -2.317,-12.839 -5,-25.625 -7.371,-38.464 -0.68,-3.704 -1.86,-6.243 -6.215,-5.606 -5.238,0.75 -2.578,4.395 -2.285,6.817 0.996,8.378 4.004,16.464 3.8,27.546" /><path
         id="path80"
         style="fill:#6e787f;fill-opacity:1;fill-rule:nonzero;stroke:none"
         d="m 178.27,248.352 c 6.734,8.769 13.722,17.375 20.093,26.394 2.797,3.957 6.344,5.141 10.043,3.598 4.117,-1.711 1.512,-5.637 0.969,-8.547 -2.203,-11.863 -4.695,-23.684 -6.863,-35.559 -0.727,-3.953 -1.836,-7.343 -6.645,-6.386 -5.594,1.125 -2.265,5.07 -1.82,7.793 1.34,8.214 2.957,16.386 2.848,25.351 -7.028,-9.266 -14.219,-18.426 -20.997,-27.867 -2.722,-3.813 -5.687,-7.102 -10.347,-4.926 -4.863,2.27 -0.887,6.445 -0.422,9.485 1.773,11.613 4.195,23.117 6.363,34.667 0.699,3.704 1.574,7.422 6.621,6.282 5.301,-1.203 2.528,-5.278 2.129,-7.961 -1.086,-7.356 -2.722,-14.629 -4.144,-21.946 0.726,-0.125 1.453,-0.253 2.172,-0.378" /><path
         id="path82"
         style="fill:#6d767e;fill-opacity:1;fill-rule:nonzero;stroke:none"
         d="m 1887.66,260.012 c 0.15,-0.332 0.32,-1.336 0.9,-1.992 0.99,-1.133 20.11,-1.028 21.05,0.195 0.71,0.898 1.27,2.312 1.11,3.387 -0.91,5.988 -3.69,10.468 -10.43,10.675 -5.21,0.157 -12.89,-7.136 -12.63,-12.265 z m 13.38,-9.246 c -1.95,0 -3.95,0.203 -5.87,-0.051 -3.35,-0.442 -7.87,1.855 -9.68,-2.363 -1.4,-3.293 -0.31,-7.082 2.13,-10.059 2.91,-3.555 6.87,-3.43 10.8,-2.727 3.78,0.688 6.39,3.286 8.25,6.45 1.87,3.152 4.98,4.097 7.43,2.429 3.33,-2.285 0.54,-5.382 -0.9,-7.629 -4.8,-7.476 -11.65,-11.226 -20.69,-10.105 -9.56,1.191 -14.28,7.488 -15.58,16.34 -1.8,12.273 1.05,23.457 10.3,32.195 6.56,6.192 16.85,6.992 23.63,2.5 5.9,-3.906 10.52,-17.219 7.96,-23.894 -2.34,-6.086 -7.85,-2.598 -11.91,-3.391 -1.89,-0.371 -3.91,-0.059 -5.87,-0.059 0,0.118 0,0.243 0,0.364" /><path
         id="path84"
         style="fill:#6d767e;fill-opacity:1;fill-rule:nonzero;stroke:none"
         d="m 1202.64,248.535 c 0.19,-6.441 0.97,-12.117 7.79,-13.711 6.32,-1.472 10.77,1.867 13.73,7.055 3.48,6.055 5.35,12.684 4.66,19.715 -0.46,4.746 -2.38,9.062 -7.32,10.672 -4.97,1.625 -8.99,-0.887 -12.2,-4.395 -5.14,-5.613 -6.47,-12.637 -6.66,-19.336 z m 34.64,9.516 c -0.24,-16.047 -8.37,-28.313 -20.51,-30.988 -11.22,-2.461 -20.65,3.273 -22.63,14.472 -1.78,9.981 -0.05,19.617 5.68,28.176 6.01,8.953 16.84,13.125 25.59,9.82 9.91,-3.738 12.01,-12.051 11.87,-21.48" /><path
         id="path86"
         style="fill:#6d767e;fill-opacity:1;fill-rule:nonzero;stroke:none"
         d="m 70.6992,247.813 c 0.7344,-4.961 1.3555,-9.95 6.5117,-12.364 4.6602,-2.176 8.9102,-0.808 12.5743,2.414 5.914,5.196 9.5078,19.715 6.8554,27.09 -3.0312,8.418 -9.6992,10.235 -16.7383,4.602 -7.0429,-5.625 -8.0273,-13.735 -9.2031,-21.742 z m -8.1836,2.953 c 0.5508,9.89 3.6172,20.332 14.3555,26.66 13.5664,8.008 27.9379,0.465 29.2029,-15.16 0.672,-8.375 -1.113,-16.25 -5.265,-23.536 -5.5902,-9.812 -15.5785,-14.175 -25.6176,-11.304 -8.8789,2.527 -12.9805,9.508 -12.6758,23.34" /><path
         id="path88"
         style="fill:#6e787f;fill-opacity:1;fill-rule:nonzero;stroke:none"
         d="m 287.23,259.086 c 6.383,-1.527 10.243,1.141 10.372,8.914 0.043,2.559 0.918,5.129 1.515,7.664 0.828,3.566 3.703,3.227 6.278,2.961 3.589,-0.359 2.636,-2.859 2.195,-5.129 -2.652,-13.445 -5.309,-26.894 -7.856,-40.359 -0.695,-3.672 -2.07,-6.367 -6.371,-5.235 -4.476,1.184 -2.035,4.727 -2.129,7.344 -0.035,0.957 0.352,1.926 0.551,2.883 2.856,13.965 2.453,14.226 -11.769,13.301 -4.508,-0.293 -6.379,-1.938 -6.875,-6.289 -0.512,-4.536 -1.571,-9.004 -2.512,-13.481 -0.785,-3.726 -3.504,-4.449 -6.734,-3.738 -3.411,0.762 -2.293,3.484 -1.903,5.555 2.559,13.457 5.25,26.894 7.86,40.351 0.64,3.293 2.074,5.274 5.894,4.902 5.102,-0.488 2.977,-3.972 2.926,-6.57 -0.02,-0.945 -0.524,-1.887 -0.711,-2.844 -2.047,-10.242 -2.043,-10.253 9.269,-10.23" /><path
         id="path90"
         style="fill:#6e787f;fill-opacity:1;fill-rule:nonzero;stroke:none"
         d="m 1542.04,251.086 c -8.53,2.551 -9.89,-2.625 -11.42,-9.578 -1.05,-4.797 1.53,-14.922 -7.06,-13.125 -8.28,1.726 -1.46,9.781 -1.03,14.629 0.9,10 3.79,19.812 5.44,29.773 0.73,4.317 2.27,6.856 6.9,5.82 4.86,-1.085 2.05,-4.519 1.8,-7.058 -0.38,-3.996 -3.64,-9.652 0.17,-11.508 4.23,-2.059 10.45,-1.656 15.29,-0.398 5.5,1.433 2.97,7.871 4.54,11.914 1.41,3.562 0.89,8.398 6.76,7.09 6.37,-1.418 2.04,-5.95 1.65,-8.594 -1.69,-11.281 -3.88,-22.492 -6.34,-33.633 -0.81,-3.633 -0.07,-9.805 -6.7,-8.527 -6.87,1.32 -1.09,6.347 -2.01,9.543 -0.32,1.093 0.4,2.539 0.81,3.781 2.68,8.152 0.2,11.851 -8.8,9.871" /><path
         id="path92"
         style="fill:#6e787f;fill-opacity:1;fill-rule:nonzero;stroke:none"
         d="m 1096.11,259.086 c 7.26,-2.16 10.19,2.168 10.75,9.566 0.17,2.27 0.74,4.512 1.19,6.75 0.69,3.504 3.35,3.489 6.07,3.25 3.57,-0.32 2.93,-2.968 2.52,-5.117 -2.6,-13.777 -5.34,-27.527 -7.99,-41.297 -0.7,-3.593 -2.94,-4.922 -6.37,-4.425 -4.13,0.609 -2.8,3.605 -2.43,6.054 0.25,1.606 0.87,3.149 1.16,4.746 2.39,13.188 2.38,12.825 -10.86,12.864 -5.57,0.019 -7.53,-2.207 -8.25,-7.082 -0.67,-4.508 -1.59,-8.993 -2.53,-13.465 -0.73,-3.504 -3.56,-3.391 -6.2,-3.094 -3.62,0.398 -2.57,2.891 -2.12,5.144 2.64,13.45 5.29,26.883 7.79,40.352 0.7,3.738 2.05,6.047 6.35,5.391 5.38,-0.832 1.85,-4.453 2.2,-6.828 0.13,-0.926 -0.21,-1.942 -0.39,-2.899 -1.92,-9.91 -1.92,-9.91 9.11,-9.91" /><path
         id="path94"
         style="fill:#6e787f;fill-opacity:1;fill-rule:nonzero;stroke:none"
         d="m 629.918,259.316 c 7.762,-1.929 10.918,1.614 11.176,9.016 0.094,2.578 1.086,5.106 1.625,7.664 0.683,3.227 3.258,2.695 5.449,2.656 2.633,-0.054 3.215,-1.922 2.805,-4.07 -2.785,-14.758 -5.563,-29.512 -8.516,-44.23 -0.594,-2.957 -3.352,-2.672 -5.637,-2.528 -3.406,0.227 -3.187,2.512 -2.675,4.949 0.402,1.926 0.707,3.86 1.046,5.793 2.25,12.801 -0.5,15.235 -13.828,12.825 -2.812,-0.508 -3.843,-1.645 -4.265,-4.25 -0.68,-4.18 -1.528,-8.36 -2.543,-12.469 -0.817,-3.281 -0.664,-7.895 -6.133,-6.836 -5.215,1.004 -3,5.23 -2.52,7.945 2.239,12.539 5.067,24.973 7.297,37.512 0.707,3.992 2.153,5.93 6.313,5.422 5.359,-0.664 2.504,-4.074 2.269,-6.594 -0.086,-0.976 -0.136,-2.004 -0.472,-2.898 -3.2,-8.625 -0.309,-11.985 8.609,-9.907" /><path
         id="path96"
         style="fill:#6e787f;fill-opacity:1;fill-rule:nonzero;stroke:none"
         d="m 844.305,251.32 c -8.274,2.578 -8.789,-3.933 -10.575,-10.156 -1.382,-4.805 1.579,-14.824 -7.328,-12.668 -6.898,1.672 -1.359,9.465 -0.621,14.356 1.508,10.011 4,19.867 5.59,29.867 0.688,4.312 2.051,6.824 6.742,5.965 5.36,-0.996 1.446,-4.543 1.785,-6.914 0.043,-0.301 -0.246,-0.735 -0.117,-0.95 2.176,-3.66 -7.187,-9.695 1.938,-11.597 12.422,-2.582 15.758,-0.422 17.636,9.468 0.489,2.571 1.071,5.129 1.747,7.649 0.855,3.164 3.511,2.336 5.656,2.246 2.859,-0.137 2.777,-2.344 2.418,-4.285 -2.692,-14.453 -5.422,-28.899 -8.235,-43.324 -0.671,-3.465 -3.519,-3.485 -6.199,-3.125 -3.433,0.453 -2.793,2.785 -2.262,5.175 0.571,2.551 0.813,5.168 1.274,7.739 1.914,10.586 1.926,10.574 -9.449,10.554" /><path
         id="path98"
         style="fill:#6d767e;fill-opacity:1;fill-rule:nonzero;stroke:none"
         d="m 32.5781,260.766 c 11.8594,4.468 14.2071,20.996 29.6367,17.488 -3.3398,-6.34 -8.8476,-10.383 -13.6328,-14.883 -4.0312,-3.801 -4.5039,-7.109 -2.0234,-11.941 3.6992,-7.207 6.7305,-14.77 10.6758,-23.567 -16.8477,-0.468 -12.8008,16.297 -21.1602,21.973 -5.6094,-3.223 -8.5508,-8.391 -9.082,-15.422 -0.2656,-3.453 -1.2813,-7.637 -6.4453,-6.551 -5.25,1.114 -2.7735,5.227 -2.2813,7.942 2.2032,12.183 4.8985,24.273 7.1328,36.453 0.7188,3.887 1.3438,7.195 6.4063,6.445 6.0039,-0.898 2.4531,-4.746 2.2187,-7.449 -0.2734,-3.195 -0.8593,-6.367 -1.4453,-10.488" /><path
         id="path100"
         style="fill:#6e787f;fill-opacity:1;fill-rule:nonzero;stroke:none"
         d="m 339.984,250.051 c -0.183,-6.961 0.731,-12.293 6.68,-14.258 6.047,-1.992 10.824,0.715 14.25,5.867 0.899,1.36 1.438,3.012 2.516,4.184 2.074,2.246 5,2.039 7.152,0.691 2.129,-1.328 0.199,-3.457 -0.453,-5.137 -4.172,-10.703 -14.555,-16.66 -24.848,-14.296 -9.836,2.253 -15.008,10.312 -14.406,22.453 0.762,15.437 7.879,26.328 19.57,29.929 11.071,3.418 21.852,-2.148 23.856,-12.296 0.445,-2.235 1.39,-4.774 -1.719,-5.704 -2.137,-0.632 -5.379,-1.121 -6.148,1.282 -2.11,6.582 -5.731,10.324 -12.914,8.613 -8.247,-1.973 -10.625,-8.984 -12.735,-15.969 -0.652,-2.156 -0.683,-4.5 -0.801,-5.359" /><path
         id="path102"
         style="fill:#6e787f;fill-opacity:1;fill-rule:nonzero;stroke:none"
         d="m 213.688,244.926 c 0.199,11.726 2.156,20.562 8.593,27.769 5.641,6.321 12.871,8.957 21.18,7.446 6.555,-1.203 11.246,-5.11 13.121,-11.743 0.664,-2.339 2.422,-5.418 -0.977,-6.804 -2.769,-1.121 -5.179,-0.496 -7.23,2.82 -6.266,10.149 -15.66,9.824 -21.496,-0.684 -3.332,-6.011 -5.617,-12.578 -3.906,-19.683 0.941,-3.906 2.55,-7.563 7.05,-8.527 4.457,-0.957 8.485,-0.071 11.426,3.703 1.399,1.793 2.793,3.64 3.805,5.664 1.598,3.179 4.57,2.918 6.758,2.078 3.519,-1.348 1.5,-4.258 0.621,-6.453 -3.781,-9.399 -14.164,-15.434 -23.457,-13.762 -10.172,1.836 -15.371,8.711 -15.488,18.176" /><path
         id="path104"
         style="fill:#6e787f;fill-opacity:1;fill-rule:nonzero;stroke:none"
         d="m 933.277,246.27 c -1.086,-6.063 -4.062,-11.063 -8.75,-14.872 -6.672,-5.421 -14.336,-6.484 -22.066,-2.968 -6.965,3.156 -9.434,9.55 -9.789,16.875 -0.516,10.515 1.746,20.234 9.074,28.133 10.074,10.851 27.809,9.066 32.984,-3.219 1.211,-2.895 3.254,-6.606 -0.585,-8.606 -3.504,-1.836 -6.161,0.301 -7.168,4.153 -0.157,0.613 -0.555,1.187 -0.938,1.707 -3.113,4.218 -7.156,5.3 -12.078,3.64 -7.148,-2.41 -13.059,-13.23 -12.52,-23.66 0.258,-5.012 1.332,-10.168 6.977,-11.789 6.078,-1.734 11.285,0.617 14.008,6.191 2.492,5.122 5.578,6.758 10.851,4.415" /><path
         id="path106"
         style="fill:#6e787f;fill-opacity:1;fill-rule:nonzero;stroke:none"
         d="m 1727.7,246.262 c -0.99,-6.082 -3.96,-11.082 -8.73,-14.844 -6.34,-5 -13.48,-6.609 -21.12,-3.359 -7.52,3.203 -10.29,9.543 -10.7,17.285 -0.94,17.722 7.37,31.472 20.99,34.629 10.44,2.414 20.47,-3.243 22.09,-12.61 0.36,-2.066 1.43,-4.937 -1.62,-5.855 -2.41,-0.727 -4.63,-0.656 -6.65,2.234 -7.99,11.477 -16.63,10.547 -22.85,-2.004 -2.09,-4.218 -3.12,-8.711 -3.12,-13.25 0.01,-5.273 0.67,-10.929 6.89,-12.785 6.1,-1.812 11.29,0.52 14.04,6.086 2.49,5.066 5.46,6.941 10.78,4.473" /><path
         id="path108"
         style="fill:#6d767e;fill-opacity:1;fill-rule:nonzero;stroke:none"
         d="m 1785.2,253.789 c 0.25,7.102 3.47,17.426 14.23,23.715 11.37,6.629 24.62,2.195 28.21,-9.199 0.76,-2.414 2.32,-5.453 -1.06,-6.711 -2.57,-0.957 -5.19,-0.977 -7.24,2.644 -5.72,10.141 -14.47,10.227 -20.88,0.528 -3.89,-5.875 -5.57,-12.555 -4.78,-19.571 0.48,-4.382 2.6,-8.308 7.22,-9.578 4.76,-1.308 9.08,-0.066 12.18,4.071 0.98,1.289 1.95,2.648 2.62,4.113 1.72,3.847 5.12,4.551 8.05,2.871 3.09,-1.77 0.36,-4.617 -0.58,-6.738 -4.33,-9.739 -14.02,-14.903 -23.75,-12.864 -10.32,2.16 -14.47,8.606 -14.22,26.719" /><path
         id="path110"
         style="fill:#6e787f;fill-opacity:1;fill-rule:nonzero;stroke:none"
         d="m 1639.87,263.098 c 8.38,4.843 8.82,18.625 22.86,14.687 -4.44,-5.945 -8.06,-11.75 -12.65,-16.64 -5.07,-5.411 -5.49,-10.528 -1.85,-16.668 1.81,-3.086 3.25,-6.45 4.45,-9.829 0.74,-2.089 4.06,-4.871 0.35,-6.543 -2.86,-1.277 -6.63,-1.191 -8.39,2.727 -1.99,4.441 -3.86,8.934 -5.93,13.738 -8.77,-3.816 -8.88,-19.39 -23.11,-16.132 3.43,7.746 8.54,13.339 13.34,18.917 4.56,5.286 5.17,9.922 1.42,15.633 -1.6,2.434 -2.93,5.176 -3.71,7.973 -0.68,2.41 -4.63,5.562 -0.66,7.391 3.59,1.66 7.63,0.75 9.2,-4.336 1.14,-3.653 3.01,-7.09 4.68,-10.918" /><path
         id="path112"
         style="fill:#6d767e;fill-opacity:1;fill-rule:nonzero;stroke:none"
         d="m 999.527,235.512 c 7.353,-0.332 13.983,0.371 14.463,8.699 0.39,6.758 -5.27,6.543 -10.38,7.312 -9.727,1.465 -9.348,-5.625 -10.403,-11.375 -1.141,-6.296 3.945,-4.218 6.32,-4.636 z m -2.226,23.562 c 3.659,0 6.869,-0.019 10.099,0.012 8.12,0.066 14.1,-2.719 15.12,-11.711 1.12,-9.746 -3.03,-16.145 -11.92,-18.535 -7.7,-2.078 -15.584,-0.774 -23.389,-1.055 -4.453,-0.168 -4.52,2.832 -3.926,5.977 2.61,13.75 5.324,27.48 7.91,41.242 0.793,4.18 3.789,3.973 6.739,3.562 3.626,-0.507 2.316,-3.078 1.894,-5.253 -0.84,-4.461 -1.59,-8.946 -2.527,-14.239" /><path
         id="path114"
         style="fill:#6d767e;fill-opacity:1;fill-rule:nonzero;stroke:none"
         d="m 438.309,235.363 c 6.398,0.282 13.379,-0.324 13.918,8.555 0.418,6.863 -4.586,7.488 -9.907,7.52 -8.57,0.046 -11.414,-3.145 -11.054,-12.696 0.222,-5.984 4.886,-2.07 7.043,-3.379 z m -3.258,-7.949 c -14.77,0.332 -14.738,0.32 -11.832,14.758 1.871,9.273 3.48,18.609 5.508,27.859 0.82,3.739 0.101,9.785 6.625,8.496 6.586,-1.289 2.656,-6.418 1.843,-9.414 -1.996,-7.363 -1.027,-11.179 7.832,-10.136 8.735,1.027 14.719,-2.762 16.129,-11.844 1.41,-9.121 -4.011,-16.574 -13.461,-18.508 -4.125,-0.852 -8.429,-0.84 -12.644,-1.211" /><path
         id="path116"
         style="fill:#6d767e;fill-opacity:1;fill-rule:nonzero;stroke:none"
         d="m 965.465,278.742 c 3.926,-0.012 7.859,0.176 11.765,-0.078 2.18,-0.148 5.735,1.504 5.586,-3.098 -0.097,-3.101 -1.57,-5.359 -4.785,-4.714 -9.363,1.882 -10.691,-3.75 -11.64,-11.004 -1.102,-8.403 -3.36,-16.633 -4.754,-25 -0.703,-4.211 -1.242,-8.274 -6.867,-6.926 -5.332,1.269 -2.207,5.09 -1.727,7.871 1.551,8.992 2.695,18.125 5.125,26.895 1.855,6.707 0.363,8.828 -6.395,8.164 -2.207,-0.215 -5.753,-1.289 -5.781,3.027 -0.031,3.738 2.156,5.027 5.731,4.902 4.57,-0.168 9.16,-0.039 13.742,-0.039" /><path
         id="path118"
         style="fill:#6d767e;fill-opacity:1;fill-rule:nonzero;stroke:none"
         d="m 508.578,270.266 c -2.898,0.195 -5.16,0.222 -7.387,0.515 -2.304,0.317 -5.73,-1.16 -5.957,3.02 -0.199,3.758 1.961,5.019 5.551,4.969 8.832,-0.125 17.676,0.039 26.516,-0.086 1.957,-0.032 5.105,0.839 4.586,-3.086 -0.367,-2.754 -1.336,-5.52 -4.793,-4.793 -10.078,2.117 -10.844,-4.746 -11.949,-11.719 -1.274,-8.07 -2.696,-16.113 -4.403,-24.094 -0.687,-3.215 -0.586,-7.937 -6.019,-7.129 -6.086,0.899 -3.223,5.457 -2.711,8.426 1.937,11.215 4.289,22.356 6.566,33.977" /><path
         id="path120"
         style="fill:#6d767e;fill-opacity:1;fill-rule:nonzero;stroke:none"
         d="m 1858.1,278.73 c 3.93,0 7.86,0.137 11.79,-0.054 1.99,-0.102 5.29,1.101 5.18,-2.485 -0.08,-2.82 -0.98,-6.289 -5.19,-5.378 -9.62,2.07 -10.38,-4.571 -11.5,-11.18 -1.35,-8.07 -2.76,-16.137 -4.45,-24.121 -0.75,-3.535 -0.52,-8.891 -6.5,-7.571 -5.58,1.231 -2.67,5.821 -2.18,8.809 1.41,8.711 3.27,17.344 5.18,25.969 1.23,5.554 0.44,8.941 -6.42,8.14 -2.31,-0.269 -5.59,-0.996 -5.58,3.325 0.01,4.168 2.66,4.617 5.91,4.558 4.58,-0.066 9.17,-0.019 13.76,-0.012" /><path
         id="path122"
         style="fill:#6d767e;fill-opacity:1;fill-rule:nonzero;stroke:none"
         d="m 403.594,278.715 c 3.922,0 7.851,0.113 11.765,-0.051 2.336,-0.098 5.625,1.024 5.575,-3.301 -0.039,-3.23 -1.641,-5.144 -4.844,-4.543 -9.527,1.809 -10.266,-4.566 -11.363,-11.316 -1.469,-9.016 -3.653,-17.902 -5.219,-26.895 -0.625,-3.613 -2.219,-5.195 -5.836,-4.843 -5.317,0.515 -2.906,4.218 -2.481,6.621 1.715,9.636 3.653,19.238 5.668,28.808 1.051,4.989 0.684,8.243 -5.839,7.696 -2.235,-0.188 -6.567,-2.032 -6.684,2.722 -0.121,4.825 3.461,5.422 7.484,5.176 3.91,-0.242 7.848,-0.047 11.774,-0.047 0,-0.012 0,-0.019 0,-0.027" /><path
         id="path124"
         style="fill:#892d54;fill-opacity:1;fill-rule:nonzero;stroke:none"
         d="m 800.215,29.1406 c 0.058,24.5235 -0.004,49.0547 0.258,73.5784 0.062,5.847 -0.957,8.953 -7.938,8.953 -6.855,0 -8.066,-2.82 -8.004,-8.82 0.266,-24.52 0.133,-49.0434 0.141,-73.5629 -3.293,1.0078 -1.883,3.7617 -1.895,5.7304 -0.097,23.5664 0.305,47.1407 -0.261,70.6835 -0.207,8.383 4.261,7.922 9.765,7.668 5.215,-0.242 11.074,1.953 10.84,-7.539 -0.578,-23.5547 -0.16,-47.1289 -0.328,-70.6914 -0.016,-2.0742 1.941,-5.6172 -2.578,-6" /><path
         id="path126"
         style="fill:#707981;fill-opacity:1;fill-rule:nonzero;stroke:none"
         d="m 889.633,276.469 c -3.254,-16.535 -6.086,-30.586 -8.754,-44.668 -0.758,-3.996 -3.363,-4.336 -6.527,-3.957 -2.68,0.32 -2.825,2.129 -2.387,4.289 2.894,14.375 5.844,28.738 8.582,43.14 0.715,3.723 3.183,3.481 5.832,3.45 3.625,-0.047 3.246,-2.293 3.254,-2.254" /><path
         id="path128"
         style="fill:#6e787f;fill-opacity:1;fill-rule:nonzero;stroke:none"
         d="m 1051.2,232.934 c 2.61,13.433 5.27,26.875 7.81,40.332 0.68,3.589 1.82,6.011 6.26,5.515 5.54,-0.617 2.78,-4.328 2.38,-6.535 -2.4,-13.152 -5.32,-26.211 -7.63,-39.375 -0.75,-4.266 -2.7,-5.586 -6.57,-5.066 -3.5,0.461 -2.86,2.824 -2.25,5.129" /><path
         id="path130"
         style="fill:#6e787f;fill-opacity:1;fill-rule:nonzero;stroke:none"
         d="m 1468.41,273.352 c -2.58,-13.497 -5.15,-26.985 -7.7,-40.489 -0.74,-3.886 -2.89,-5.886 -6.89,-4.941 -4.02,0.945 -2.34,4.121 -1.91,6.406 2.44,13.184 5.12,26.328 7.57,39.512 0.64,3.457 2.11,5.129 5.86,4.93 4.15,-0.211 3.68,-2.743 3.07,-5.418" /><path
         id="path132"
         style="fill:#707981;fill-opacity:1;fill-rule:nonzero;stroke:none"
         d="m 755.129,234.008 c 2.527,13.047 5.285,26.812 7.809,40.625 0.742,4.09 3.39,4.363 6.488,4.031 3.371,-0.359 2.922,-2.676 2.433,-5.098 -2.793,-13.757 -5.543,-27.519 -8.226,-41.3 -0.57,-2.938 -1.703,-4.754 -5.113,-4.532 -3.891,0.254 -3.84,2.739 -3.391,6.274" /><path
         id="path134"
         style="fill:#6e787f;fill-opacity:1;fill-rule:nonzero;stroke:none"
         d="m 310.605,232.883 c 2.809,14.57 5.512,28.371 8.11,42.187 0.664,3.528 3.058,3.711 5.851,3.653 3.282,-0.059 3.688,-1.883 3.145,-4.563 -2.773,-13.789 -5.508,-27.574 -8.246,-41.375 -0.637,-3.176 -1.844,-5.461 -5.785,-5.039 -4.282,0.469 -2.782,3.543 -3.075,5.137" /><path
         id="path136"
         style="fill:#a11649;fill-opacity:1;fill-rule:nonzero;stroke:none"
         d="m 792.309,140.422 c 7.64,1.672 11.144,-0.117 10.761,-8.652 -0.336,-7.571 -2.539,-10.137 -10.289,-9.875 -6.98,0.238 -10.57,0.89 -10.246,9.484 0.297,7.859 2.094,11.309 9.774,9.043" /><path
         id="path138"
         style="fill:#6f1e42;fill-opacity:1;fill-rule:nonzero;stroke:none"
         d="m 1026.33,107.668 c -3.83,6.348 -1.23,13.301 -1.78,19.949 -0.47,5.637 1.7,11.809 -8.19,11.711 -9.28,-0.098 -7.62,-5.793 -7.62,-11.144 -0.01,-32.9965 0.01,-66.0043 0.03,-99.0121 -3.81,1.6601 -1.99,5.0508 -2,7.5664 -0.14,31.75 0.19,63.4957 -0.31,95.2387 -0.12,7.839 2.64,9.382 9.55,8.921 6.02,-0.386 11.84,0.891 10.7,-8.718 -0.94,-8.078 -0.31,-16.336 -0.38,-24.512" /><path
         id="path140"
         style="fill:#892d54;fill-opacity:1;fill-rule:nonzero;stroke:none"
         d="m 1059.9,29.1211 c 0.09,25.6445 0.16,51.2891 0.25,76.9259 3.09,-3.059 2.96,-7.0704 2.98,-10.9064 0.09,-19.8359 0.12,-39.6679 -0.05,-59.5039 -0.02,-2.3633 1.92,-6.3672 -3.18,-6.5156" /><path
         id="path142"
         style="fill:#707981;fill-opacity:1;fill-rule:nonzero;stroke:none"
         d="m 804.066,285.117 c -4.64,0.09 -7.996,0.735 -10.011,3.559 -1.969,2.762 -5.227,6.676 -2.129,9.383 3.715,3.242 3.742,-2.598 5.73,-3.965 4.957,-3.418 9.867,-3.223 13.649,1.855 1.523,2.039 3.121,4.004 5.359,2.356 2.574,-1.907 -0.059,-4.145 -0.949,-5.981 -2.59,-5.308 -7.438,-6.883 -11.649,-7.207" /><path
         id="path144"
         style="fill:#707981;fill-opacity:1;fill-rule:nonzero;stroke:none"
         d="m 1498.36,285.156 c -2.8,0.129 -6.98,1.028 -9.02,5.52 -1.02,2.258 -2.91,5.371 -0.8,7.226 3.53,3.106 3.65,-1.64 5.29,-3.086 5.07,-4.453 9.99,-4.101 14.29,1.114 1.52,1.836 3.02,4.297 5.33,2.097 1.92,-1.836 0.14,-4.273 -1.11,-6.172 -2.92,-4.39 -6.96,-6.796 -13.98,-6.699" /><path
         id="path146"
         style="fill:#6f1e42;fill-opacity:1;fill-rule:nonzero;stroke:none"
         d="m 926.168,116.699 c 0,-21.9724 0.008,-43.9412 0.008,-65.906 -3.953,21.9648 -3.738,43.9336 -0.008,65.906" /><path
         id="path148"
         style="fill:#892d54;fill-opacity:1;fill-rule:nonzero;stroke:none"
         d="m 1288.06,66.3984 c 7.36,3.9532 15.29,1.543 22.94,1.8164 12.52,0.4493 12.52,0.1446 12.5,13.0391 -0.01,5.5625 0,11.1328 0,16.6953 3.68,-8.7187 1.96,-17.9297 2.48,-26.9414 0.28,-5.039 -3.3,-4.6094 -6.61,-4.6094 -10.44,0.0196 -20.88,0 -31.31,0" /><path
         id="path150"
         style="fill:#a11646;fill-opacity:1;fill-rule:nonzero;stroke:none"
         d="m 292.676,389.238 c 0.043,-4.683 0.195,-9.375 0.094,-14.05 -0.067,-2.813 1.293,-3.118 3.484,-2.5 -2.176,-5.989 -0.902,-13.575 -8.035,-17.239 0.547,5.852 0.742,11.762 1.746,17.531 0.941,5.411 0.176,11.122 2.711,16.258" /><path
         id="path152"
         style="fill:#a11646;fill-opacity:1;fill-rule:nonzero;stroke:none"
         d="m 233.641,622.117 c -0.653,-3.746 -3.625,-3.039 -6.086,-3.058 -14.86,-0.102 -29.719,-0.137 -44.578,-0.196 16.804,2.446 33.761,2.422 50.664,3.254" /><path
         id="path154"
         style="fill:#892d54;fill-opacity:1;fill-rule:nonzero;stroke:none"
         d="m 1318.1,108.164 c -11.78,5.063 -24.27,2.973 -36.47,3.652 12.82,5.442 25.14,5.879 36.47,-3.652" /><path
         id="path156"
         style="fill:#6f1e42;fill-opacity:1;fill-rule:nonzero;stroke:none"
         d="m 1024.5,29.1992 c 0.01,20.8789 0.01,41.75 0.04,62.6289 0,0.5742 0.16,1.5703 0.45,1.6485 1.42,0.3906 1.07,-0.9375 1.34,-1.6485 0.07,-18.9922 0.19,-37.9883 0.13,-56.9726 -0.01,-1.9336 1.48,-4.7657 -1.96,-5.6563" /><path
         id="path158"
         style="fill:#a11646;fill-opacity:1;fill-rule:nonzero;stroke:none"
         d="m 206.68,591.383 c 12.847,-0.047 25.699,-0.086 38.55,-0.153 2.868,-0.011 5.883,0.309 7.696,-2.718 -15.465,0.269 -30.914,0.64 -46.246,2.871" /><path
         id="path160"
         style="fill:#a11646;fill-opacity:1;fill-rule:nonzero;stroke:none"
         d="m 143.992,595.328 c 12.293,-0.027 24.578,-0.015 36.867,-0.125 3.102,-0.031 6.618,0.957 8.789,-2.496 -15.285,-0.141 -30.492,0.777 -45.656,2.621" /><path
         id="path162"
         style="fill:#707981;fill-opacity:1;fill-rule:nonzero;stroke:none"
         d="m 331.563,293.684 c -1.071,-3.301 -0.95,-7.364 -6.172,-6.993 -2.934,0.215 -3.883,1.25 -3.371,4.192 0.613,3.531 0.597,7.222 5.8,6.89 2.809,-0.183 4.078,-1.406 3.743,-4.089" /><path
         id="path164"
         style="fill:#707981;fill-opacity:1;fill-rule:nonzero;stroke:none"
         d="m 775.73,293.559 c -0.929,-3.207 -0.64,-7.336 -5.98,-6.899 -2.895,0.246 -3.926,1.274 -3.387,4.223 0.641,3.496 0.59,7.246 5.825,6.883 2.816,-0.196 4.16,-1.297 3.542,-4.207" /><path
         id="path166"
         style="fill:#707981;fill-opacity:1;fill-rule:nonzero;stroke:none"
         d="m 1071.68,292.863 c -0.31,-3.449 -0.9,-6.523 -5.57,-6.152 -2.74,0.215 -4.49,1.113 -3.71,4.141 0.75,2.949 0.39,6.828 5.19,6.875 3.49,0.039 4.65,-1.629 4.09,-4.864" /><path
         id="path168"
         style="fill:#707981;fill-opacity:1;fill-rule:nonzero;stroke:none"
         d="m 1468.46,297.773 c 2.72,0.161 4.65,-0.781 4.17,-3.828 -0.49,-3.093 -0.42,-6.797 -4.95,-7.183 -3.13,-0.278 -5.1,0.601 -4.59,4.297 0.47,3.347 0.87,6.636 5.37,6.714" /><path
         id="path170"
         style="fill:#707981;fill-opacity:1;fill-rule:nonzero;stroke:none"
         d="m 892.809,293.906 c -0.379,-3.828 -0.286,-7.383 -5.141,-7.176 -2.359,0.098 -5.094,0.098 -4.301,3.497 0.742,3.144 0.184,7.664 5.664,7.468 2.938,-0.117 4.129,-1.492 3.778,-3.789" /><path
         id="path172"
         style="fill:#a11646;fill-opacity:1;fill-rule:nonzero;stroke:none"
         d="m 86.8555,599.25 c 10.9804,-0.027 21.9605,0.055 32.9415,-0.191 2.512,-0.051 6.066,1.793 7.293,-2.469 -13.469,0.105 -26.906,0.594 -40.2345,2.66" /><path
         id="path174"
         style="fill:#6f1e42;fill-opacity:1;fill-rule:nonzero;stroke:none"
         d="m 1378.38,91.8672 c 0.03,4.5117 -0.17,9.0308 0.14,13.5238 0.32,4.718 -1.98,6.386 -6.24,6.386 6.38,4.543 9.7,2.942 8.45,-4.863 -0.8,-5.008 3.3,-10.8398 -2.35,-15.0468" /><path
         id="path176"
         style="fill:#a11646;fill-opacity:1;fill-rule:nonzero;stroke:none"
         d="m 410.879,829.52 c -0.133,3.214 -0.344,6.367 -4.961,5.632 1.66,4.508 3.324,9.02 5.621,15.239 3.035,-8.36 1.359,-14.621 -0.66,-20.871" /><path
         id="path178"
         style="fill:#707981;fill-opacity:1;fill-rule:nonzero;stroke:none"
         d="m 989.469,50.5 c 0.097,16.9648 0.097,16.9648 -17.871,18.2031 4.558,2.6641 9.531,0.6836 14.265,1.2383 4.68,0.5586 6.739,-1.3555 5.774,-6.1875 -0.879,-4.3867 0.73,-9.1914 -2.168,-13.2539" /><path
         id="path180"
         style="fill:#892d54;fill-opacity:1;fill-rule:nonzero;stroke:none"
         d="m 1323.33,42.9023 c 0.06,13.5352 -0.9,14.0899 -10.68,13.711 -6.07,-0.2344 -3.81,-6.1406 -7.17,-7.6758 0.61,3.1563 -2.09,8.1172 2.67,9.0039 5.21,0.9766 12.04,2.5391 15.86,-0.8008 3.73,-3.25 1.95,-9.5234 -0.68,-14.2383" /><path
         id="path182"
         style="fill:#6f1e42;fill-opacity:1;fill-rule:nonzero;stroke:none"
         d="m 970.219,107.453 c 1.906,0.051 3.82,0.125 5.722,0.125 13.184,0 13.184,-0.008 13.098,13.508 2,-4.805 4.238,-12.527 0.926,-14.172 -5.594,-2.773 -13.27,-3.426 -19.746,0.539" /><path
         id="path184"
         style="fill:#6f1e42;fill-opacity:1;fill-rule:nonzero;stroke:none"
         d="m 1170.01,1.66016 c 0,10.92964 0,21.85544 0,32.78514 0.61,0 1.21,0.0078 1.81,0.0078 0,-10.7304 0,-21.4648 0,-32.19529 -0.6,-0.20312 -1.2,-0.40234 -1.81,-0.59765" /><path
         id="path186"
         style="fill:#6f1e42;fill-opacity:1;fill-rule:nonzero;stroke:none"
         d="m 1367.03,89.1211 c 1.93,4.8867 6.23,1.7773 9.31,2.7461 -3.1,-0.918 -6.21,-1.8281 -9.31,-2.7461" /><path
         id="path188"
         style="fill:#a11649;fill-opacity:1;fill-rule:nonzero;stroke:none"
         d="m 463.555,593.543 c 1.433,1.445 3.078,1.645 4.883,0.785 -1.625,-0.265 -3.258,-0.527 -4.883,-0.785" /><path
         id="path190"
         style="fill:#707981;fill-opacity:1;fill-rule:nonzero;stroke:none"
         d="m 970.766,67.7969 0.226,-0.4102 -0.449,-0.0234 c 0,0.0117 -0.254,0.3633 -0.254,0.3633 l 0.477,0.0703" /><path
         id="path192"
         style="fill:#f9fbfc;fill-opacity:1;fill-rule:nonzero;stroke:none"
         d="m 478.23,614.738 c 6.426,5.082 13.149,1.145 19.657,0.418 17.203,-1.918 34.363,-4.195 51.531,-6.41 2.84,-0.363 5.895,-0.332 8.84,-3.375 -28.469,-3.328 -56.278,-6.59 -84.086,-9.848 1.351,6.407 2.707,12.809 4.058,19.215" /><path
         id="path194"
         style="fill:#a11646;fill-opacity:1;fill-rule:nonzero;stroke:none"
         d="m 1245.22,51.0586 c 0,15.5352 0,31.0742 0,46.6094 0.32,-0.0117 0.65,-0.0117 0.98,-0.0117 0,-15.5469 0,-31.1016 0,-46.6602 -0.33,0.0195 -0.66,0.0391 -0.98,0.0625" /><path
         id="path196"
         style="fill:#6f7980;fill-opacity:1;fill-rule:nonzero;stroke:none"
         d="m 1582.56,251.23 c 0.35,-0.488 1.05,-1.121 0.93,-1.375 -0.31,-0.664 -0.99,-1.164 -1.51,-1.726 -0.2,0.555 -0.62,1.16 -0.52,1.648 0.1,0.528 0.7,0.957 1.1,1.453" /><path
         id="path198"
         style="fill:#707981;fill-opacity:1;fill-rule:nonzero;stroke:none"
         d="m 1784.32,747.082 c 3.63,0.281 8.48,-0.953 8.93,4.648 0.48,5.958 -4.52,5.192 -8.16,5.309 -3.21,0.098 -7.28,1.418 -7.45,-4.519 -0.15,-5.247 2.66,-5.813 6.68,-5.438 z m 15.03,-23.937 c -8.25,-0.934 -10.04,5.398 -12.66,11.027 -1.28,2.758 -1.72,7.105 -6.2,6.371 -5.14,-0.844 -1.9,-5.281 -2.78,-7.992 -0.96,-2.965 2.36,-8.336 -3.47,-8.457 -6.43,-0.133 -3.92,5.539 -4.16,8.949 -0.34,4.891 -0.51,9.867 0.02,14.727 0.57,5.238 -3.19,13.195 2.39,15.16 7.02,2.476 15.63,2.355 23.12,-0.668 5.97,-2.403 8.78,-14.18 3.42,-17.598 -8.47,-5.394 -3.48,-9.867 -1.43,-15.133 0.8,-2.062 1.09,-4.34 1.61,-6.515 l 0.14,0.129" /></g></g></svg>