<svg xmlns="http://www.w3.org/2000/svg" xmlns:xlink="http://www.w3.org/1999/xlink" width="173" height="50" viewBox="0 0 173 50">
    <defs>
        <path id="a" d="M0 0h115v24H0z"/>
    </defs>
    <g fill="none" fill-rule="evenodd">
        <path fill="#FFF" d="M37.464 32.34c4.968-4.983 2.479-7.607 8.58-4.565-1.285 8.14-6.847 14.856-14.3 17.756-.658-8.977-.652-6.799 5.72-13.192zm-11.23-3.744c2.806-5.174.371-8.942-2.704-8.942-3.074 0-5.508 3.768-2.704 8.942.314.58-.313 1.256-.939 1.988-.501.59-5.84.03-8.714-2.09-1.96-1.97-3.64-5.66-3.166-6.213.584-.687 1.12-1.362 1.621-1.213 4.477 1.302 7.517-1.138 7.365-3.753-.153-2.617-3.433-4.315-7.633-.85-.47.389-1.21-.068-1.854-.448-.52-.304.525-2.729 2.183-5.577 1.883-2.14 4.5-2.443 5.053-2.197.684.304 1.348.573 1.362 1 .116 3.809 2.836 5.63 4.838 4.923 2.006-.707 2.46-3.651-1.314-6.17-.422-.28-.254-.965-.122-1.557.106-.478.234-.877 4.04-1.086v-.106l.001.106c3.806.21 3.933.608 4.039 1.086.13.592.3 1.277-.123 1.558-3.774 2.518-3.317 5.462-1.316 6.169 2.006.707 4.725-1.114 4.84-4.923.014-.427.68-.696 1.36-1 .556-.246 3.17.057 5.044 2.202 1.669 2.843 2.715 5.268 2.195 5.572-.644.38-1.385.837-1.856.448-4.198-3.465-7.48-1.767-7.631.85-.152 2.615 2.886 5.055 7.363 3.753.502-.149 1.038.526 1.623 1.213.467.55-1.173 4.168-3.108 6.154-2.854 2.166-8.296 2.743-8.804 2.149-.625-.732-1.252-1.407-.939-1.988zm-25.199-.762c6.1-3.043 3.61-.416 8.58 4.564 6.374 6.395 6.376 4.214 5.72 13.193-7.454-2.9-13.015-9.614-14.3-17.757zM7.413 9.83c-1.24 1.5-2.468 4.078-4.093 4.08 1.897-3.297 4.315-6.152 7.534-8.473.827.596-1.655 2.23-3.44 4.393zm21.55-7.549c-.78 1.462-3.55 1.248-5.37 1.248-1.819 0-4.686.214-5.464-1.248 1.711-.33 3.607-.61 5.463-.61 1.857 0 3.695.231 5.371.61zM43.7 13.91c-1.626 0-2.855-2.579-4.092-4.079-1.787-2.162-4.268-3.796-3.443-4.393C39.382 7.76 41.8 10.613 43.7 13.91zM0 24.5C0 37.479 10.521 48 23.5 48S47 37.478 47 24.5C47 11.52 36.479 1 23.5 1S0 11.521 0 24.5z"/>
        <g transform="translate(58 14)">
            <mask id="b" fill="#fff">
                <use xlink:href="#a"/>
            </mask>
            <path fill="#FFF" d="M0 19.766c0-.154.01-.378.175-.539.227-.236.599-.227.835-.227h1.93c.564 0 1.09.045 1.522.405.29.238.538.613.538 1.302V24H3.793v-2.961c0-.332-.033-.652-.225-.889-.176-.208-.424-.301-.867-.301H1.474c-.073 0-.143 0-.208.056-.06.065-.06.143-.06.208V24H0v-4.234zM11.561 21.028c.225 0 .256-.16.256-.29a.837.837 0 0 0-.334-.669c-.283-.207-.656-.227-.978-.227-.304 0-.773-.007-1.086.332-.236.254-.227.526-.236.854h2.378zM9.958 24c-.53 0-1.156-.045-1.588-.63-.342-.471-.37-1.158-.37-1.816 0-.93.047-1.616.616-2.085C9.183 19 10.064 19 10.552 19c.609 0 1.234.025 1.714.318.607.366.734.989.734 1.617 0 .252-.029.546-.244.75-.157.151-.35.19-.558.19H9.183c0 .216.03.536.07.686.145.537.625.594 1.047.594h2.535V24H9.958zM19.145 24c-.836 0-1.28-.12-1.67-.392-.398-.28-.621-.668-.621-1.339V19.6H16v-.9h.854V17h1.374v1.7h1.737v.899h-1.737v2.132c0 .358-.035.86.365 1.138.306.22.82.232 1.068.232H20V24h-.855zM24.097 22.67c.008.048.05.149.097.149.061 0 .09-.112.098-.14l.951-3.228c.128-.432.558-.451.755-.451.236 0 .638.048.756.451l.961 3.228c.012.04.04.14.088.14.05 0 .089-.082.107-.148l.992-3.616H30l-1.236 4.279c-.166.574-.51.666-.891.666-.276 0-.745-.046-.893-.544l-.903-3.064c-.01-.036-.028-.156-.079-.156-.047 0-.067.12-.079.156l-.9 3.064c-.08.248-.294.544-.892.544-.697 0-.823-.407-.894-.666L22 19.055h1.096l1 3.616zM34.375 22.764c.3.358.752.405 1.125.405.39 0 .807-.047 1.116-.405.312-.36.312-.831.312-1.255 0-.361.026-.913-.302-1.291-.301-.352-.755-.386-1.126-.386-.338 0-.842.034-1.136.386-.292.352-.292.978-.292 1.29 0 .407.008.905.303 1.256m3.021-3.246c.542.523.604 1.448.604 1.964 0 1.033-.256 1.651-.604 1.99-.505.49-1.354.528-1.896.528-.56 0-1.383-.037-1.897-.529-.56-.533-.603-1.453-.603-1.953 0-.552.061-1.477.603-2C34.117 19.019 34.94 19 35.5 19c.557 0 1.383.02 1.896.518M42 20.886c0-.546.101-1.084.563-1.453.502-.403 1.208-.433 1.627-.433H45v.848h-.502c-.318 0-.737.04-1.023.35-.227.256-.277.604-.277.98V24H42v-3.114zM51.63 24l-1.79-1.94c-.148-.16-.352-.43-.352-.799 0-.4.215-.63.362-.802l1.564-1.76h1.331L50.8 20.84c-.088.1-.168.213-.168.382 0 .168.118.347.247.49L53 24h-1.37zM48 24h1.145v-7H48v7zM56.073 23.152h3.137c.127 0 .296-.021.41-.143.106-.103.106-.236.106-.312 0-.132-.021-.264-.158-.378-.084-.062-.231-.13-1.01-.318l-1.074-.264c-.59-.143-1.001-.333-1.222-.605-.22-.275-.262-.602-.262-.85 0-.243.041-.577.262-.85.327-.402.864-.432 1.34-.432h3.146v.848H57.79c-.138 0-.296 0-.433.094-.148.107-.158.228-.158.361 0 .14.01.264.18.386.157.113.546.216.694.257l1.203.3c.661.17 1.114.3 1.389.564.282.275.335.641.335.917 0 .602-.252.913-.462 1.064-.285.19-.634.209-.896.209h-3.569v-.848zM68.88 24v-4.355H68v-.882h.88c.012-.344.118-.96.656-1.325.593-.408 1.75-.455 2.464-.434v.851c-.715 0-1.12.018-1.37.159-.18.097-.367.315-.358.74H72v.89h-1.728V24H68.88zM75.374 22.764c.301.358.753.405 1.125.405.392 0 .807-.047 1.117-.405.312-.36.312-.831.312-1.255 0-.361.026-.913-.302-1.291-.3-.352-.755-.386-1.127-.386-.336 0-.84.034-1.134.386-.293.352-.293.978-.293 1.29 0 .407.008.905.302 1.256m3.023-3.246c.541.523.603 1.448.603 1.964 0 1.033-.256 1.651-.603 1.99-.505.49-1.356.528-1.898.528-.557 0-1.381-.037-1.896-.529-.56-.533-.603-1.453-.603-1.953 0-.552.062-1.477.603-2 .515-.499 1.339-.518 1.896-.518.56 0 1.384.02 1.898.518M84 20.886c0-.546.099-1.084.564-1.453.502-.403 1.207-.433 1.627-.433H87v.848h-.502c-.32 0-.737.04-1.025.35-.224.256-.276.604-.276.98V24H84v-3.114zM94 24h1v-7h-1zM99 24h1v-5.3h-1V24zm0-6.071h1V17h-1v.929zM103.88 24v-4.355H103v-.882h.88c.015-.344.12-.96.657-1.325.593-.408 1.748-.455 2.463-.434v.851c-.715 0-1.121.018-1.37.159-.177.097-.365.315-.354.74H107v.89h-1.724V24h-1.396zM113.561 21.028c.224 0 .256-.16.256-.29a.844.844 0 0 0-.334-.669c-.283-.207-.657-.227-.979-.227-.303 0-.77-.007-1.085.332-.236.254-.228.526-.236.854h2.378zM111.957 24c-.53 0-1.155-.045-1.586-.63-.344-.471-.371-1.158-.371-1.816 0-.93.047-1.616.617-2.085.566-.469 1.447-.469 1.936-.469.607 0 1.232.025 1.712.318.608.366.735.989.735 1.617 0 .252-.03.546-.243.75-.158.151-.354.19-.559.19h-3.015c0 .216.032.536.069.686.145.537.625.594 1.047.594h2.536V24h-2.878z" mask="url(#b)"/>
        </g>
        <path fill="#FFF" d="M80.854 22.533c-.103-.072-.206-.22-.206-.477v-1.388h7.858v-2.785h-7.858v-.967c0-.168 0-.457.227-.623.163-.128.45-.183.718-.183h7.117V13H78.365c-.512 0-1.213.074-1.747.51-.537.44-.618.97-.618 1.466v8.782c0 .605 0 1.117.659 1.612.554.402 1.152.438 1.749.438h10.365v-3.111h-7.036c-.287 0-.657.019-.883-.164M70.136 18.873v1.904c0 .09 0 .31-.227.31-.164 0-.289-.183-.391-.31l-1.382-1.738-3.862-4.85C63.389 13.071 62.01 13 61.229 13 59.564 13 58 13.6 58 15.268v10.686h3.579V18.36c0-.367.226-.367.287-.367.145 0 .287.184.393.31l.987 1.243h-.001l4.217 5.291c.906 1.137 2.036 1.266 3.128 1.266 3.022 0 3.125-1.834 3.125-2.29V13.145h-3.58v5.727zM165.74 22.697c-.284 0-.658.019-.884-.164-.101-.072-.204-.22-.204-.476v-1.39h7.855v-2.783H164.652v-.967c0-.169 0-.458.223-.624.17-.128.454-.183.723-.183h7.116V13h-10.347c-.514 0-1.213.074-1.75.51-.53.44-.617.97-.617 1.466V23.759c0 .604 0 1.116.657 1.611.558.402 1.156.438 1.75.438h10.368v-3.111h-7.034zM123.23 13.146l-2.241 7.249-.146.472c-.1.327-.205.384-.269.384-.08 0-.204-.219-.223-.31l-.19-.578-1.97-5.974c-.433-1.317-1.851-1.389-2.654-1.389-.8 0-2.222.072-2.654 1.39l-1.805 5.48-.353 1.07c-.02.092-.146.31-.226.31-.064 0-.165-.056-.268-.383l-.337-1.089-2.05-6.632H89v3.181h5.147v9.626h4.646v-9.626h5.144v-.763l1.29 3.774 1.404 4.11c.74 2.177 1.687 2.654 3.537 2.654 2.182 0 2.878-.845 3.333-2.217l1.243-3.775.59-1.787c.04-.09.102-.33.203-.33.103 0 .164.24.205.33l.618 1.875 1.214 3.687c.453 1.372 1.152 2.217 3.332 2.217 1.852 0 2.796-.477 3.535-2.654l1.006-2.937 2.513-7.365h-4.73zM151.643 19.749l-.757 1.943c-.08.22-.203.276-.266.276-.062 0-.184-.056-.268-.276l-.704-1.82L146.98 13H142l3.262 7.101 1.739 3.786c.512 1.117 1.338 2.07 3.619 2.07 2.286 0 3.105-.953 3.62-2.07l2.063-4.49L159.239 13h-4.977l-2.619 6.749zM134.436 17.154c.039-.091.121-.277.185-.277.06 0 .143.186.185.277l1.295 3.237h-2.961l1.296-3.237zm3.475-2.599c-.678-1.428-1.913-1.555-3.29-1.555-2.223 0-2.839.6-3.292 1.555l-2.809 6.003-2.52 5.396h4.896l1.132-2.635h5.183l1.132 2.635h4.894l-2.585-5.534-2.741-5.865z"/>
    </g>
</svg>
