<svg width="51.582" height="70" xmlns="http://www.w3.org/2000/svg">

 <g>
  <title>background</title>
  <rect fill="none" id="canvas_background" height="72" width="53.582" y="-1" x="-1"/>
 </g>
 <g>
  <title>Layer 1</title>
  <g stroke="null" id="svg_1">
   <g stroke="null" id="svg_2">
    <path stroke="null" id="svg_3" fill="#91DC5A" d="m25.765031,0c-13.14203,0 -23.834001,10.691828 -23.834001,23.833858c0,5.281127 3.109218,13.312748 9.784949,25.27575c4.555395,8.162767 9.08979,15.057504 9.28108,15.34794l3.277364,4.967691c0.330437,0.501012 0.890307,0.802448 1.490607,0.802448s1.160171,-0.301436 1.490607,-0.802448l3.277222,-4.967405c0.189433,-0.28715 4.690827,-7.122314 9.281223,-15.348226c6.675732,-11.96243 9.784949,-19.994052 9.784949,-25.27575c0,-13.14203 -10.691971,-23.833858 -23.834001,-23.833858zm10.930405,47.369137c-4.526537,8.110909 -8.956787,14.838785 -9.143505,15.121506l-1.7869,2.708494l-1.786329,-2.707779c-0.187719,-0.285007 -4.651969,-7.07317 -9.144077,-15.12222c-6.192292,-11.096838 -9.332081,-19.015314 -9.332081,-23.535279c0,-11.172697 9.089647,-20.262344 20.262487,-20.262344s20.262487,9.089647 20.262487,20.262344c0,4.520537 -3.13979,12.438727 -9.332081,23.535279z"/>
    <path stroke="null" id="svg_4" fill="#91DC5A" d="m25.765031,10.470394c-7.286604,0 -13.214603,5.928142 -13.214603,13.214603s5.927999,13.214603 13.214603,13.214603s13.214603,-5.928142 13.214603,-13.214603s-5.927999,-13.214603 -13.214603,-13.214603zm0,22.857692c-5.317271,0 -9.643089,-4.325818 -9.643089,-9.643089s4.325818,-9.643089 9.643089,-9.643089c5.317413,0 9.643089,4.325818 9.643089,9.643089s-4.325675,9.643089 -9.643089,9.643089z"/>
   </g>
  </g>
  <g id="svg_5"/>
  <g id="svg_6"/>
  <g id="svg_7"/>
  <g id="svg_8"/>
  <g id="svg_9"/>
  <g id="svg_10"/>
  <g id="svg_11"/>
  <g id="svg_12"/>
  <g id="svg_13"/>
  <g id="svg_14"/>
  <g id="svg_15"/>
  <g id="svg_16"/>
  <g id="svg_17"/>
  <g id="svg_18"/>
  <g id="svg_19"/>
 </g>
</svg>