<?xml version="1.0" encoding="UTF-8" standalone="no"?>
<svg
   xmlns:dc="http://purl.org/dc/elements/1.1/"
   xmlns:cc="http://creativecommons.org/ns#"
   xmlns:rdf="http://www.w3.org/1999/02/22-rdf-syntax-ns#"
   xmlns:svg="http://www.w3.org/2000/svg"
   xmlns="http://www.w3.org/2000/svg"
   viewBox="0 0 155.03999 113.38667"
   height="113.38667"
   width="155.03999"
   xml:space="preserve"
   id="svg2"
   version="1.1"><metadata
     id="metadata8"><rdf:RDF><cc:Work
         rdf:about=""><dc:format>image/svg+xml</dc:format><dc:type
           rdf:resource="http://purl.org/dc/dcmitype/StillImage" /></cc:Work></rdf:RDF></metadata><defs
     id="defs6"><linearGradient
       id="linearGradient78"
       spreadMethod="pad"
       gradientTransform="matrix(-11.6243,9.75394,9.75394,11.6243,394.675,743.681)"
       gradientUnits="userSpaceOnUse"
       y2="0"
       x2="1"
       y1="0"
       x1="0"><stop
         id="stop70"
         offset="0"
         style="stop-opacity:1;stop-color:#ffffff" /><stop
         id="stop72"
         offset="0.303371"
         style="stop-opacity:1;stop-color:#ffffff" /><stop
         id="stop74"
         offset="0.758427"
         style="stop-opacity:1;stop-color:#ffffff" /><stop
         id="stop76"
         offset="1"
         style="stop-opacity:1;stop-color:#ffffff" /></linearGradient><linearGradient
       id="linearGradient92"
       spreadMethod="pad"
       gradientTransform="matrix(13.8452,10.817,10.817,-13.8452,767.08,742.692)"
       gradientUnits="userSpaceOnUse"
       y2="0"
       x2="1"
       y1="0"
       x1="0"><stop
         id="stop84"
         offset="0"
         style="stop-opacity:1;stop-color:#ffffff" /><stop
         id="stop86"
         offset="0.303371"
         style="stop-opacity:1;stop-color:#ffffff" /><stop
         id="stop88"
         offset="0.758427"
         style="stop-opacity:1;stop-color:#ffffff" /><stop
         id="stop90"
         offset="1"
         style="stop-opacity:1;stop-color:#ffffff" /></linearGradient><linearGradient
       id="linearGradient104"
       spreadMethod="pad"
       gradientTransform="matrix(0,21.9084,21.9084,0,582.161,820.619)"
       gradientUnits="userSpaceOnUse"
       y2="0"
       x2="1"
       y1="0"
       x1="0"><stop
         id="stop98"
         offset="0"
         style="stop-opacity:1;stop-color:#ffffff" /><stop
         id="stop100"
         offset="0.382022"
         style="stop-opacity:1;stop-color:#ffffff" /><stop
         id="stop102"
         offset="1"
         style="stop-opacity:1;stop-color:#ffffff" /></linearGradient></defs><g
     transform="matrix(1.3333333,0,0,-1.3333333,0,113.38667)"
     id="g10"><g
       transform="scale(0.1)"
       id="g12"><path
         id="path14"
         style="fill:#00a650;fill-opacity:1;fill-rule:evenodd;stroke:none"
         d="M 857.918,574.949 C 857.918,422.824 734.219,299.5 581.621,299.5 429.027,299.5 305.32,422.824 305.32,574.949 c 0,152.121 123.707,275.442 276.301,275.442 152.598,0 276.297,-123.321 276.297,-275.442" /><path
         id="path16"
         style="fill:#828083;fill-opacity:1;fill-rule:nonzero;stroke:none"
         d="m 0,47.8047 c 0,1.6562 0.0976563,4.0898 1.68359,5.8203 2.17188,2.5508 5.7461,2.457 8.01172,2.457 H 28.2109 c 5.4258,0 10.4688,-0.4922 14.625,-4.3828 C 45.6172,49.1328 48,45.0859 48,37.6406 V 2.08203 H 36 V 34.1758 c 0,3.5937 -0.3086,7.0625 -2.0937,9.6289 -1.6368,2.2617 -3.9375,3.2773 -8.0469,3.2773 H 14.4766 c -0.6758,0 -1.3282,0 -1.918,-0.6132 C 12,45.7695 12,44.9141 12,44.2148 V 2.08203 H 0 V 47.8047" /><path
         id="path18"
         style="fill:#828083;fill-opacity:1;fill-rule:nonzero;stroke:none"
         d="m 117.168,32.082 c 2.289,0 2.602,1.6993 2.602,3.0821 0,3.2812 -1.696,5.7656 -3.403,7.082 -2.883,2.1953 -6.679,2.4023 -9.961,2.4023 -3.093,0 -7.8669,0.086 -11.0544,-3.5195 -2.4024,-2.6836 -2.3203,-5.5664 -2.4024,-9.0469 z M 100.781,2.08203 c -5.7537,0 -12.5388,0.51172 -17.2224,7.11719 -3.7109,5.32418 -4.0195,13.07418 -4.0195,20.51168 0,10.4961 0.5117,18.25 6.6797,23.5469 6.164,5.2891 15.7192,5.2891 21.0082,5.2891 6.605,0 13.39,-0.2774 18.593,-3.5821 6.59,-4.1367 7.973,-11.1757 7.973,-18.2656 0,-2.8554 -0.316,-6.1719 -2.648,-8.4726 -1.704,-1.7071 -3.805,-2.1446 -6.051,-2.1446 H 93.8398 c 0,0 0.3086,-7.2226 0.711,-8.8203 1.4765,-5.6875 6.3592,-6.289 10.6682,-6.1797 H 132 V 2.08203 h -31.219" /><path
         id="path20"
         style="fill:#828083;fill-opacity:1;fill-rule:nonzero;stroke:none"
         d="m 189.531,2.08203 c -7.09,-0.07422 -10.871,1.12891 -14.172,3.82813 -3.382,2.78125 -7.355,13.35544 -7.355,13.35544 V 47.082 H 162 v 6 h 6.004 v 18 h 15 v -18 h 15 v -6 h -15 V 25.1641 c 0,-3.6875 -0.309,-8.8399 3.148,-11.711 2.641,-2.2617 7.082,-2.3711 9.223,-2.3711 h 2.629 V 2.08203 h -8.473" /><path
         id="path22"
         style="fill:#828083;fill-opacity:1;fill-rule:nonzero;stroke:none"
         d="m 242.355,17.0039 c 0.09,-0.5078 0.508,-1.5859 0.993,-1.5859 0.621,0 0.918,1.1992 0.996,1.4961 l 9.668,34.8867 c 1.304,4.6719 5.676,4.8828 7.676,4.8828 2.402,0 6.484,-0.5156 7.679,-4.8828 l 9.778,-34.8867 c 0.113,-0.418 0.402,-1.4961 0.894,-1.4961 0.504,0 0.902,0.8789 1.082,1.5859 l 10.09,39.0781 h 11.152 L 289.809,9.83984 c -1.7,-6.19531 -5.188,-7.19531 -9.067,-7.19531 -2.801,0 -7.57,0.4961 -9.074,5.88281 l -9.18,33.10936 c -0.105,0.3906 -0.289,1.6797 -0.8,1.6797 -0.485,0 -0.688,-1.2891 -0.801,-1.6797 L 251.73,8.52734 c -0.8,-2.67968 -2.98,-5.88281 -9.066,-5.88281 -7.078,0 -8.367,4.40235 -9.082,7.19531 L 221.043,56.082 h 11.152 l 10.16,-39.0781" /><path
         id="path24"
         style="fill:#828083;fill-opacity:1;fill-rule:nonzero;stroke:none"
         d="m 345.555,13.3594 c 3.375,-3.87112 8.457,-4.37502 12.652,-4.37502 4.375,0 9.066,0.5039 12.543,4.37502 3.512,3.8828 3.512,8.9804 3.512,13.5664 0,3.8906 0.293,9.8594 -3.395,13.9492 -3.394,3.8047 -8.484,4.1641 -12.66,4.1641 -3.793,0 -9.469,-0.3594 -12.766,-4.1641 -3.289,-3.8047 -3.289,-10.5703 -3.289,-13.9492 0,-4.3945 0.086,-9.7695 3.403,-13.5664 z m 33.968,35.0859 c 6.09,-5.664 6.79,-15.6562 6.79,-21.2305 0,-11.1562 -2.883,-17.84761 -6.79,-21.49996 -5.679,-5.312496 -15.23,-5.71093375 -21.316,-5.71093375 -6.285,0 -15.551,0.39843775 -21.332,5.71093375 -6.289,5.76566 -6.773,15.70316 -6.773,21.10936 0,5.9649 0.687,15.9571 6.773,21.6211 5.781,5.3789 15.047,5.5938 21.332,5.5938 6.266,0 15.555,-0.2149 21.316,-5.5938" /><path
         id="path26"
         style="fill:#828083;fill-opacity:1;fill-rule:nonzero;stroke:none"
         d="m 420,35.7148 c 0,5.8946 1.012,11.6993 5.645,15.6915 5.027,4.3593 12.093,4.6757 16.293,4.6757 H 450 v -9 h -5.016 c -3.175,0 -7.351,-0.414 -10.218,-3.6953 C 432.492,40.6602 432,36.9648 432,32.9805 V 2.08203 H 420 V 35.7148" /><path
         id="path28"
         style="fill:#828083;fill-opacity:1;fill-rule:nonzero;stroke:none"
         d="M 518.168,2.08203 499.539,21.8438 c -1.531,1.6328 -3.66,4.3789 -3.66,8.1445 0,4.0664 2.234,6.418 3.762,8.1562 l 16.285,17.9375 h 13.863 L 509.52,34.2852 c -0.918,-1.0274 -1.747,-2.168 -1.747,-3.8946 0,-1.7148 1.231,-3.5351 2.567,-4.9883 L 532.434,2.08203 Z m -35.164,0 V 71.082 H 495 V 2.08203 h -11.996" /><path
         id="path30"
         style="fill:#828083;fill-opacity:1;fill-rule:nonzero;stroke:none"
         d="m 561,11.082 h 30.195 c 1.223,0 2.852,0.2227 3.95,1.5352 1.015,1.1211 1.015,2.5625 1.015,3.3789 0,1.4414 -0.203,2.8672 -1.512,4.1094 -0.816,0.6679 -2.23,1.4062 -9.726,3.4531 l -10.336,2.8594 c -5.68,1.5429 -9.641,3.5937 -11.766,6.5547 -2.125,2.9765 -2.523,6.5273 -2.523,9.2148 0,2.6289 0.398,6.2422 2.523,9.2031 3.145,4.375 8.313,4.6914 12.891,4.6914 H 606 v -9 h -28.477 c -1.324,0 -2.851,0 -4.16,-1.0156 -1.425,-1.1523 -1.527,-2.4648 -1.527,-3.918 0,-1.5156 0.102,-2.8593 1.742,-4.1718 1.504,-1.2383 5.25,-2.3555 6.668,-2.793 l 11.578,-3.25 c 6.371,-1.8438 10.727,-3.25 13.371,-6.1172 2.719,-2.9766 3.227,-6.9492 3.227,-9.9336 0,-6.53514 -2.422,-9.89842 -4.449,-11.54296 -2.735,-2.05468 -6.094,-2.25781 -8.614,-2.25781 H 561 V 11.082" /><path
         id="path32"
         style="fill:#828083;fill-opacity:1;fill-rule:nonzero;stroke:none"
         d="M 699,2.08203 V 47.082 h -9 v 9 h 7.262 c 0.093,3.5118 0.965,9.8008 5.414,13.5352 4.887,4.1601 14.426,4.6484 20.328,4.4219 V 65.168 c -6.012,0 -9.414,-0.1758 -11.516,-1.6055 -1.508,-0.9844 -3.082,-3.1836 -3.004,-7.4805 h 14.52 v -9 H 711 V 2.08203 h -12" /><path
         id="path34"
         style="fill:#828083;fill-opacity:1;fill-rule:nonzero;stroke:none"
         d="m 769.586,13.3594 c 3.383,-3.87112 8.457,-4.37502 12.648,-4.37502 4.407,0 9.067,0.5039 12.551,4.37502 3.516,3.8828 3.516,8.9804 3.516,13.5664 0,3.8906 0.289,9.8594 -3.395,13.9492 -3.383,3.8047 -8.492,4.1641 -12.672,4.1641 -3.785,0 -9.449,-0.3594 -12.761,-4.1641 -3.282,-3.8047 -3.282,-10.5703 -3.282,-13.9492 0,-4.3945 0.086,-9.7695 3.395,-13.5664 z m 33.988,35.0859 c 6.082,-5.664 6.778,-15.6562 6.778,-21.2305 0,-11.1562 -2.887,-17.84761 -6.778,-21.49996 -5.676,-5.312496 -15.254,-5.71093375 -21.34,-5.71093375 -6.277,0 -15.535,0.39843775 -21.328,5.71093375 -6.289,5.76566 -6.777,15.70316 -6.777,21.10936 0,5.9649 0.687,15.9571 6.777,21.6211 5.793,5.3789 15.051,5.5938 21.328,5.5938 6.286,0 15.551,-0.2149 21.34,-5.5938" /><path
         id="path36"
         style="fill:#828083;fill-opacity:1;fill-rule:nonzero;stroke:none"
         d="m 846,35.7148 c 0,5.8946 0.992,11.6993 5.648,15.6915 5.032,4.3593 12.106,4.6757 16.309,4.6757 H 876 v -9 h -5.016 c -3.183,0 -7.351,-0.414 -10.226,-3.6953 -2.242,-2.7265 -2.754,-6.4219 -2.754,-10.4062 V 2.08203 H 846 V 35.7148" /><path
         id="path38"
         style="fill:#828083;fill-opacity:1;fill-rule:nonzero;stroke:none"
         d="m 957,71.082 h 12 V 2.08203 H 957 V 71.082" /><path
         id="path40"
         style="fill:#828083;fill-opacity:1;fill-rule:nonzero;stroke:none"
         d="m 1005,56.082 h 12 V 2.08203 h -12 z m 0,6 v 9 h 12 v -9 h -12" /><path
         id="path42"
         style="fill:#828083;fill-opacity:1;fill-rule:nonzero;stroke:none"
         d="M 1056,2.08203 V 47.082 h -9 v 9 h 7.26 c 0.12,3.5118 0.99,9.8008 5.42,13.5352 4.89,4.1601 14.42,4.6484 20.32,4.4219 V 65.168 c -6.01,0 -9.42,-0.1758 -11.51,-1.6055 -1.49,-0.9844 -3.08,-3.1836 -2.97,-7.4805 H 1080 v -9 h -12 V 2.08203 h -12" /><path
         id="path44"
         style="fill:#828083;fill-opacity:1;fill-rule:nonzero;stroke:none"
         d="m 1145.68,32.082 c 2.28,0 2.6,1.6993 2.6,3.0821 0,3.2812 -1.72,5.7656 -3.4,7.082 -2.89,2.1953 -6.69,2.4023 -9.97,2.4023 -3.09,0 -7.85,0.086 -11.05,-3.5195 -2.41,-2.6836 -2.32,-5.5664 -2.41,-9.0469 z m -15.9,-29.99997 c -5.76,0 -12.54,0.51172 -17.21,7.11719 -3.73,5.32418 -4.03,13.07418 -4.03,20.51168 0,10.4961 0.52,18.25 6.7,23.5469 6.14,5.2891 15.69,5.2891 21,5.2891 6.59,0 13.37,-0.2774 18.58,-3.5821 6.59,-4.1367 7.97,-11.1757 7.97,-18.2656 0,-2.8554 -0.32,-6.1719 -2.64,-8.4726 -1.71,-1.7071 -3.84,-2.1446 -6.06,-2.1446 h -31.74 c 0,0 0.32,-7.2226 0.7,-8.8203 1.48,-5.6875 6.37,-6.289 10.67,-6.1797 H 1161 V 2.08203 h -31.22" /><path
         id="path46"
         style="fill:#00a650;fill-opacity:1;fill-rule:evenodd;stroke:none"
         d="m 1032,171.34 c 34.26,3.762 68.05,8.32 100.87,13.738 H 1158 v -32.996 h -78 v -16.426 c 0,-3.043 1.02,-4.785 2.03,-5.64 2.26,-2.164 5.99,-1.934 8.83,-1.934 H 1161 V 95.0781 h -104.69 c -6,0 -12.03,0.4102 -17.67,4.9729 -6.64,5.629 -6.64,11.441 -6.64,18.301 z M 885.906,157.211 c 14.75,0.73 29.547,1.598 44.336,2.602 l 7.129,-20.692 c 0.84,-2.48 2.082,-3.117 2.699,-3.117 0.649,0 1.887,0.637 2.707,3.117 l 7.649,22.102 c 15.73,1.203 31.441,2.515 47.117,3.996 l -20.855,-51.035 c -5.204,-12.692 -13.493,-23.5238 -36.618,-23.5238 -23.054,0 -31.402,10.8318 -36.59,23.5238 l -17.574,43.027 z m -169.418,-0.688 c 39.575,-0.347 80.856,0.165 122.887,1.567 L 865.559,95.0781 H 815.98 l -11.46,29.9999 h -52.5 L 740.551,95.0781 h -49.594 l 25.531,61.4449 z m -130.191,1.258 c 12.461,-0.722 25.273,-1.363 38.437,-1.883 l 1.918,-6.566 c 0.203,-1.039 1.465,-3.523 2.27,-3.523 0.637,0 1.695,0.644 2.719,4.355 l 1.468,5.375 c 14.664,-0.523 29.707,-0.98 45.082,-1.324 L 668.02,120.828 c -7.473,-24.7421 -17.024,-30.1678 -35.75,-30.1678 -22.051,0 -29.118,9.6098 -33.688,25.1988 l -12.285,41.922 z M 473.73,170.078 h 0.071 c 14.496,-1.801 30.265,-3.48 47.121,-5.004 l 3.402,-12.379 c 1.039,-3.715 2.071,-4.351 2.711,-4.351 0.817,0 2.086,2.476 2.285,3.523 l 3.575,12.168 c 11.878,-1 24.246,-1.918 37.07,-2.73 l -12.57,-42.91 c -4.594,-15.594 -11.637,-25.1997 -33.7,-25.1997 -18.715,0 -28.285,5.4258 -35.769,30.1637 l -14.196,46.719 z m -110.726,9.809 c 16.531,-0.801 32.574,-1.844 47.996,-3.043 V 95.0781 H 363.004 V 179.887 Z M 180,176.609 c 43.641,2.336 85.969,2.95 126,2.196 v -26.723 h -77.996 v -16.594 c 0,-2.976 1.023,-4.675 2.051,-5.511 2.25,-2.118 5.941,-1.895 8.804,-1.895 h 70.137 v -36 H 204.258 c -6.012,0 -12.039,0.4102 -17.617,4.9766 C 180,102.691 180,108.508 180,115.371 v 61.238 z M 0,159.91 V 95.0781 H 36 V 165.594 C 24.0156,163.855 12.0117,161.98 0,159.91 Z m 123.004,12.715 v -21.527 c 0,-1.024 0,-3.504 -2.277,-3.504 -1.653,0 -2.907,2.07 -3.938,3.504 l -13.902,19.652 c -16.305,-1.633 -32.7307,-3.547 -49.1956,-5.734 l 42.4258,-59.825 c 9.1018,-12.8512 20.4688,-14.3043 31.4608,-14.3043 30.387,0 31.418,20.7263 31.418,25.8903 v 58.633 c -11.922,-0.801 -23.91,-1.691 -35.992,-2.785 v 0" /><path
         id="path48"
         style="fill:#66c87f;fill-opacity:1;fill-rule:nonzero;stroke:none"
         d="m 123.004,173.98 c 12.082,1.106 24.07,2.004 35.992,2.805 v 62.293 H 123.004 V 173.98" /><path
         id="path50"
         style="fill:#66c87f;fill-opacity:1;fill-rule:nonzero;stroke:none"
         d="M 32.4805,239.371 C 15.7305,239.371 0,232.574 0,213.727 v -56.329 c 12.0117,2.063 24.0156,3.922 36,5.657 v 15.715 c 0,4.148 2.2734,4.148 2.8906,4.148 1.4532,0 2.8907,-2.074 3.9453,-3.508 l 9.9297,-14.047 c 16.4727,2.188 32.8828,4.102 49.1794,5.735 l -38.8395,54.836 c -8.9063,12.625 -22.7617,13.437 -30.625,13.437" /><path
         id="path52"
         style="fill:#66c87f;fill-opacity:1;fill-rule:nonzero;stroke:none"
         d="M 186.27,233.172 C 180.824,228.074 180,221.945 180,216.207 v -39.324 c 43.641,2.332 85.969,2.941 126,2.191 v 3.008 h -77.996 v 11.449 c 0,1.989 0,5.422 2.25,7.379 1.621,1.524 4.473,2.172 7.125,2.172 h 71.617 v 35.996 H 204.008 c -5.199,0 -12.317,-0.851 -17.738,-5.906" /><path
         id="path54"
         style="fill:#66c87f;fill-opacity:1;fill-rule:nonzero;stroke:none"
         d="M 462,239.078 H 312 v -35.996 h 51.004 v -24.613 c 16.531,-0.801 32.574,-1.84 47.996,-3.043 v 27.656 h 51 v 9.055 l 12.793,-42.059 h 0.07 c 14.207,-1.762 29.672,-3.41 46.196,-4.898 l -20.317,73.898 H 462" /><path
         id="path56"
         style="fill:#66c87f;fill-opacity:1;fill-rule:nonzero;stroke:none"
         d="m 577.98,239.594 c -8.093,0 -22.468,-0.824 -26.835,-15.793 l -18.25,-62.293 c 11.878,-1.008 24.246,-1.926 37.07,-2.738 l 5.957,20.308 c 0.422,1.031 1.039,3.758 2.058,3.758 1.043,0 1.653,-2.727 2.071,-3.758 l 6.246,-21.297 c 12.461,-0.722 25.273,-1.363 38.437,-1.883 l -19.918,67.903 c -4.375,14.969 -18.718,15.793 -26.836,15.793" /><path
         id="path58"
         style="fill:#66c87f;fill-opacity:1;fill-rule:nonzero;stroke:none"
         d="m 633.109,156.688 c 14.664,-0.52 29.707,-0.977 45.082,-1.321 l 25.411,83.711 H 655.77 l -22.661,-82.39" /><path
         id="path60"
         style="fill:#66c87f;fill-opacity:1;fill-rule:nonzero;stroke:none"
         d="m 852.918,239.078 32.988,-80.719 c 14.75,0.731 29.547,1.606 44.336,2.606 l -26.961,78.113 h -50.363" /><path
         id="path62"
         style="fill:#66c87f;fill-opacity:1;fill-rule:nonzero;stroke:none"
         d="m 950.426,162.375 c 15.73,1.199 31.441,2.512 47.117,3.988 l 29.687,72.715 h -50.324 l -26.48,-76.703" /><path
         id="path64"
         style="fill:#66c87f;fill-opacity:1;fill-rule:nonzero;stroke:none"
         d="m 1082.31,200.91 c 1.73,1.524 4.68,2.172 7.45,2.172 H 1161 v 35.996 h -104.98 c -5.22,0 -12.31,-0.851 -17.75,-5.906 -5.39,-5.098 -6.27,-11.227 -6.27,-16.965 v -48.449 c 35.01,3.918 69.53,8.672 103.07,14.324 H 1080 v 11.449 c 0,1.989 0,5.422 2.31,7.379" /><path
         id="path66"
         style="fill:#66c87f;fill-opacity:1;fill-rule:nonzero;stroke:none"
         d="m 763.305,158.082 13.105,36.793 c 0.399,1.039 1.231,3.148 1.871,3.148 0.61,0 1.438,-2.109 1.867,-3.148 l 13.11,-36.793 z m 14.976,81.512 c -22.472,0 -28.707,-6.836 -33.281,-17.68 l -28.406,-68.226 c 39.508,-0.352 80.715,0.156 122.672,1.558 l -27.715,66.668 c -6.86,16.238 -19.34,17.68 -33.27,17.68" /><path
         id="path68"
         style="fill:#ffffff;fill-opacity:1;fill-rule:evenodd;stroke:none"
         d="m 485.617,327.73 c 7.723,105.247 7.692,79.688 -67.254,154.633 -58.422,58.387 -29.148,89.172 -100.871,53.504 15.102,-95.445 80.481,-174.144 168.125,-208.137" /><path
         id="path80"
         style="fill:url(#linearGradient78);fill-opacity:1;fill-rule:evenodd;stroke:none"
         d="m 344.355,699.078 c 19.106,0.012 33.547,30.231 48.125,47.813 20.997,25.363 50.168,44.511 40.454,51.488 -37.84,-27.195 -66.27,-60.66 -88.579,-99.301" /><path
         id="path82"
         style="fill:#ffffff;fill-opacity:1;fill-rule:evenodd;stroke:none"
         d="m 678.543,328.438 c -7.73,105.214 -7.668,79.683 67.258,154.621 58.414,58.402 29.144,89.16 100.89,53.504 C 831.566,441.141 766.18,362.434 678.543,328.438" /><path
         id="path94"
         style="fill:url(#linearGradient92);fill-opacity:1;fill-rule:evenodd;stroke:none"
         d="m 819.105,699.078 c -19.117,0 -33.57,30.231 -48.109,47.813 -21.012,25.343 -50.176,44.504 -40.48,51.488 37.836,-27.227 66.261,-60.66 88.589,-99.301" /><path
         id="path96"
         style="fill:#ffffff;fill-opacity:1;fill-rule:evenodd;stroke:none"
         d="m 728.117,528.891 c -33.519,-25.457 -97.504,-32.219 -103.469,-25.254 -7.355,8.578 -14.73,16.496 -11.043,23.297 32.981,60.644 4.36,104.816 -31.796,104.816 -36.141,0 -64.762,-44.172 -31.797,-104.816 3.691,-6.801 -3.676,-14.719 -11.028,-23.297 -5.91,-6.914 -68.664,-0.348 -102.461,24.5 -23.054,23.09 -42.789,66.328 -37.226,72.828 6.871,8.047 13.164,15.953 19.055,14.215 52.636,-15.266 88.378,13.328 86.589,43.98 -1.793,30.672 -40.351,50.578 -89.726,9.961 -5.527,-4.551 -14.235,0.805 -21.813,5.258 -6.113,3.562 6.176,31.976 25.672,65.367 l 0.145,-0.062 c 21.984,25.148 52.761,28.695 59.269,25.816 8.039,-3.566 15.848,-6.73 16.004,-11.719 1.371,-44.652 33.348,-65.992 56.891,-57.707 23.582,8.293 28.914,42.789 -15.453,72.305 -4.965,3.297 -2.992,11.324 -1.434,18.258 1.246,5.605 2.742,10.277 47.504,12.73 0,0.399 0,0.836 0,1.246 0,-0.41 0,-0.847 0.012,-1.246 44.742,-2.453 46.238,-7.125 47.48,-12.73 1.543,-6.934 3.535,-14.961 -1.441,-18.258 -44.371,-29.516 -39.004,-64.012 -15.473,-72.305 23.578,-8.285 55.547,13.055 56.906,57.707 0.164,4.989 7.981,8.153 15.989,11.719 6.535,2.879 37.281,-0.668 59.3,-25.816 l 0.122,0.062 c 19.5,-33.391 31.808,-61.805 25.695,-65.367 -7.578,-4.453 -16.289,-9.809 -21.832,-5.258 -49.356,40.617 -87.938,20.711 -89.723,-9.961 -1.773,-30.652 33.934,-59.246 86.57,-43.98 5.918,1.738 12.2,-6.168 19.086,-14.215 5.489,-6.445 -13.789,-48.863 -36.543,-72.137 l -0.031,0.063" /><path
         id="path106"
         style="fill:url(#linearGradient104);fill-opacity:1;fill-rule:evenodd;stroke:none"
         d="m 582.703,820.75 c -21.375,0 -55.086,-2.516 -64.234,14.621 20.121,3.875 42.41,7.156 64.234,7.156 21.832,0 43.453,-2.711 63.149,-7.156 -9.176,-17.137 -41.739,-14.621 -63.149,-14.621" /></g></g></svg>