<?xml version="1.0" encoding="UTF-8" standalone="no"?>
<svg
   xmlns:dc="http://purl.org/dc/elements/1.1/"
   xmlns:cc="http://creativecommons.org/ns#"
   xmlns:rdf="http://www.w3.org/1999/02/22-rdf-syntax-ns#"
   xmlns:svg="http://www.w3.org/2000/svg"
   xmlns="http://www.w3.org/2000/svg"
   viewBox="0 0 641.23999 113.38667"
   height="113.38667"
   width="641.23999"
   xml:space="preserve"
   id="svg2"
   version="1.1"><metadata
     id="metadata8"><rdf:RDF><cc:Work
         rdf:about=""><dc:format>image/svg+xml</dc:format><dc:type
           rdf:resource="http://purl.org/dc/dcmitype/StillImage" /></cc:Work></rdf:RDF></metadata><defs
     id="defs6"><linearGradient
       id="linearGradient26"
       spreadMethod="pad"
       gradientTransform="matrix(-17.939,15.0526,15.0526,17.939,137.929,685.677)"
       gradientUnits="userSpaceOnUse"
       y2="0"
       x2="1"
       y1="0"
       x1="0"><stop
         id="stop18"
         offset="0"
         style="stop-opacity:1;stop-color:#ffffff" /><stop
         id="stop20"
         offset="0.303371"
         style="stop-opacity:1;stop-color:#ffffff" /><stop
         id="stop22"
         offset="0.758427"
         style="stop-opacity:1;stop-color:#ffffff" /><stop
         id="stop24"
         offset="1"
         style="stop-opacity:1;stop-color:#ffffff" /></linearGradient><linearGradient
       id="linearGradient40"
       spreadMethod="pad"
       gradientTransform="matrix(21.3613,16.6892,16.6892,-21.3613,712.782,684.152)"
       gradientUnits="userSpaceOnUse"
       y2="0"
       x2="1"
       y1="0"
       x1="0"><stop
         id="stop32"
         offset="0"
         style="stop-opacity:1;stop-color:#ffffff" /><stop
         id="stop34"
         offset="0.303371"
         style="stop-opacity:1;stop-color:#ffffff" /><stop
         id="stop36"
         offset="0.758427"
         style="stop-opacity:1;stop-color:#ffffff" /><stop
         id="stop38"
         offset="1"
         style="stop-opacity:1;stop-color:#ffffff" /></linearGradient><linearGradient
       id="linearGradient52"
       spreadMethod="pad"
       gradientTransform="matrix(0,33.8114,33.8114,0,427.335,804.44)"
       gradientUnits="userSpaceOnUse"
       y2="0"
       x2="1"
       y1="0"
       x1="0"><stop
         id="stop46"
         offset="0"
         style="stop-opacity:1;stop-color:#ffffff" /><stop
         id="stop48"
         offset="0.382022"
         style="stop-opacity:1;stop-color:#ffffff" /><stop
         id="stop50"
         offset="1"
         style="stop-opacity:1;stop-color:#ffffff" /></linearGradient></defs><g
     transform="matrix(1.3333333,0,0,-1.3333333,0,113.38667)"
     id="g10"><g
       transform="scale(0.1)"
       id="g12"><path
         id="path14"
         style="fill:#00a650;fill-opacity:1;fill-rule:evenodd;stroke:none"
         d="M 853.012,425.211 C 853.012,190.391 662.059,0.00390625 426.504,0.00390625 190.949,0.00390625 0,190.391 0,425.211 c 0,234.82 190.949,425.18 426.504,425.18 235.555,0 426.508,-190.36 426.508,-425.18" /><path
         id="path16"
         style="fill:#ffffff;fill-opacity:1;fill-rule:evenodd;stroke:none"
         d="M 278.301,43.5977 C 290.215,206.047 290.176,166.613 174.488,282.324 84.3164,372.426 129.5,419.953 18.7813,364.875 42.0898,217.551 143.008,96.0742 278.301,43.5977" /><path
         id="path28"
         style="fill:url(#linearGradient26);fill-opacity:1;fill-rule:evenodd;stroke:none"
         d="m 60.2422,616.828 c 29.5078,0.012 51.7848,46.656 74.2848,73.809 32.418,39.144 77.453,68.695 62.469,79.476 C 138.566,728.129 94.6914,676.445 60.2422,616.828" /><path
         id="path30"
         style="fill:#ffffff;fill-opacity:1;fill-rule:evenodd;stroke:none"
         d="M 576.109,44.6875 C 564.191,207.082 564.285,167.68 679.941,283.359 770.105,373.535 724.949,421.016 835.66,365.961 812.32,218.637 711.387,97.1602 576.109,44.6875" /><path
         id="path42"
         style="fill:url(#linearGradient40);fill-opacity:1;fill-rule:evenodd;stroke:none"
         d="m 793.098,616.828 c -29.516,0 -51.813,46.656 -74.301,73.809 -32.387,39.121 -77.422,68.679 -62.461,79.476 58.398,-42.047 102.277,-93.668 136.762,-153.285" /><path
         id="path44"
         style="fill:#ffffff;fill-opacity:1;fill-rule:evenodd;stroke:none"
         d="m 652.895,354.113 c -51.743,-39.265 -150.504,-49.765 -159.707,-39.004 -11.383,13.25 -22.754,25.45 -17.071,35.977 50.946,93.613 6.746,161.816 -49.043,161.816 -55.797,0 -100.011,-68.203 -49.101,-161.816 5.699,-10.527 -5.676,-22.727 -17.032,-35.977 -9.125,-10.625 -105.988,-0.507 -158.179,37.832 -35.574,35.657 -66.028,102.411 -57.442,112.418 10.602,12.446 20.313,24.637 29.422,21.942 81.25,-23.555 136.422,20.59 133.656,67.894 -2.761,47.36 -62.293,78.078 -138.503,15.371 -8.54,-7.007 -21.973,1.25 -33.676,8.122 -9.434,5.5 9.535,49.375 39.629,100.921 l 0.222,-0.121 c 33.957,38.828 81.45,44.317 91.481,39.856 12.418,-5.5 24.453,-10.375 24.722,-18.09 2.098,-68.906 51.465,-101.859 87.809,-89.066 36.402,12.792 44.621,66.042 -23.844,111.617 -7.668,5.062 -4.625,17.484 -2.222,28.164 1.929,8.664 4.246,15.89 73.32,19.664 0,0.609 0,1.273 0,1.922 0,-0.649 0,-1.313 0.023,-1.922 69.086,-3.774 71.395,-11 73.309,-19.664 2.363,-10.68 5.43,-23.102 -2.246,-28.164 -68.496,-45.575 -60.223,-98.825 -23.859,-111.617 36.398,-12.793 85.738,20.16 87.839,89.066 0.25,7.715 12.313,12.59 24.653,18.09 10.113,4.461 57.562,-1.028 91.558,-39.856 l 0.184,0.121 c 30.101,-51.546 49.101,-95.421 39.652,-100.921 -11.703,-6.872 -25.117,-15.129 -33.683,-8.122 -76.203,62.707 -135.743,31.989 -138.508,-15.371 -2.735,-47.304 52.383,-91.449 133.613,-67.894 9.156,2.695 18.852,-9.496 29.484,-21.942 8.473,-9.941 -21.285,-75.433 -56.41,-111.351 l -0.05,0.105" /><path
         id="path54"
         style="fill:url(#linearGradient52);fill-opacity:1;fill-rule:evenodd;stroke:none"
         d="m 428.172,804.645 c -32.996,0 -85.02,-3.911 -99.156,22.554 31.047,5.977 65.468,11.055 99.156,11.055 33.707,0 67.09,-4.184 97.48,-11.055 -14.175,-26.465 -64.441,-22.554 -97.48,-22.554" /><path
         id="path56"
         style="fill:#828083;fill-opacity:1;fill-rule:nonzero;stroke:none"
         d="m 1135.38,185.695 c 0,5.125 0.33,12.664 5.38,18.008 6.9,7.871 18.3,7.598 25.5,7.598 h 58.98 c 17.29,0 33.36,-1.543 46.59,-13.543 8.85,-7.949 16.46,-20.492 16.46,-43.528 V 44.2617 h -36.9 v 98.8943 c 0,11.074 -1.01,21.785 -6.91,29.68 -5.39,6.961 -12.95,10.113 -26.53,10.113 h -37.52 c -2.2,0 -4.37,0 -6.32,-1.914 -1.83,-2.144 -1.83,-4.773 -1.83,-6.933 V 44.2617 h -36.9 V 185.695" /><path
         id="path58"
         style="fill:#828083;fill-opacity:1;fill-rule:nonzero;stroke:none"
         d="m 1510.71,143.867 c 7.23,0 8.23,5.371 8.23,9.731 0,10.386 -5.37,18.218 -10.76,22.418 -9.11,6.933 -21.13,7.597 -31.5,7.597 -9.76,0 -24.87,0.246 -34.94,-11.148 -7.61,-8.481 -7.33,-17.59 -7.61,-28.598 z m -51.64,-99.6053 c -17.06,0 -37.2,1.5196 -51.11,21.1211 -11.01,15.7813 -11.92,38.8012 -11.92,60.8712 0,31.172 1.52,54.148 19.82,69.883 18.27,15.703 46.65,15.703 62.35,15.703 19.59,0 39.73,-0.832 55.18,-10.637 19.54,-12.297 23.65,-33.152 23.65,-54.199 0,-8.496 -0.93,-18.328 -7.85,-25.156 -5.07,-5.078 -11.31,-6.375 -17.97,-6.375 h -97.09 c 0,-7.258 0.98,-17.9417 2.25,-23.0082 4.67,-17.9609 20.11,-19.8554 33.71,-19.8554 h 81.64 V 44.2617 h -92.66" /><path
         id="path60"
         style="fill:#828083;fill-opacity:1;fill-rule:nonzero;stroke:none"
         d="m 1736.66,44.2617 c -22.43,0 -34.37,3.7774 -44.81,12.3321 -10.69,8.789 -16.72,21.0625 -16.72,42.2148 v 84.1404 h -22.91 v 28.352 h 22.91 v 53.562 h 36.91 v -53.562 h 46.63 v -28.352 h -46.63 v -67.183 c 0,-11.301 -0.95,-27.0746 9.79,-35.9027 8.22,-6.9024 22.04,-7.2539 28.68,-7.2539 h 9.12 V 44.2617 h -22.97" /><path
         id="path62"
         style="fill:#828083;fill-opacity:1;fill-rule:nonzero;stroke:none"
         d="m 1906.49,87.7578 c 0.28,-1.5937 1.6,-5.0234 3.14,-5.0234 1.95,0 2.9,3.8008 3.14,4.7304 l 30.57,110.2932 c 4.11,14.762 17.93,15.426 24.26,15.426 7.59,0 20.49,-1.61 24.28,-15.426 l 30.9,-110.2932 c 0.37,-1.3007 1.28,-4.7304 2.83,-4.7304 1.59,0 2.85,2.7656 3.43,5.0234 l 31.88,123.5432 h 35.27 L 2056.5,65.1172 c -5.37,-19.6055 -16.4,-22.7695 -28.66,-22.7695 -8.86,0 -23.93,1.5976 -28.68,18.6289 l -29.03,104.6604 c -0.34,1.218 -0.9,5.312 -2.53,5.312 -1.53,0 -2.17,-4.094 -2.53,-5.312 L 1936.13,60.9766 c -2.53,-8.5039 -9.44,-18.6289 -28.66,-18.6289 -22.4,0 -26.46,13.9218 -28.74,22.7695 L 1839.1,211.301 h 35.26 l 32.13,-123.5432" /><path
         id="path64"
         style="fill:#828083;fill-opacity:1;fill-rule:nonzero;stroke:none"
         d="m 2232.75,84.6016 c 10.66,-12.2539 26.73,-13.8477 39.99,-13.8477 13.84,0 28.67,1.5938 39.67,13.8477 11.08,12.2656 11.08,28.3714 11.08,42.8714 0,12.304 0.93,31.172 -10.71,44.113 -10.73,12.027 -26.83,13.172 -40.04,13.172 -11.98,0 -29.94,-1.145 -40.36,-13.172 -10.41,-12.043 -10.41,-33.402 -10.41,-44.113 0,-13.887 0.26,-30.8988 10.78,-42.8714 z m 107.4,110.8864 c 19.23,-17.898 21.46,-49.461 21.46,-67.105 0,-35.2853 -9.14,-56.4064 -21.46,-67.9611 -17.99,-16.7969 -48.17,-18.0742 -67.41,-18.0742 -19.87,0 -49.18,1.2773 -67.46,18.0742 -19.87,18.2226 -21.4,49.6561 -21.4,66.7381 0,18.867 2.17,50.43 21.4,68.328 18.28,17.032 47.59,17.696 67.46,17.696 19.8,0 49.18,-0.664 67.41,-17.696" /><path
         id="path66"
         style="fill:#828083;fill-opacity:1;fill-rule:nonzero;stroke:none"
         d="m 2469.43,148.313 c 0,18.222 3.11,36.164 17.32,48.515 15.47,13.469 37.17,14.473 50.06,14.473 h 24.92 v -28.352 h -15.47 c -9.77,0 -22.62,-1.297 -31.45,-11.66 -7.01,-8.582 -8.5,-20.223 -8.5,-32.781 V 44.2617 h -36.88 V 148.313" /><path
         id="path68"
         style="fill:#828083;fill-opacity:1;fill-rule:nonzero;stroke:none"
         d="m 2778.17,44.2617 -57.64,61.1403 c -4.73,5.047 -11.32,13.528 -11.32,25.188 0,12.566 6.95,19.844 11.64,25.23 l 50.37,55.481 h 42.89 l -62.7,-67.434 c -2.84,-3.152 -5.4,-6.719 -5.4,-12.027 0,-5.317 3.81,-10.949 7.95,-15.442 l 68.33,-72.1363 z m -116.86,0 V 264.863 h 36.86 V 44.2617 h -36.86" /><path
         id="path70"
         style="fill:#828083;fill-opacity:1;fill-rule:nonzero;stroke:none"
         d="m 2915.29,72.6094 h 93.86 c 3.8,0 8.88,0.6953 12.31,4.7383 3.16,3.4453 3.16,7.8593 3.16,10.4101 0,4.4414 -0.64,8.8164 -4.7,12.6762 -2.53,2.039 -6.97,4.324 -30.24,10.593 l -32.18,8.848 c -17.66,4.758 -29.94,11.086 -36.58,20.195 -6.59,9.168 -7.84,20.118 -7.84,28.407 0,8.097 1.25,19.23 7.84,28.351 9.81,13.469 25.88,14.473 40.12,14.473 h 94.21 v -28.352 h -88.58 c -4.12,0 -8.87,0 -12.97,-3.152 -4.43,-3.535 -4.75,-7.578 -4.75,-12.039 0,-4.68 0.32,-8.82 5.45,-12.883 4.68,-3.809 16.34,-7.258 20.72,-8.613 l 36.03,-9.992 c 19.79,-5.68 33.32,-10.016 41.55,-18.868 8.5,-9.187 10.07,-21.4059 10.07,-30.6325 0,-20.1093 -7.52,-30.5 -13.87,-35.5468 -8.48,-6.3477 -18.92,-6.961 -26.78,-6.961 h -106.83 v 28.3477" /><path
         id="path72"
         style="fill:#828083;fill-opacity:1;fill-rule:nonzero;stroke:none"
         d="M 3344.19,44.2617 V 182.949 h -23.28 v 28.059 h 23.28 c 0.32,10.945 3.11,30.555 17.35,42.219 15.7,12.937 46.33,14.48 65.22,13.789 v -27.102 c -18.89,0 -29.67,-0.559 -36.23,-5.039 -4.76,-3.113 -9.76,-10.02 -9.49,-23.574 h 45.72 v -28.352 h -45.72 V 44.2617 h -36.85" /><path
         id="path74"
         style="fill:#828083;fill-opacity:1;fill-rule:nonzero;stroke:none"
         d="m 3573.26,84.6016 c 10.72,-12.2539 26.73,-13.8477 40.02,-13.8477 13.92,0 28.67,1.5938 39.69,13.8477 11.06,12.2656 11.06,28.3714 11.06,42.8714 0,12.304 0.95,31.172 -10.69,44.113 -10.67,12.027 -26.83,13.172 -40.06,13.172 -11.96,0 -29.87,-1.145 -40.39,-13.172 -10.36,-12.043 -10.36,-33.402 -10.36,-44.113 0,-13.887 0.32,-30.8988 10.73,-42.8714 z m 107.48,110.8864 c 19.23,-17.898 21.38,-49.461 21.38,-67.105 0,-35.2853 -9.11,-56.4064 -21.38,-67.9611 -17.99,-16.7969 -48.23,-18.0742 -67.46,-18.0742 -19.88,0 -49.13,1.2773 -67.46,18.0742 -19.87,18.2226 -21.38,49.6561 -21.38,66.7381 0,18.867 2.15,50.43 21.38,68.328 18.33,17.032 47.58,17.696 67.46,17.696 19.88,0 49.18,-0.664 67.46,-17.696" /><path
         id="path76"
         style="fill:#828083;fill-opacity:1;fill-rule:nonzero;stroke:none"
         d="m 3810.02,148.313 c 0,18.222 3.06,36.164 17.36,48.515 15.43,13.469 37.13,14.473 50.05,14.473 h 24.87 v -28.352 h -15.44 c -9.81,0 -22.67,-1.297 -31.52,-11.66 -6.9,-8.582 -8.46,-20.223 -8.46,-32.781 V 44.2617 h -36.86 V 148.313" /><path
         id="path78"
         style="fill:#828083;fill-opacity:1;fill-rule:nonzero;stroke:none"
         d="m 4162.36,264.863 h 36.79 V 44.2617 h -36.79 V 264.863" /><path
         id="path80"
         style="fill:#828083;fill-opacity:1;fill-rule:nonzero;stroke:none"
         d="m 4311.3,211.301 h 36.91 V 44.2617 h -36.91 z m 0,24.289 v 29.273 h 36.91 V 235.59 h -36.91" /><path
         id="path82"
         style="fill:#828083;fill-opacity:1;fill-rule:nonzero;stroke:none"
         d="M 4473.56,44.2617 V 182.949 h -23.27 v 28.059 h 23.27 c 0.4,10.945 3.19,30.555 17.43,42.219 15.67,12.937 46.23,14.48 65.18,13.789 v -27.102 c -18.95,0 -29.68,-0.559 -36.27,-5.039 -4.68,-3.113 -9.67,-10.02 -9.36,-23.574 h 45.63 v -28.352 h -45.63 V 44.2617 h -36.98" /><path
         id="path84"
         style="fill:#828083;fill-opacity:1;fill-rule:nonzero;stroke:none"
         d="m 4762.29,143.867 c 7.2,0 8.2,5.371 8.2,9.731 0,10.386 -5.44,18.218 -10.73,22.418 -9.11,6.933 -21.15,7.597 -31.53,7.597 -9.76,0 -24.8,0.246 -34.92,-11.148 -7.62,-8.481 -7.36,-17.59 -7.62,-28.598 z m -51.65,-99.6053 c -17.09,0 -37.23,1.5196 -51.08,21.1211 -11.07,15.7813 -11.95,38.8012 -11.95,60.8712 0,31.172 1.51,54.148 19.87,69.883 18.21,15.703 46.58,15.703 62.34,15.703 19.55,0 39.67,-0.832 55.12,-10.637 19.54,-12.297 23.68,-33.152 23.68,-54.199 0,-8.496 -0.95,-18.328 -7.86,-25.156 -5.08,-5.078 -11.4,-6.375 -17.96,-6.375 h -97.11 c 0,-7.258 1.03,-17.9417 2.22,-23.0082 4.68,-17.9609 20.12,-19.8554 33.75,-19.8554 h 81.61 V 44.2617 h -92.63" /><path
         id="path86"
         style="fill:#00a650;fill-opacity:1;fill-rule:evenodd;stroke:none"
         d="m 4400.92,575.594 c 108.48,11.898 215.42,26.328 319.34,43.465 h 80.5 V 519.012 h -251.14 v -49.895 c 0,-9.23 3.3,-14.535 6.55,-17.109 7.19,-6.574 19.17,-5.899 28.29,-5.899 h 224.82 V 334.316 h -331.39 c -19,0 -38.13,1.301 -55.95,15.735 -21.02,17.793 -21.02,36.179 -21.02,57.89 z m -459.88,-36.231 c 46.65,2.313 93.42,5.063 140.17,8.223 l 22.53,-65.398 c 2.63,-7.848 6.6,-9.887 8.56,-9.887 1.99,0 5.93,2.039 8.53,9.887 l 24.17,69.867 c 49.75,3.797 99.43,7.941 148.98,12.617 l -65.95,-161.328 c -16.46,-40.117 -42.67,-74.367 -115.73,-74.367 -72.93,0 -99.32,34.25 -115.71,74.367 l -55.55,136.019 z m -535.27,-11.144 c 124.86,-1.102 255.17,0.504 387.81,4.941 l 82.65,-198.844 h -156.49 l -36.13,94.668 h -165.69 l -36.21,-94.668 h -156.49 l 80.55,193.903 z m -411.92,12.941 c 39.35,-2.277 79.86,-4.308 121.52,-5.953 l 6.07,-20.754 c 0.63,-3.289 4.62,-11.133 7.15,-11.133 2.01,0 5.39,2.024 8.6,13.75 l 4.62,17.008 c 46.4,-1.648 93.93,-3.109 142.52,-4.187 l -32.15,-105.543 c -23.62,-78.235 -53.8,-95.371 -113.03,-95.371 -69.68,0 -92.03,30.371 -106.51,79.675 l -38.79,132.508 z m -355.9,30.883 h 0.22 c 45.81,-5.699 95.68,-11.012 148.97,-15.82 l 10.76,-39.153 c 3.29,-11.726 6.54,-13.75 8.59,-13.75 2.55,0 6.59,7.844 7.19,11.133 l 11.32,38.488 c 37.54,-3.175 76.68,-6.086 117.17,-8.648 l -39.75,-135.641 c -14.48,-49.304 -36.76,-79.675 -106.51,-79.675 -59.17,0 -89.4,17.136 -113.07,95.371 l -44.89,147.695 z m -354.18,30.387 c 51.16,-2.539 100.8,-5.821 148.52,-9.625 V 334.316 H 2283.77 V 602.43 Z m -579.33,-0.895 c 138.47,7.399 272.77,9.34 399.77,6.961 v -89.484 h -251.16 v -49.895 c 0,-9.23 3.28,-14.535 6.57,-17.109 7.21,-6.574 19.05,-5.899 28.24,-5.899 h 224.89 V 334.316 H 1781.4 c -19.06,0 -38.18,1.301 -55.9,15.735 -21.06,17.793 -21.06,36.179 -21.06,57.89 V 601.535 Z M 1136.32,539.273 V 334.316 h 114.42 v 222.918 c -38.09,-5.504 -76.24,-11.425 -114.42,-17.961 z m 387.96,49.485 v -68.414 c 0,-3.274 0,-11.133 -7.23,-11.133 -5.25,0 -9.23,6.57 -12.53,11.133 l -44.18,62.461 c -51.81,-5.196 -104.02,-11.266 -156.36,-18.223 l 134.84,-190.148 c 28.93,-40.86 65.06,-45.457 99.99,-45.457 96.59,0 99.88,65.871 99.88,82.285 v 186.343 c -37.91,-2.527 -76.01,-5.367 -114.41,-8.847 v 0" /><path
         id="path88"
         style="fill:#66c87f;fill-opacity:1;fill-rule:nonzero;stroke:none"
         d="m 1524.28,588.758 c 38.4,3.48 76.5,6.32 114.41,8.847 V 794.563 H 1524.28 V 588.758" /><path
         id="path90"
         style="fill:#66c87f;fill-opacity:1;fill-rule:nonzero;stroke:none"
         d="m 1239.55,799.805 c -53.24,0 -103.23,-21.61 -103.23,-81.512 v -179.02 c 38.18,6.536 76.33,12.457 114.42,17.961 v 49.961 c 0,13.176 7.22,13.176 9.19,13.176 4.62,0 9.18,-6.59 12.54,-11.141 l 31.55,-44.648 c 52.36,6.957 104.51,13.027 156.32,18.223 l -123.45,174.293 c -28.31,40.105 -72.34,42.707 -97.34,42.707" /><path
         id="path92"
         style="fill:#66c87f;fill-opacity:1;fill-rule:nonzero;stroke:none"
         d="m 1724.18,776.203 c -17.15,-15.824 -19.74,-34.836 -19.74,-52.652 V 601.535 c 138.47,7.399 272.77,9.34 399.77,6.961 v 10.563 h -251.16 v 34.75 c 0,6.046 0,16.461 7.25,22.398 5.21,4.625 14.4,6.594 22.93,6.594 h 227.52 v 111.762 h -330.71 c -16.36,0 -38.76,-2.676 -55.86,-18.36" /><path
         id="path94"
         style="fill:#66c87f;fill-opacity:1;fill-rule:nonzero;stroke:none"
         d="M 2596.69,794.563 H 2119.21 V 680.23 h 164.56 v -77.8 c 51.16,-2.539 100.8,-5.821 148.52,-9.625 v 87.425 h 164.4 v 27.434 l 41.26,-135.621 h 0.22 c 45.81,-5.699 95.68,-11.012 148.97,-15.82 l -65.52,238.34 h -124.93" /><path
         id="path96"
         style="fill:#66c87f;fill-opacity:1;fill-rule:nonzero;stroke:none"
         d="m 2967.57,799.805 c -25.63,0 -71.09,-2.602 -84.88,-49.934 L 2825,552.941 c 37.54,-3.175 76.68,-6.086 117.17,-8.648 l 18.87,64.203 c 1.33,3.254 3.29,11.875 6.53,11.875 3.27,0 5.21,-8.621 6.53,-11.875 l 19.75,-67.336 c 39.35,-2.277 79.86,-4.308 121.52,-5.953 l -62.98,214.664 c -13.85,47.332 -59.17,49.934 -84.82,49.934" /><path
         id="path98"
         style="fill:#66c87f;fill-opacity:1;fill-rule:nonzero;stroke:none"
         d="m 3141.81,534.078 c 46.4,-1.648 93.93,-3.109 142.52,-4.187 l 80.37,264.672 h -151.26 l -71.63,-260.485" /><path
         id="path100"
         style="fill:#66c87f;fill-opacity:1;fill-rule:nonzero;stroke:none"
         d="m 3836.75,794.563 104.29,-255.2 c 46.65,2.313 93.42,5.063 140.17,8.223 l -85.26,246.977 h -159.2" /><path
         id="path102"
         style="fill:#66c87f;fill-opacity:1;fill-rule:nonzero;stroke:none"
         d="m 4145,552.055 c 49.75,3.797 99.43,7.941 148.98,12.617 l 93.84,229.891 h -159.1 L 4145,552.055" /><path
         id="path104"
         style="fill:#66c87f;fill-opacity:1;fill-rule:nonzero;stroke:none"
         d="m 4556.8,676.207 c 5.36,4.625 14.48,6.594 23.09,6.594 h 227.46 v 111.762 h -330.74 c -16.47,0 -38.78,-2.676 -55.92,-18.36 -16.99,-15.824 -19.77,-34.836 -19.77,-52.652 V 575.594 c 108.48,11.898 215.42,26.328 319.34,43.465 h -170.64 v 34.75 c 0,6.046 0,16.461 7.18,22.398" /><path
         id="path106"
         style="fill:#66c87f;fill-opacity:1;fill-rule:nonzero;stroke:none"
         d="m 3553.42,534.211 41.45,116.305 c 1.28,3.293 3.85,9.964 5.89,9.964 1.95,0 4.55,-6.671 5.93,-9.964 l 41.4,-116.305 z m 47.34,265.594 c -71.01,0 -90.76,-21.61 -105.18,-55.887 l -89.81,-215.699 c 124.86,-1.102 255.17,0.504 387.81,4.941 l -87.65,210.758 c -21.66,51.332 -61.14,55.887 -105.17,55.887" /></g></g></svg>